<svg width="50" height="36" viewBox="0 0 50 36" fill="none" xmlns="http://www.w3.org/2000/svg">
<g clip-path="url(#clip0_241_1184)">
<g filter="url(#filter0_d_241_1184)">
<path d="M18.6946 17.4411C21.0305 8.86605 30.1742 4.72991 32.7141 6.74683C26.3225 8.66353 25.5004 16.0338 25.9062 23.7967L18.6925 17.4411H18.6946Z" fill="white"/>
</g>
<g filter="url(#filter1_dd_241_1184)">
<path d="M42.0933 17.2684C39.7595 8.32169 26.8439 7.32785 22.8302 20.346C20.6352 10.0129 11.4515 11.6394 6.8786 18.8385C13.3375 14.4163 17.7863 17.4145 14.1932 25.0312C13.6108 25.1252 13.0284 25.2233 12.4481 25.334C10.8523 25.6388 9.83891 27.2194 10.169 28.7686C10.4991 30.3199 11.9225 31.2866 13.3606 31.0131C19.9372 29.7541 26.6631 29.7541 33.2397 31.0131C34.6778 31.2866 36.1012 30.322 36.4313 28.7686C36.7614 27.2194 35.7459 25.6388 34.1522 25.334C33.6707 25.2421 33.1871 25.1565 32.7057 25.0772C28.9674 17.7632 36.2715 12.057 42.0954 17.2684H42.0933Z" fill="white"/>
</g>
<g filter="url(#filter2_d_241_1184)">
<path d="M6.88074 21.7277C7.95831 21.7277 8.83186 20.8602 8.83186 19.7901C8.83186 18.72 7.95831 17.8525 6.88074 17.8525C5.80317 17.8525 4.92963 18.72 4.92963 19.7901C4.92963 20.8602 5.80317 21.7277 6.88074 21.7277Z" fill="white"/>
</g>
<g filter="url(#filter3_d_241_1184)">
<path d="M33.4142 8.2236C34.3269 8.2236 35.0668 7.48885 35.0668 6.5825C35.0668 5.67615 34.3269 4.94141 33.4142 4.94141C32.5015 4.94141 31.7617 5.67615 31.7617 6.5825C31.7617 7.48885 32.5015 8.2236 33.4142 8.2236Z" fill="white"/>
</g>
<g filter="url(#filter4_d_241_1184)">
<path d="M42.6673 20.8071C43.9945 20.8071 45.0704 19.7387 45.0704 18.4207C45.0704 17.1026 43.9945 16.0342 42.6673 16.0342C41.3401 16.0342 40.2641 17.1026 40.2641 18.4207C40.2641 19.7387 41.3401 20.8071 42.6673 20.8071Z" fill="white"/>
</g>
</g>
<defs>
<filter id="filter0_d_241_1184" x="12.6102" y="0.160843" width="26.1862" height="29.7184" filterUnits="userSpaceOnUse" color-interpolation-filters="sRGB">
<feFlood flood-opacity="0" result="BackgroundImageFix"/>
<feColorMatrix in="SourceAlpha" type="matrix" values="0 0 0 0 0 0 0 0 0 0 0 0 0 0 0 0 0 0 127 0" result="hardAlpha"/>
<feOffset/>
<feGaussianBlur stdDeviation="3.04116"/>
<feComposite in2="hardAlpha" operator="out"/>
<feColorMatrix type="matrix" values="0 0 0 0 0.52018 0 0 0 0 0.531966 0 0 0 0 0.97198 0 0 0 0.3 0"/>
<feBlend mode="normal" in2="BackgroundImageFix" result="effect1_dropShadow_241_1184"/>
<feBlend mode="normal" in="SourceGraphic" in2="effect1_dropShadow_241_1184" result="shape"/>
</filter>
<filter id="filter1_dd_241_1184" x="0.79628" y="4.46944" width="47.3814" height="32.6725" filterUnits="userSpaceOnUse" color-interpolation-filters="sRGB">
<feFlood flood-opacity="0" result="BackgroundImageFix"/>
<feColorMatrix in="SourceAlpha" type="matrix" values="0 0 0 0 0 0 0 0 0 0 0 0 0 0 0 0 0 0 127 0" result="hardAlpha"/>
<feOffset/>
<feGaussianBlur stdDeviation="3.04116"/>
<feComposite in2="hardAlpha" operator="out"/>
<feColorMatrix type="matrix" values="0 0 0 0 0.52018 0 0 0 0 0.531966 0 0 0 0 0.97198 0 0 0 0.3 0"/>
<feBlend mode="normal" in2="BackgroundImageFix" result="effect1_dropShadow_241_1184"/>
<feColorMatrix in="SourceAlpha" type="matrix" values="0 0 0 0 0 0 0 0 0 0 0 0 0 0 0 0 0 0 127 0" result="hardAlpha"/>
<feOffset dy="2.23204"/>
<feGaussianBlur stdDeviation="1.11602"/>
<feComposite in2="hardAlpha" operator="out"/>
<feColorMatrix type="matrix" values="0 0 0 0 0 0 0 0 0 0 0 0 0 0 0 0 0 0 0.25 0"/>
<feBlend mode="normal" in2="effect1_dropShadow_241_1184" result="effect2_dropShadow_241_1184"/>
<feBlend mode="normal" in="SourceGraphic" in2="effect2_dropShadow_241_1184" result="shape"/>
</filter>
<filter id="filter2_d_241_1184" x="-1.15269" y="11.7702" width="16.0669" height="16.0396" filterUnits="userSpaceOnUse" color-interpolation-filters="sRGB">
<feFlood flood-opacity="0" result="BackgroundImageFix"/>
<feColorMatrix in="SourceAlpha" type="matrix" values="0 0 0 0 0 0 0 0 0 0 0 0 0 0 0 0 0 0 127 0" result="hardAlpha"/>
<feOffset/>
<feGaussianBlur stdDeviation="3.04116"/>
<feComposite in2="hardAlpha" operator="out"/>
<feColorMatrix type="matrix" values="0 0 0 0 0.52018 0 0 0 0 0.531966 0 0 0 0 0.97198 0 0 0 0.3 0"/>
<feBlend mode="normal" in2="BackgroundImageFix" result="effect1_dropShadow_241_1184"/>
<feBlend mode="normal" in="SourceGraphic" in2="effect1_dropShadow_241_1184" result="shape"/>
</filter>
<filter id="filter3_d_241_1184" x="25.6793" y="-1.14091" width="15.4698" height="15.4469" filterUnits="userSpaceOnUse" color-interpolation-filters="sRGB">
<feFlood flood-opacity="0" result="BackgroundImageFix"/>
<feColorMatrix in="SourceAlpha" type="matrix" values="0 0 0 0 0 0 0 0 0 0 0 0 0 0 0 0 0 0 127 0" result="hardAlpha"/>
<feOffset/>
<feGaussianBlur stdDeviation="3.04116"/>
<feComposite in2="hardAlpha" operator="out"/>
<feColorMatrix type="matrix" values="0 0 0 0 0.52018 0 0 0 0 0.531966 0 0 0 0 0.97198 0 0 0 0.3 0"/>
<feBlend mode="normal" in2="BackgroundImageFix" result="effect1_dropShadow_241_1184"/>
<feBlend mode="normal" in="SourceGraphic" in2="effect1_dropShadow_241_1184" result="shape"/>
</filter>
<filter id="filter4_d_241_1184" x="34.1818" y="9.95186" width="16.9709" height="16.9381" filterUnits="userSpaceOnUse" color-interpolation-filters="sRGB">
<feFlood flood-opacity="0" result="BackgroundImageFix"/>
<feColorMatrix in="SourceAlpha" type="matrix" values="0 0 0 0 0 0 0 0 0 0 0 0 0 0 0 0 0 0 127 0" result="hardAlpha"/>
<feOffset/>
<feGaussianBlur stdDeviation="3.04116"/>
<feComposite in2="hardAlpha" operator="out"/>
<feColorMatrix type="matrix" values="0 0 0 0 0.52018 0 0 0 0 0.531966 0 0 0 0 0.97198 0 0 0 0.3 0"/>
<feBlend mode="normal" in2="BackgroundImageFix" result="effect1_dropShadow_241_1184"/>
<feBlend mode="normal" in="SourceGraphic" in2="effect1_dropShadow_241_1184" result="shape"/>
</filter>
<clipPath id="clip0_241_1184">
<rect width="50" height="36" fill="white"/>
</clipPath>
</defs>
</svg>
