<svg width="335" height="462" viewBox="0 0 335 462" fill="none" xmlns="http://www.w3.org/2000/svg">
<g filter="url(#filter0_d_239_2467)">
<rect x="50.5" y="50" width="234" height="362" rx="8" fill="#111111"/>
</g>
<path d="M112.094 372.685H116.139C116.99 372.685 117.708 372.843 118.293 373.16C118.883 373.473 119.323 373.906 119.614 374.459C119.908 375.011 120.056 375.643 120.056 376.354C120.056 377.064 119.908 377.698 119.614 378.254C119.319 378.807 118.877 379.241 118.288 379.558C117.702 379.875 116.984 380.033 116.133 380.033H113.813V384H112.094V372.685ZM115.962 378.569C116.761 378.569 117.354 378.368 117.741 377.967C118.131 377.565 118.327 377.028 118.327 376.354C118.327 375.68 118.131 375.145 117.741 374.751C117.354 374.357 116.759 374.16 115.956 374.16H113.813V378.569H115.962ZM121.252 381.602C121.252 380.729 121.548 380.105 122.141 379.729C122.738 379.354 123.498 379.133 124.423 379.066C124.784 379.044 125.176 379.022 125.6 379C126.023 378.978 126.375 378.961 126.655 378.95V378.26C126.655 377.777 126.508 377.405 126.213 377.144C125.918 376.882 125.489 376.751 124.926 376.751C124.45 376.751 124.062 376.849 123.76 377.044C123.462 377.239 123.268 377.501 123.18 377.829H121.517C121.568 377.361 121.743 376.943 122.042 376.575C122.34 376.206 122.741 375.919 123.246 375.713C123.754 375.506 124.334 375.403 124.986 375.403C125.524 375.403 126.042 375.486 126.539 375.652C127.036 375.818 127.456 376.122 127.799 376.564C128.145 377.002 128.318 377.602 128.318 378.365V384H126.694V382.84H126.627C126.509 383.076 126.34 383.295 126.119 383.497C125.902 383.7 125.624 383.866 125.285 383.994C124.95 384.123 124.561 384.188 124.119 384.188C123.574 384.188 123.084 384.087 122.649 383.884C122.218 383.681 121.878 383.385 121.627 382.994C121.377 382.604 121.252 382.14 121.252 381.602ZM122.887 381.624C122.887 382.022 123.032 382.328 123.323 382.541C123.618 382.751 124.007 382.856 124.489 382.856C124.927 382.856 125.311 382.768 125.638 382.591C125.97 382.414 126.222 382.18 126.395 381.89C126.572 381.595 126.66 381.278 126.66 380.939V380.166C126.381 380.18 125.714 380.225 124.66 380.298C124.097 380.339 123.66 380.47 123.351 380.691C123.042 380.908 122.887 381.219 122.887 381.624ZM133.906 387.359C133.191 387.359 132.563 387.258 132.022 387.055C131.484 386.856 131.057 386.565 130.74 386.182C130.427 385.803 130.247 385.35 130.199 384.823H131.9C131.978 385.221 132.191 385.519 132.541 385.718C132.895 385.921 133.355 386.022 133.923 386.022C134.608 386.022 135.138 385.866 135.514 385.552C135.893 385.243 136.083 384.766 136.083 384.122V382.453H135.972C135.762 382.843 135.471 383.179 135.099 383.459C134.727 383.735 134.199 383.873 133.514 383.873C132.836 383.873 132.228 383.709 131.69 383.381C131.156 383.053 130.735 382.573 130.425 381.939C130.116 381.306 129.961 380.549 129.961 379.669C129.961 378.788 130.114 378.028 130.42 377.387C130.725 376.742 131.147 376.25 131.685 375.912C132.226 375.573 132.841 375.403 133.53 375.403C134.013 375.403 134.418 375.484 134.746 375.646C135.074 375.805 135.326 375.987 135.503 376.193C135.679 376.4 135.841 376.632 135.989 376.89H136.099V375.514H137.729V384.182C137.729 384.886 137.565 385.475 137.237 385.95C136.91 386.425 136.458 386.779 135.884 387.011C135.313 387.243 134.654 387.359 133.906 387.359ZM131.657 379.702C131.657 380.262 131.742 380.751 131.911 381.171C132.081 381.591 132.333 381.917 132.668 382.149C133.004 382.381 133.411 382.497 133.889 382.497C134.357 382.497 134.757 382.387 135.088 382.166C135.42 381.945 135.67 381.624 135.84 381.204C136.013 380.785 136.099 380.284 136.099 379.702C136.099 379.127 136.013 378.624 135.84 378.193C135.67 377.759 135.42 377.422 135.088 377.182C134.757 376.943 134.357 376.823 133.889 376.823C133.407 376.823 132.998 376.948 132.663 377.199C132.331 377.446 132.081 377.786 131.911 378.221C131.742 378.656 131.657 379.149 131.657 379.702ZM143.422 384.171C142.597 384.171 141.878 383.993 141.267 383.635C140.659 383.274 140.192 382.766 139.864 382.11C139.54 381.451 139.378 380.685 139.378 379.812C139.378 378.95 139.54 378.186 139.864 377.519C140.192 376.853 140.652 376.333 141.245 375.961C141.838 375.589 142.523 375.403 143.3 375.403C143.982 375.403 144.606 375.552 145.173 375.851C145.744 376.145 146.203 376.611 146.549 377.249C146.899 377.886 147.074 378.692 147.074 379.669V380.26H141.035C141.05 380.79 141.158 381.247 141.361 381.63C141.564 382.013 141.842 382.304 142.195 382.503C142.553 382.702 142.965 382.801 143.433 382.801C143.882 382.801 144.263 382.716 144.576 382.547C144.89 382.374 145.122 382.147 145.273 381.867H146.963C146.838 382.331 146.613 382.737 146.289 383.083C145.969 383.429 145.564 383.698 145.074 383.89C144.584 384.077 144.033 384.171 143.422 384.171ZM145.433 379.011C145.433 378.584 145.344 378.201 145.168 377.862C144.991 377.523 144.742 377.258 144.422 377.066C144.105 376.871 143.739 376.773 143.322 376.773C142.891 376.773 142.506 376.875 142.168 377.077C141.832 377.28 141.567 377.552 141.372 377.895C141.177 378.238 141.066 378.61 141.041 379.011H145.433ZM156.219 384.171C155.428 384.171 154.731 383.991 154.131 383.63C153.534 383.265 153.072 382.751 152.744 382.088C152.416 381.425 152.253 380.661 152.253 379.796C152.253 378.923 152.416 378.155 152.744 377.492C153.072 376.829 153.534 376.315 154.131 375.95C154.731 375.586 155.428 375.403 156.219 375.403C157.008 375.403 157.7 375.586 158.297 375.95C158.897 376.315 159.359 376.829 159.683 377.492C160.011 378.155 160.175 378.923 160.175 379.796C160.175 380.661 160.011 381.425 159.683 382.088C159.359 382.751 158.897 383.265 158.297 383.63C157.7 383.991 157.008 384.171 156.219 384.171ZM153.932 379.79C153.932 380.346 154.017 380.851 154.186 381.304C154.359 381.757 154.617 382.116 154.96 382.381C155.306 382.646 155.728 382.779 156.225 382.779C156.718 382.779 157.135 382.646 157.474 382.381C157.816 382.116 158.072 381.757 158.241 381.304C158.411 380.851 158.496 380.346 158.496 379.79C158.496 379.234 158.411 378.729 158.241 378.276C158.072 377.823 157.816 377.462 157.474 377.193C157.135 376.924 156.718 376.79 156.225 376.79C155.728 376.79 155.306 376.924 154.96 377.193C154.617 377.462 154.359 377.823 154.186 378.276C154.017 378.729 153.932 379.234 153.932 379.79ZM165.865 376.845H164.042V384H162.374V376.845H161.064V375.514H162.374V374.536C162.374 374.035 162.475 373.606 162.678 373.249C162.884 372.891 163.177 372.621 163.556 372.436C163.935 372.249 164.385 372.155 164.904 372.155C165.302 372.155 165.679 372.192 166.037 372.265V373.652C165.783 373.615 165.549 373.597 165.335 373.597C164.893 373.597 164.567 373.691 164.357 373.878C164.147 374.066 164.042 374.365 164.042 374.773V375.514H165.865V376.845ZM170.506 372.685H172.319L174.517 381.431H174.622L176.91 372.685H178.7L180.987 381.436H181.087L183.285 372.685H185.098L181.959 384H180.225L177.849 375.547H177.761L175.385 384H173.645L170.506 372.685ZM185.127 381.602C185.127 380.729 185.423 380.105 186.016 379.729C186.613 379.354 187.373 379.133 188.298 379.066C188.659 379.044 189.051 379.022 189.475 379C189.898 378.978 190.25 378.961 190.53 378.95V378.26C190.53 377.777 190.383 377.405 190.088 377.144C189.793 376.882 189.364 376.751 188.801 376.751C188.325 376.751 187.937 376.849 187.635 377.044C187.337 377.239 187.143 377.501 187.055 377.829H185.392C185.443 377.361 185.618 376.943 185.917 376.575C186.215 376.206 186.616 375.919 187.121 375.713C187.629 375.506 188.209 375.403 188.861 375.403C189.399 375.403 189.917 375.486 190.414 375.652C190.911 375.818 191.331 376.122 191.674 376.564C192.02 377.002 192.193 377.602 192.193 378.365V384H190.569V382.84H190.502C190.384 383.076 190.215 383.295 189.994 383.497C189.777 383.7 189.499 383.866 189.16 383.994C188.825 384.123 188.436 384.188 187.994 384.188C187.449 384.188 186.959 384.087 186.524 383.884C186.093 383.681 185.753 383.385 185.502 382.994C185.252 382.604 185.127 382.14 185.127 381.602ZM186.762 381.624C186.762 382.022 186.907 382.328 187.198 382.541C187.493 382.751 187.882 382.856 188.364 382.856C188.802 382.856 189.186 382.768 189.513 382.591C189.845 382.414 190.097 382.18 190.27 381.89C190.447 381.595 190.535 381.278 190.535 380.939V380.166C190.256 380.18 189.589 380.225 188.535 380.298C187.972 380.339 187.535 380.47 187.226 380.691C186.917 380.908 186.762 381.219 186.762 381.624ZM195.88 384H194.212V375.514H195.814V376.901H195.919C196.122 376.433 196.435 376.066 196.858 375.801C197.282 375.536 197.803 375.403 198.422 375.403C199.007 375.403 199.516 375.527 199.947 375.773C200.381 376.017 200.716 376.378 200.952 376.856C201.192 377.335 201.311 377.917 201.311 378.602V384H199.643V378.807C199.643 378.401 199.571 378.052 199.427 377.757C199.287 377.462 199.083 377.238 198.814 377.083C198.545 376.924 198.225 376.845 197.853 376.845C197.466 376.845 197.123 376.93 196.825 377.099C196.53 377.265 196.298 377.508 196.129 377.829C195.963 378.145 195.88 378.525 195.88 378.967V384ZM206.514 384.166C205.829 384.166 205.217 383.989 204.679 383.635C204.142 383.282 203.72 382.773 203.414 382.11C203.112 381.448 202.961 380.669 202.961 379.773C202.961 378.875 203.114 378.096 203.42 377.436C203.725 376.777 204.149 376.274 204.69 375.928C205.232 375.578 205.845 375.403 206.53 375.403C207.013 375.403 207.416 375.484 207.74 375.646C208.068 375.805 208.318 375.987 208.492 376.193C208.665 376.4 208.825 376.632 208.972 376.89H209.061V372.685H210.729V384H209.099V382.68H208.972C208.829 382.934 208.665 383.166 208.481 383.376C208.296 383.586 208.04 383.77 207.713 383.928C207.388 384.087 206.989 384.166 206.514 384.166ZM204.657 379.757C204.657 380.331 204.742 380.845 204.911 381.298C205.085 381.748 205.339 382.101 205.674 382.359C206.009 382.617 206.414 382.746 206.889 382.746C207.353 382.746 207.751 382.622 208.083 382.376C208.414 382.125 208.667 381.775 208.84 381.326C209.013 380.873 209.099 380.35 209.099 379.757C209.099 379.164 209.013 378.648 208.84 378.21C208.67 377.768 208.42 377.427 208.088 377.188C207.757 376.945 207.357 376.823 206.889 376.823C206.407 376.823 205.998 376.948 205.663 377.199C205.328 377.449 205.075 377.796 204.906 378.238C204.74 378.68 204.657 379.186 204.657 379.757ZM217.662 377.829C217.581 377.483 217.404 377.212 217.131 377.017C216.863 376.818 216.503 376.718 216.054 376.718C215.745 376.718 215.465 376.768 215.214 376.867C214.964 376.967 214.769 377.105 214.629 377.282C214.492 377.455 214.424 377.646 214.424 377.856C214.421 378.11 214.526 378.328 214.739 378.508C214.956 378.685 215.293 378.827 215.75 378.934L217.109 379.243C217.886 379.424 218.467 379.703 218.85 380.083C219.233 380.459 219.424 380.945 219.424 381.541C219.424 382.053 219.284 382.508 219.004 382.906C218.728 383.304 218.328 383.615 217.805 383.84C217.282 384.061 216.666 384.171 215.955 384.171C214.945 384.171 214.144 383.956 213.551 383.525C212.962 383.094 212.614 382.479 212.507 381.68H214.214C214.358 382.449 214.933 382.834 215.938 382.834C216.295 382.834 216.608 382.788 216.877 382.696C217.146 382.6 217.352 382.466 217.496 382.293C217.643 382.116 217.717 381.91 217.717 381.674C217.717 381.398 217.61 381.171 217.397 380.994C217.187 380.814 216.857 380.672 216.408 380.569L215.082 380.276C214.323 380.11 213.745 379.829 213.347 379.431C212.953 379.033 212.756 378.54 212.756 377.95C212.756 377.453 212.892 377.011 213.165 376.624C213.441 376.238 213.828 375.937 214.325 375.724C214.822 375.51 215.395 375.403 216.043 375.403C216.662 375.403 217.203 375.505 217.667 375.707C218.135 375.906 218.505 376.188 218.778 376.552C219.05 376.917 219.212 377.343 219.264 377.829H217.662Z" fill="#B48AEB"/>
<path d="M164.413 77.6851H168.258C169.112 77.6851 169.827 77.8416 170.402 78.1547C170.98 78.4641 171.409 78.8895 171.689 79.4309C171.973 79.9724 172.114 80.5875 172.114 81.2762C172.114 81.965 171.974 82.582 171.694 83.1271C171.415 83.6722 170.987 84.1031 170.413 84.4199C169.838 84.733 169.127 84.8895 168.28 84.8895H165.816V89H164.413V77.6851ZM168.214 83.6409C169.072 83.6409 169.704 83.4273 170.109 83C170.518 82.5691 170.722 81.9945 170.722 81.2762C170.722 80.558 170.518 79.9889 170.109 79.5691C169.7 79.1455 169.065 78.9337 168.203 78.9337H165.816V83.6409H168.214Z" fill="#B48AEB"/>
<g clip-path="url(#clip0_239_2467)">
<g filter="url(#filter1_d_239_2467)">
<path d="M150.406 186.004C164.498 178.906 170.145 161.684 163.02 147.536C155.894 133.388 138.694 127.673 124.602 134.77C110.51 141.868 104.862 159.09 111.988 173.238C119.114 187.386 136.314 193.101 150.406 186.004Z" fill="url(#paint0_linear_239_2467)"/>
</g>
<g filter="url(#filter2_d_239_2467)">
<path d="M227.543 323.932L215.299 330.099L137.753 188.857L160.231 177.535L227.543 323.932Z" fill="url(#paint1_linear_239_2467)"/>
</g>
<g filter="url(#filter3_d_239_2467)">
<path d="M170.995 189.991L141.342 204.926L149.35 220.826L179.004 205.891L170.995 189.991Z" fill="url(#paint2_linear_239_2467)"/>
</g>
</g>
<defs>
<filter id="filter0_d_239_2467" x="0.5" y="0" width="334" height="462" filterUnits="userSpaceOnUse" color-interpolation-filters="sRGB">
<feFlood flood-opacity="0" result="BackgroundImageFix"/>
<feColorMatrix in="SourceAlpha" type="matrix" values="0 0 0 0 0 0 0 0 0 0 0 0 0 0 0 0 0 0 127 0" result="hardAlpha"/>
<feMorphology radius="15" operator="dilate" in="SourceAlpha" result="effect1_dropShadow_239_2467"/>
<feOffset/>
<feGaussianBlur stdDeviation="17.5"/>
<feComposite in2="hardAlpha" operator="out"/>
<feColorMatrix type="matrix" values="0 0 0 0 0 0 0 0 0 0.192157 0 0 0 0 0.67451 0 0 0 0.3 0"/>
<feBlend mode="normal" in2="BackgroundImageFix" result="effect1_dropShadow_239_2467"/>
<feBlend mode="normal" in="SourceGraphic" in2="effect1_dropShadow_239_2467" result="shape"/>
</filter>
<filter id="filter1_d_239_2467" x="98.0055" y="120.821" width="78.997" height="79.132" filterUnits="userSpaceOnUse" color-interpolation-filters="sRGB">
<feFlood flood-opacity="0" result="BackgroundImageFix"/>
<feColorMatrix in="SourceAlpha" type="matrix" values="0 0 0 0 0 0 0 0 0 0 0 0 0 0 0 0 0 0 127 0" result="hardAlpha"/>
<feOffset/>
<feGaussianBlur stdDeviation="5.45"/>
<feComposite in2="hardAlpha" operator="out"/>
<feColorMatrix type="matrix" values="0 0 0 0 0.52018 0 0 0 0 0.531966 0 0 0 0 0.97198 0 0 0 0.3 0"/>
<feBlend mode="normal" in2="BackgroundImageFix" result="effect1_dropShadow_239_2467"/>
<feBlend mode="normal" in="SourceGraphic" in2="effect1_dropShadow_239_2467" result="shape"/>
</filter>
<filter id="filter2_d_239_2467" x="126.853" y="166.635" width="111.591" height="174.363" filterUnits="userSpaceOnUse" color-interpolation-filters="sRGB">
<feFlood flood-opacity="0" result="BackgroundImageFix"/>
<feColorMatrix in="SourceAlpha" type="matrix" values="0 0 0 0 0 0 0 0 0 0 0 0 0 0 0 0 0 0 127 0" result="hardAlpha"/>
<feOffset/>
<feGaussianBlur stdDeviation="5.45"/>
<feComposite in2="hardAlpha" operator="out"/>
<feColorMatrix type="matrix" values="0 0 0 0 0.52018 0 0 0 0 0.531966 0 0 0 0 0.97198 0 0 0 0.3 0"/>
<feBlend mode="normal" in2="BackgroundImageFix" result="effect1_dropShadow_239_2467"/>
<feBlend mode="normal" in="SourceGraphic" in2="effect1_dropShadow_239_2467" result="shape"/>
</filter>
<filter id="filter3_d_239_2467" x="130.442" y="179.091" width="59.4614" height="52.6353" filterUnits="userSpaceOnUse" color-interpolation-filters="sRGB">
<feFlood flood-opacity="0" result="BackgroundImageFix"/>
<feColorMatrix in="SourceAlpha" type="matrix" values="0 0 0 0 0 0 0 0 0 0 0 0 0 0 0 0 0 0 127 0" result="hardAlpha"/>
<feOffset/>
<feGaussianBlur stdDeviation="5.45"/>
<feComposite in2="hardAlpha" operator="out"/>
<feColorMatrix type="matrix" values="0 0 0 0 0.52018 0 0 0 0 0.531966 0 0 0 0 0.97198 0 0 0 0.3 0"/>
<feBlend mode="normal" in2="BackgroundImageFix" result="effect1_dropShadow_239_2467"/>
<feBlend mode="normal" in="SourceGraphic" in2="effect1_dropShadow_239_2467" result="shape"/>
</filter>
<linearGradient id="paint0_linear_239_2467" x1="102.553" y1="133.595" x2="161.754" y2="184.49" gradientUnits="userSpaceOnUse">
<stop stop-color="#B48AEB"/>
<stop offset="0.5" stop-color="#6C6FDF"/>
<stop offset="1" stop-color="#0031AC"/>
</linearGradient>
<linearGradient id="paint1_linear_239_2467" x1="160.58" y1="157.345" x2="213.299" y2="334.966" gradientUnits="userSpaceOnUse">
<stop stop-color="#0031AC"/>
<stop offset="0.607158" stop-color="#6C6FDF"/>
<stop offset="1" stop-color="#B48AEB"/>
</linearGradient>
<linearGradient id="paint2_linear_239_2467" x1="136.909" y1="202.842" x2="179.724" y2="207.817" gradientUnits="userSpaceOnUse">
<stop stop-color="#B48AEB"/>
<stop offset="0.5" stop-color="#6C6FDF"/>
<stop offset="1" stop-color="#0031AC"/>
</linearGradient>
<clipPath id="clip0_239_2467">
<rect width="225.341" height="260.804" fill="white" transform="translate(9.21411 164.718) rotate(-26.7325)"/>
</clipPath>
</defs>
</svg>
