<svg width="325" height="453" viewBox="0 0 325 453" fill="none" xmlns="http://www.w3.org/2000/svg">
<g filter="url(#filter0_d_239_2324)">
<rect x="45.4572" y="45.5" width="234" height="362" rx="8" fill="#111111"/>
</g>
<g clip-path="url(#clip0_239_2324)">
<g filter="url(#filter1_d_239_2324)">
<path d="M131.344 207.243C143.04 164.233 188.826 143.487 201.544 153.603C169.539 163.217 165.423 200.185 167.455 239.121L131.333 207.243H131.344Z" fill="url(#paint0_linear_239_2324)"/>
</g>
<g filter="url(#filter2_d_239_2324)">
<path d="M248.509 206.374C236.823 161.5 172.15 156.515 152.052 221.81C141.061 169.982 95.0748 178.14 72.1765 214.249C104.518 192.069 126.796 207.107 108.803 245.311C105.887 245.782 102.971 246.274 100.065 246.829C92.0744 248.358 86.9999 256.286 88.6528 264.056C90.3057 271.837 97.4331 276.686 104.634 275.314C137.566 268.999 171.245 268.999 204.176 275.314C211.377 276.686 218.505 271.848 220.158 264.056C221.811 256.286 216.726 248.358 208.745 246.829C206.334 246.368 203.913 245.939 201.502 245.541C182.783 208.856 219.358 180.235 248.52 206.374H248.509Z" fill="url(#paint1_linear_239_2324)"/>
</g>
<g filter="url(#filter3_d_239_2324)">
<path d="M72.187 228.743C77.5828 228.743 81.957 224.392 81.957 219.025C81.957 213.657 77.5828 209.306 72.187 209.306C66.7913 209.306 62.4171 213.657 62.4171 219.025C62.4171 224.392 66.7913 228.743 72.187 228.743Z" fill="url(#paint2_linear_239_2324)"/>
</g>
<g filter="url(#filter4_d_239_2324)">
<path d="M205.05 161.007C209.62 161.007 213.325 157.322 213.325 152.776C213.325 148.23 209.62 144.545 205.05 144.545C200.48 144.545 196.775 148.23 196.775 152.776C196.775 157.322 200.48 161.007 205.05 161.007Z" fill="url(#paint3_linear_239_2324)"/>
</g>
<g filter="url(#filter5_d_239_2324)">
<path d="M251.384 224.125C258.03 224.125 263.417 218.766 263.417 212.155C263.417 205.544 258.03 200.185 251.384 200.185C244.738 200.185 239.35 205.544 239.35 212.155C239.35 218.766 244.738 224.125 251.384 224.125Z" fill="url(#paint4_linear_239_2324)"/>
</g>
</g>
<path d="M130.048 368.185H138.816V369.666H135.297V379.5H133.579V369.666H130.048V368.185ZM142.095 379.5H140.427V368.185H142.073V372.401H142.178C142.384 371.922 142.694 371.553 143.106 371.296C143.523 371.034 144.051 370.903 144.692 370.903C145.281 370.903 145.793 371.025 146.228 371.268C146.663 371.507 147 371.867 147.239 372.345C147.478 372.824 147.598 373.41 147.598 374.102V379.5H145.93V374.307C145.93 373.688 145.769 373.207 145.449 372.865C145.132 372.518 144.69 372.345 144.123 372.345C143.729 372.345 143.379 372.43 143.073 372.6C142.768 372.765 142.528 373.008 142.355 373.329C142.182 373.646 142.095 374.025 142.095 374.467V379.5ZM153.277 379.671C152.452 379.671 151.734 379.493 151.123 379.135C150.515 378.774 150.047 378.266 149.719 377.611C149.395 376.951 149.233 376.185 149.233 375.312C149.233 374.45 149.395 373.686 149.719 373.019C150.047 372.353 150.508 371.833 151.101 371.461C151.694 371.089 152.379 370.903 153.156 370.903C153.837 370.903 154.461 371.053 155.029 371.351C155.6 371.646 156.058 372.111 156.404 372.749C156.754 373.386 156.929 374.193 156.929 375.169V375.76H150.891C150.905 376.29 151.014 376.747 151.217 377.13C151.419 377.513 151.697 377.804 152.051 378.003C152.408 378.202 152.821 378.301 153.288 378.301C153.738 378.301 154.119 378.216 154.432 378.047C154.745 377.874 154.977 377.647 155.128 377.367H156.819C156.694 377.832 156.469 378.237 156.145 378.583C155.824 378.929 155.419 379.198 154.929 379.39C154.439 379.577 153.889 379.671 153.277 379.671ZM155.288 374.511C155.288 374.084 155.2 373.701 155.023 373.362C154.846 373.023 154.598 372.758 154.277 372.566C153.961 372.371 153.594 372.274 153.178 372.274C152.747 372.274 152.362 372.375 152.023 372.577C151.688 372.78 151.423 373.053 151.228 373.395C151.032 373.738 150.922 374.11 150.896 374.511H155.288ZM162.622 368.185H169.65V369.666H164.34V373.097H169.141V374.572H164.34V379.5H162.622V368.185ZM174.387 379.671C173.596 379.671 172.899 379.491 172.299 379.13C171.702 378.765 171.24 378.251 170.912 377.588C170.585 376.925 170.421 376.161 170.421 375.296C170.421 374.423 170.585 373.655 170.912 372.992C171.24 372.329 171.702 371.815 172.299 371.45C172.899 371.086 173.596 370.903 174.387 370.903C175.176 370.903 175.868 371.086 176.465 371.45C177.065 371.815 177.527 372.329 177.852 372.992C178.179 373.655 178.343 374.423 178.343 375.296C178.343 376.161 178.179 376.925 177.852 377.588C177.527 378.251 177.065 378.765 176.465 379.13C175.868 379.491 175.176 379.671 174.387 379.671ZM172.1 375.29C172.1 375.846 172.185 376.351 172.354 376.804C172.527 377.257 172.785 377.616 173.128 377.881C173.474 378.146 173.896 378.279 174.393 378.279C174.887 378.279 175.303 378.146 175.642 377.881C175.984 377.616 176.24 377.257 176.41 376.804C176.579 376.351 176.664 375.846 176.664 375.29C176.664 374.734 176.579 374.229 176.41 373.776C176.24 373.323 175.984 372.962 175.642 372.693C175.303 372.425 174.887 372.29 174.393 372.29C173.896 372.29 173.474 372.425 173.128 372.693C172.785 372.962 172.527 373.323 172.354 373.776C172.185 374.229 172.1 374.734 172.1 375.29ZM183.575 379.671C182.783 379.671 182.087 379.491 181.487 379.13C180.89 378.765 180.428 378.251 180.1 377.588C179.772 376.925 179.608 376.161 179.608 375.296C179.608 374.423 179.772 373.655 180.1 372.992C180.428 372.329 180.89 371.815 181.487 371.45C182.087 371.086 182.783 370.903 183.575 370.903C184.363 370.903 185.056 371.086 185.652 371.45C186.253 371.815 186.715 372.329 187.039 372.992C187.367 373.655 187.531 374.423 187.531 375.296C187.531 376.161 187.367 376.925 187.039 377.588C186.715 378.251 186.253 378.765 185.652 379.13C185.056 379.491 184.363 379.671 183.575 379.671ZM181.288 375.29C181.288 375.846 181.372 376.351 181.542 376.804C181.715 377.257 181.973 377.616 182.315 377.881C182.662 378.146 183.083 378.279 183.581 378.279C184.074 378.279 184.49 378.146 184.829 377.881C185.172 377.616 185.428 377.257 185.597 376.804C185.767 376.351 185.851 375.846 185.851 375.29C185.851 374.734 185.767 374.229 185.597 373.776C185.428 373.323 185.172 372.962 184.829 372.693C184.49 372.425 184.074 372.29 183.581 372.29C183.083 372.29 182.662 372.425 182.315 372.693C181.973 372.962 181.715 373.323 181.542 373.776C181.372 374.229 181.288 374.734 181.288 375.29ZM190.845 379.5H189.177V368.185H190.845V379.5Z" fill="#FFF8E2"/>
<path d="M162.72 84.6547C161.887 84.6547 161.174 84.4282 160.581 83.9751C159.992 83.5184 159.541 82.8554 159.228 81.9862C158.918 81.1169 158.764 80.0691 158.764 78.8425C158.764 77.6271 158.92 76.5847 159.233 75.7155C159.546 74.8425 160 74.1777 160.593 73.721C161.186 73.2606 161.895 73.0304 162.72 73.0304C163.545 73.0304 164.254 73.2606 164.847 73.721C165.44 74.1777 165.893 74.8425 166.206 75.7155C166.519 76.5847 166.675 77.6271 166.675 78.8425C166.675 80.0691 166.519 81.1169 166.206 81.9862C165.896 82.8554 165.445 83.5184 164.852 83.9751C164.263 84.4282 163.552 84.6547 162.72 84.6547ZM160.134 78.8425C160.134 79.8112 160.235 80.6381 160.438 81.3232C160.64 82.0046 160.935 82.5221 161.322 82.8757C161.709 83.2293 162.174 83.4061 162.72 83.4061C163.265 83.4061 163.731 83.2293 164.117 82.8757C164.504 82.5221 164.799 82.0046 165.001 81.3232C165.204 80.6381 165.305 79.8112 165.305 78.8425C165.305 77.8738 165.202 77.047 164.996 76.3619C164.793 75.6731 164.499 75.1501 164.112 74.7928C163.725 74.4355 163.261 74.2569 162.72 74.2569C162.178 74.2569 161.714 74.4355 161.327 74.7928C160.941 75.1501 160.644 75.6731 160.438 76.3619C160.235 77.047 160.134 77.8738 160.134 78.8425Z" fill="#FFF8E2"/>
<defs>
<filter id="filter0_d_239_2324" x="0.457157" y="0.5" width="324" height="452" filterUnits="userSpaceOnUse" color-interpolation-filters="sRGB">
<feFlood flood-opacity="0" result="BackgroundImageFix"/>
<feColorMatrix in="SourceAlpha" type="matrix" values="0 0 0 0 0 0 0 0 0 0 0 0 0 0 0 0 0 0 127 0" result="hardAlpha"/>
<feMorphology radius="10" operator="dilate" in="SourceAlpha" result="effect1_dropShadow_239_2324"/>
<feOffset/>
<feGaussianBlur stdDeviation="17.5"/>
<feComposite in2="hardAlpha" operator="out"/>
<feColorMatrix type="matrix" values="0 0 0 0 0.792157 0 0 0 0 0.956863 0 0 0 0 0.862745 0 0 0 0.3 0"/>
<feBlend mode="normal" in2="BackgroundImageFix" result="effect1_dropShadow_239_2324"/>
<feBlend mode="normal" in="SourceGraphic" in2="effect1_dropShadow_239_2324" result="shape"/>
</filter>
<filter id="filter1_d_239_2324" x="120.433" y="140.177" width="92.011" height="109.844" filterUnits="userSpaceOnUse" color-interpolation-filters="sRGB">
<feFlood flood-opacity="0" result="BackgroundImageFix"/>
<feColorMatrix in="SourceAlpha" type="matrix" values="0 0 0 0 0 0 0 0 0 0 0 0 0 0 0 0 0 0 127 0" result="hardAlpha"/>
<feOffset/>
<feGaussianBlur stdDeviation="5.45"/>
<feComposite in2="hardAlpha" operator="out"/>
<feColorMatrix type="matrix" values="0 0 0 0 0.52018 0 0 0 0 0.531966 0 0 0 0 0.97198 0 0 0 0.3 0"/>
<feBlend mode="normal" in2="BackgroundImageFix" result="effect1_dropShadow_239_2324"/>
<feBlend mode="normal" in="SourceGraphic" in2="effect1_dropShadow_239_2324" result="shape"/>
</filter>
<filter id="filter2_d_239_2324" x="61.2765" y="161.785" width="198.144" height="124.661" filterUnits="userSpaceOnUse" color-interpolation-filters="sRGB">
<feFlood flood-opacity="0" result="BackgroundImageFix"/>
<feColorMatrix in="SourceAlpha" type="matrix" values="0 0 0 0 0 0 0 0 0 0 0 0 0 0 0 0 0 0 127 0" result="hardAlpha"/>
<feOffset/>
<feGaussianBlur stdDeviation="5.45"/>
<feComposite in2="hardAlpha" operator="out"/>
<feColorMatrix type="matrix" values="0 0 0 0 0.52018 0 0 0 0 0.531966 0 0 0 0 0.97198 0 0 0 0.3 0"/>
<feBlend mode="normal" in2="BackgroundImageFix" result="effect1_dropShadow_239_2324"/>
<feBlend mode="normal" in="SourceGraphic" in2="effect1_dropShadow_239_2324" result="shape"/>
</filter>
<filter id="filter3_d_239_2324" x="51.5171" y="198.406" width="41.3399" height="41.2369" filterUnits="userSpaceOnUse" color-interpolation-filters="sRGB">
<feFlood flood-opacity="0" result="BackgroundImageFix"/>
<feColorMatrix in="SourceAlpha" type="matrix" values="0 0 0 0 0 0 0 0 0 0 0 0 0 0 0 0 0 0 127 0" result="hardAlpha"/>
<feOffset/>
<feGaussianBlur stdDeviation="5.45"/>
<feComposite in2="hardAlpha" operator="out"/>
<feColorMatrix type="matrix" values="0 0 0 0 0.52018 0 0 0 0 0.531966 0 0 0 0 0.97198 0 0 0 0.3 0"/>
<feBlend mode="normal" in2="BackgroundImageFix" result="effect1_dropShadow_239_2324"/>
<feBlend mode="normal" in="SourceGraphic" in2="effect1_dropShadow_239_2324" result="shape"/>
</filter>
<filter id="filter4_d_239_2324" x="185.875" y="133.645" width="38.35" height="38.2627" filterUnits="userSpaceOnUse" color-interpolation-filters="sRGB">
<feFlood flood-opacity="0" result="BackgroundImageFix"/>
<feColorMatrix in="SourceAlpha" type="matrix" values="0 0 0 0 0 0 0 0 0 0 0 0 0 0 0 0 0 0 127 0" result="hardAlpha"/>
<feOffset/>
<feGaussianBlur stdDeviation="5.45"/>
<feComposite in2="hardAlpha" operator="out"/>
<feColorMatrix type="matrix" values="0 0 0 0 0.52018 0 0 0 0 0.531966 0 0 0 0 0.97198 0 0 0 0.3 0"/>
<feBlend mode="normal" in2="BackgroundImageFix" result="effect1_dropShadow_239_2324"/>
<feBlend mode="normal" in="SourceGraphic" in2="effect1_dropShadow_239_2324" result="shape"/>
</filter>
<filter id="filter5_d_239_2324" x="228.45" y="189.285" width="45.8669" height="45.7401" filterUnits="userSpaceOnUse" color-interpolation-filters="sRGB">
<feFlood flood-opacity="0" result="BackgroundImageFix"/>
<feColorMatrix in="SourceAlpha" type="matrix" values="0 0 0 0 0 0 0 0 0 0 0 0 0 0 0 0 0 0 127 0" result="hardAlpha"/>
<feOffset/>
<feGaussianBlur stdDeviation="5.45"/>
<feComposite in2="hardAlpha" operator="out"/>
<feColorMatrix type="matrix" values="0 0 0 0 0.52018 0 0 0 0 0.531966 0 0 0 0 0.97198 0 0 0 0.3 0"/>
<feBlend mode="normal" in2="BackgroundImageFix" result="effect1_dropShadow_239_2324"/>
<feBlend mode="normal" in="SourceGraphic" in2="effect1_dropShadow_239_2324" result="shape"/>
</filter>
<linearGradient id="paint0_linear_239_2324" x1="198.228" y1="145.068" x2="151.232" y2="229.06" gradientUnits="userSpaceOnUse">
<stop stop-color="#FFF8E2"/>
<stop offset="0.5" stop-color="#CAF4DC"/>
<stop offset="1" stop-color="#75AFFF"/>
</linearGradient>
<linearGradient id="paint1_linear_239_2324" x1="97.7489" y1="185.335" x2="221.229" y2="264.827" gradientUnits="userSpaceOnUse">
<stop stop-color="#FFF8E2"/>
<stop offset="0.5" stop-color="#CAF4DC"/>
<stop offset="1" stop-color="#75AFFF"/>
</linearGradient>
<linearGradient id="paint2_linear_239_2324" x1="64.5227" y1="209.474" x2="77.589" y2="228.389" gradientUnits="userSpaceOnUse">
<stop stop-color="#FFF8E2"/>
<stop offset="0.5" stop-color="#CAF4DC"/>
<stop offset="1" stop-color="#75AFFF"/>
</linearGradient>
<linearGradient id="paint3_linear_239_2324" x1="197.175" y1="144.545" x2="212.878" y2="161.383" gradientUnits="userSpaceOnUse">
<stop stop-color="#FFF8E2"/>
<stop offset="0.5" stop-color="#CAF4DC"/>
<stop offset="1" stop-color="#75AFFF"/>
</linearGradient>
<linearGradient id="paint4_linear_239_2324" x1="239.287" y1="200.049" x2="258.639" y2="224.235" gradientUnits="userSpaceOnUse">
<stop stop-color="#FFF8E2"/>
<stop offset="0.5" stop-color="#CAF4DC"/>
<stop offset="1" stop-color="#75AFFF"/>
</linearGradient>
<clipPath id="clip0_239_2324">
<rect width="201" height="131" fill="white" transform="translate(62.4171 144.545)"/>
</clipPath>
</defs>
</svg>
