<svg width="325" height="452" viewBox="0 0 325 452" fill="none" xmlns="http://www.w3.org/2000/svg">
<g filter="url(#filter0_d_239_2373)">
<rect x="45.5" y="45" width="234" height="362" rx="8" fill="#111111"/>
</g>
<path d="M136.096 370.663C136.059 370.32 135.938 370.026 135.732 369.779C135.529 369.532 135.258 369.344 134.919 369.215C134.584 369.083 134.201 369.017 133.77 369.017C133.317 369.017 132.919 369.088 132.577 369.232C132.234 369.376 131.969 369.575 131.781 369.829C131.597 370.079 131.505 370.365 131.505 370.685C131.501 371.164 131.695 371.534 132.085 371.796C132.479 372.053 132.971 372.254 133.56 372.398L134.66 372.685C135.577 372.91 136.348 373.269 136.975 373.762C137.601 374.252 137.914 374.954 137.914 375.867C137.914 376.512 137.748 377.085 137.417 377.586C137.085 378.087 136.603 378.479 135.969 378.762C135.339 379.046 134.59 379.188 133.72 379.188C132.881 379.188 132.15 379.055 131.527 378.79C130.905 378.521 130.417 378.138 130.063 377.641C129.713 377.14 129.52 376.549 129.483 375.867H131.207C131.24 376.262 131.371 376.595 131.599 376.867C131.827 377.14 132.124 377.344 132.488 377.481C132.857 377.613 133.266 377.68 133.715 377.68C134.194 377.68 134.621 377.604 134.997 377.453C135.376 377.298 135.673 377.083 135.886 376.807C136.104 376.53 136.212 376.212 136.212 375.851C136.212 375.534 136.122 375.269 135.941 375.055C135.761 374.842 135.518 374.667 135.212 374.53C134.906 374.39 134.525 374.26 134.069 374.138L132.737 373.779C131.787 373.521 131.057 373.149 130.549 372.663C130.041 372.173 129.787 371.547 129.787 370.785C129.787 370.144 129.962 369.576 130.312 369.083C130.662 368.589 131.142 368.208 131.754 367.939C132.365 367.667 133.05 367.53 133.809 367.53C134.564 367.53 135.238 367.665 135.831 367.934C136.424 368.203 136.89 368.575 137.229 369.05C137.568 369.525 137.744 370.063 137.759 370.663H136.096ZM143.593 371.845H141.864V376.503C141.864 376.941 141.954 377.239 142.134 377.398C142.315 377.552 142.563 377.632 142.88 377.635C142.98 377.635 143.213 377.626 143.582 377.608L143.709 377.602V379.039C143.436 379.087 143.092 379.11 142.676 379.11C142.223 379.11 141.808 379.028 141.433 378.862C141.057 378.692 140.757 378.438 140.532 378.099C140.307 377.757 140.195 377.339 140.195 376.845V371.845H138.952V370.514H140.195V368.481H141.864V370.514H143.593V371.845ZM145.22 370.514H146.833V371.867H146.921C147.024 371.565 147.181 371.304 147.391 371.083C147.605 370.858 147.855 370.687 148.142 370.569C148.433 370.448 148.743 370.387 149.071 370.387C149.188 370.387 149.315 370.39 149.452 370.398C149.588 370.405 149.699 370.414 149.783 370.425V372.017C149.691 371.994 149.56 371.972 149.391 371.95C149.225 371.928 149.067 371.917 148.916 371.917C148.533 371.917 148.187 372 147.877 372.166C147.568 372.328 147.325 372.554 147.148 372.845C146.975 373.136 146.888 373.464 146.888 373.829V379H145.22V370.514ZM154.43 379.171C153.605 379.171 152.886 378.993 152.275 378.635C151.667 378.274 151.199 377.766 150.872 377.11C150.547 376.451 150.385 375.685 150.385 374.812C150.385 373.95 150.547 373.186 150.872 372.519C151.199 371.853 151.66 371.333 152.253 370.961C152.846 370.589 153.531 370.403 154.308 370.403C154.989 370.403 155.614 370.552 156.181 370.851C156.752 371.145 157.21 371.611 157.557 372.249C157.907 372.886 158.081 373.692 158.081 374.669V375.26H152.043C152.058 375.79 152.166 376.247 152.369 376.63C152.571 377.013 152.849 377.304 153.203 377.503C153.56 377.702 153.973 377.801 154.441 377.801C154.89 377.801 155.271 377.716 155.584 377.547C155.897 377.374 156.129 377.147 156.28 376.867H157.971C157.846 377.331 157.621 377.737 157.297 378.083C156.977 378.429 156.571 378.698 156.081 378.89C155.592 379.077 155.041 379.171 154.43 379.171ZM156.441 374.011C156.441 373.584 156.352 373.201 156.175 372.862C155.999 372.523 155.75 372.258 155.43 372.066C155.113 371.871 154.746 371.773 154.33 371.773C153.899 371.773 153.514 371.875 153.175 372.077C152.84 372.28 152.575 372.552 152.38 372.895C152.185 373.238 152.074 373.61 152.048 374.011H156.441ZM161.404 379H159.735V370.514H161.338V371.901H161.443C161.645 371.433 161.958 371.066 162.382 370.801C162.805 370.536 163.326 370.403 163.945 370.403C164.531 370.403 165.039 370.527 165.47 370.773C165.905 371.017 166.24 371.378 166.476 371.856C166.715 372.335 166.835 372.917 166.835 373.602V379H165.166V373.807C165.166 373.401 165.094 373.052 164.951 372.757C164.811 372.462 164.606 372.238 164.338 372.083C164.069 371.924 163.748 371.845 163.376 371.845C162.989 371.845 162.647 371.93 162.349 372.099C162.054 372.265 161.822 372.508 161.652 372.829C161.487 373.145 161.404 373.525 161.404 373.967V379ZM172.429 382.359C171.715 382.359 171.087 382.258 170.545 382.055C170.008 381.856 169.58 381.565 169.264 381.182C168.951 380.803 168.77 380.35 168.722 379.823H170.424C170.501 380.221 170.715 380.519 171.065 380.718C171.418 380.921 171.879 381.022 172.446 381.022C173.131 381.022 173.661 380.866 174.037 380.552C174.416 380.243 174.606 379.766 174.606 379.122V377.453H174.496C174.286 377.843 173.995 378.179 173.623 378.459C173.251 378.735 172.722 378.873 172.037 378.873C171.359 378.873 170.752 378.709 170.214 378.381C169.68 378.053 169.258 377.573 168.949 376.939C168.639 376.306 168.485 375.549 168.485 374.669C168.485 373.788 168.637 373.028 168.943 372.387C169.249 371.742 169.671 371.25 170.208 370.912C170.75 370.573 171.365 370.403 172.054 370.403C172.536 370.403 172.941 370.484 173.269 370.646C173.597 370.805 173.849 370.987 174.026 371.193C174.203 371.4 174.365 371.632 174.512 371.89H174.623V370.514H176.253V379.182C176.253 379.886 176.089 380.475 175.761 380.95C175.433 381.425 174.982 381.779 174.407 382.011C173.836 382.243 173.177 382.359 172.429 382.359ZM170.181 374.702C170.181 375.262 170.265 375.751 170.435 376.171C170.604 376.591 170.857 376.917 171.192 377.149C171.527 377.381 171.934 377.497 172.413 377.497C172.881 377.497 173.28 377.387 173.612 377.166C173.943 376.945 174.194 376.624 174.363 376.204C174.536 375.785 174.623 375.284 174.623 374.702C174.623 374.127 174.536 373.624 174.363 373.193C174.194 372.759 173.943 372.422 173.612 372.182C173.28 371.943 172.881 371.823 172.413 371.823C171.93 371.823 171.521 371.948 171.186 372.199C170.855 372.446 170.604 372.786 170.435 373.221C170.265 373.656 170.181 374.149 170.181 374.702ZM182.249 371.845H180.52V376.503C180.52 376.941 180.61 377.239 180.79 377.398C180.971 377.552 181.22 377.632 181.536 377.635C181.636 377.635 181.87 377.626 182.238 377.608L182.365 377.602V379.039C182.093 379.087 181.748 379.11 181.332 379.11C180.879 379.11 180.465 379.028 180.089 378.862C179.713 378.692 179.413 378.438 179.188 378.099C178.964 377.757 178.851 377.339 178.851 376.845V371.845H177.608V370.514H178.851V368.481H180.52V370.514H182.249V371.845ZM185.716 379H184.048V367.685H185.694V371.901H185.799C186.005 371.422 186.315 371.053 186.727 370.796C187.144 370.534 187.672 370.403 188.313 370.403C188.902 370.403 189.414 370.525 189.849 370.768C190.284 371.007 190.621 371.366 190.86 371.845C191.099 372.324 191.219 372.91 191.219 373.602V379H189.551V373.807C189.551 373.188 189.39 372.707 189.07 372.365C188.753 372.018 188.311 371.845 187.744 371.845C187.35 371.845 187 371.93 186.694 372.099C186.389 372.265 186.149 372.508 185.976 372.829C185.803 373.145 185.716 373.525 185.716 373.967V379Z" fill="#FFF8E2"/>
<path d="M157.57 82.1768H157.703L161.04 72.6851H162.521L158.377 84H156.896L152.753 72.6851H154.245L157.57 82.1768ZM165.457 84H164.053V72.6851H165.457V84ZM169.363 84H167.96V72.6851H169.363V84ZM173.269 84H171.866V72.6851H173.269V84Z" fill="#FFF8E2"/>
<g clip-path="url(#clip0_239_2373)">
<g filter="url(#filter1_d_239_2373)">
<path d="M248 192.676C241.814 173.564 230.405 159.957 210.314 155.438L218.267 150.219C201.322 139.234 183.363 137.494 163.974 148.115C144.611 137.494 126.626 139.208 109.681 150.219L117.634 155.438C97.5953 159.957 86.1856 173.564 80 192.676H87.3292C79.3502 210.439 79.896 229.006 84.1844 247.884L94.2426 238.276C91.2017 256.843 96.1658 269.957 108.485 278.007L115.814 264.426C117.426 279.721 125.639 289.875 138.01 296.834L147.21 287.226C149.342 300.288 155.657 306.78 164.026 310.026C172.395 306.78 178.71 300.288 180.842 287.226L190.042 296.834C202.413 289.875 210.626 279.695 212.238 264.426L219.567 278.007C231.886 269.931 236.85 256.843 233.809 238.276L243.868 247.884C248.182 229.006 248.702 210.439 240.723 192.676H248.052H248Z" fill="url(#paint0_linear_239_2373)"/>
</g>
<g filter="url(#filter2_d_239_2373)">
<path d="M186.196 257.7C186.196 267.828 176.267 277.929 164 277.929C151.733 277.929 141.804 267.828 141.804 257.7C141.804 247.573 151.733 252.481 164 252.481C176.267 252.481 186.196 247.573 186.196 257.7Z" fill="url(#paint1_linear_239_2373)"/>
</g>
<g filter="url(#filter3_d_239_2373)">
<path d="M179.646 173.071C173.954 173.071 168.626 175.018 164 178.394C159.4 175.018 154.072 173.071 148.354 173.071C131.071 173.071 117.088 190.729 117.088 212.542C117.088 224.513 121.324 235.238 128.004 242.457C129.849 244.457 130.733 247.028 130.733 249.728V249.78C130.733 257.83 138.634 264.348 148.354 264.348C155.163 264.348 161.063 261.154 164 256.48C166.937 261.154 172.837 264.348 179.646 264.348C189.392 264.348 197.267 257.83 197.267 249.78V249.728C197.267 247.028 198.151 244.457 199.996 242.457C206.676 235.212 210.912 224.513 210.912 212.542C210.912 190.755 196.903 173.071 179.646 173.071ZM171.667 241.964L167.301 247.962C165.663 250.196 162.337 250.196 160.699 247.962L156.333 241.964C154.358 239.263 156.307 235.498 159.634 235.498H168.366C171.693 235.498 173.616 239.289 171.667 241.964Z" fill="url(#paint2_linear_239_2373)"/>
</g>
</g>
<defs>
<filter id="filter0_d_239_2373" x="0.5" y="0" width="324" height="452" filterUnits="userSpaceOnUse" color-interpolation-filters="sRGB">
<feFlood flood-opacity="0" result="BackgroundImageFix"/>
<feColorMatrix in="SourceAlpha" type="matrix" values="0 0 0 0 0 0 0 0 0 0 0 0 0 0 0 0 0 0 127 0" result="hardAlpha"/>
<feMorphology radius="10" operator="dilate" in="SourceAlpha" result="effect1_dropShadow_239_2373"/>
<feOffset/>
<feGaussianBlur stdDeviation="17.5"/>
<feComposite in2="hardAlpha" operator="out"/>
<feColorMatrix type="matrix" values="0 0 0 0 0.792157 0 0 0 0 0.956863 0 0 0 0 0.862745 0 0 0 0.3 0"/>
<feBlend mode="normal" in2="BackgroundImageFix" result="effect1_dropShadow_239_2373"/>
<feBlend mode="normal" in="SourceGraphic" in2="effect1_dropShadow_239_2373" result="shape"/>
</filter>
<filter id="filter1_d_239_2373" x="69.1" y="130.092" width="189.852" height="190.834" filterUnits="userSpaceOnUse" color-interpolation-filters="sRGB">
<feFlood flood-opacity="0" result="BackgroundImageFix"/>
<feColorMatrix in="SourceAlpha" type="matrix" values="0 0 0 0 0 0 0 0 0 0 0 0 0 0 0 0 0 0 127 0" result="hardAlpha"/>
<feOffset/>
<feGaussianBlur stdDeviation="5.45"/>
<feComposite in2="hardAlpha" operator="out"/>
<feColorMatrix type="matrix" values="0 0 0 0 0.52018 0 0 0 0 0.531966 0 0 0 0 0.97198 0 0 0 0.3 0"/>
<feBlend mode="normal" in2="BackgroundImageFix" result="effect1_dropShadow_239_2373"/>
<feBlend mode="normal" in="SourceGraphic" in2="effect1_dropShadow_239_2373" result="shape"/>
</filter>
<filter id="filter2_d_239_2373" x="130.904" y="240.392" width="66.1911" height="48.4376" filterUnits="userSpaceOnUse" color-interpolation-filters="sRGB">
<feFlood flood-opacity="0" result="BackgroundImageFix"/>
<feColorMatrix in="SourceAlpha" type="matrix" values="0 0 0 0 0 0 0 0 0 0 0 0 0 0 0 0 0 0 127 0" result="hardAlpha"/>
<feOffset/>
<feGaussianBlur stdDeviation="5.45"/>
<feComposite in2="hardAlpha" operator="out"/>
<feColorMatrix type="matrix" values="0 0 0 0 0.52018 0 0 0 0 0.531966 0 0 0 0 0.97198 0 0 0 0.3 0"/>
<feBlend mode="normal" in2="BackgroundImageFix" result="effect1_dropShadow_239_2373"/>
<feBlend mode="normal" in="SourceGraphic" in2="effect1_dropShadow_239_2373" result="shape"/>
</filter>
<filter id="filter3_d_239_2373" x="106.188" y="162.171" width="115.624" height="113.078" filterUnits="userSpaceOnUse" color-interpolation-filters="sRGB">
<feFlood flood-opacity="0" result="BackgroundImageFix"/>
<feColorMatrix in="SourceAlpha" type="matrix" values="0 0 0 0 0 0 0 0 0 0 0 0 0 0 0 0 0 0 127 0" result="hardAlpha"/>
<feOffset/>
<feGaussianBlur stdDeviation="5.45"/>
<feComposite in2="hardAlpha" operator="out"/>
<feColorMatrix type="matrix" values="0 0 0 0 0.52018 0 0 0 0 0.531966 0 0 0 0 0.97198 0 0 0 0.3 0"/>
<feBlend mode="normal" in2="BackgroundImageFix" result="effect1_dropShadow_239_2373"/>
<feBlend mode="normal" in="SourceGraphic" in2="effect1_dropShadow_239_2373" result="shape"/>
</filter>
<linearGradient id="paint0_linear_239_2373" x1="110" y1="132.5" x2="197" y2="287.5" gradientUnits="userSpaceOnUse">
<stop stop-color="#FFF8E2"/>
<stop offset="0.5" stop-color="#CAF4DC"/>
<stop offset="1" stop-color="#75AFFF"/>
</linearGradient>
<linearGradient id="paint1_linear_239_2373" x1="158" y1="254" x2="168" y2="278" gradientUnits="userSpaceOnUse">
<stop stop-color="#75AFFF"/>
<stop offset="0.5" stop-color="#CAF4DC"/>
<stop offset="1" stop-color="#FFF8E2"/>
</linearGradient>
<linearGradient id="paint2_linear_239_2373" x1="199" y1="170.5" x2="133.5" y2="257" gradientUnits="userSpaceOnUse">
<stop stop-color="#75AFFF"/>
<stop offset="0.5" stop-color="#CAF4DC"/>
<stop offset="1" stop-color="#FFF8E2"/>
</linearGradient>
<clipPath id="clip0_239_2373">
<rect width="190" height="191" fill="white" transform="translate(69 130)"/>
</clipPath>
</defs>
</svg>
