<svg width="325" height="452" viewBox="0 0 325 452" fill="none" xmlns="http://www.w3.org/2000/svg">
<g filter="url(#filter0_d_239_2483)">
<rect x="45.5" y="45" width="234" height="362" rx="8" fill="#111111"/>
</g>
<g clip-path="url(#clip0_239_2483)">
<g filter="url(#filter1_d_239_2483)">
<path d="M162.504 287C205.309 287 240.009 277.254 240.009 265.231C240.009 253.208 205.309 243.462 162.504 243.462C119.7 243.462 85 253.208 85 265.231C85 277.254 119.7 287 162.504 287Z" fill="url(#paint0_linear_239_2483)"/>
</g>
<g filter="url(#filter2_d_239_2483)">
<path d="M201.239 130L169.387 153.743L156.547 163.293C151.394 167.128 147.322 172.2 144.702 178.043L109.97 255.449C108.993 257.628 109.832 260.228 111.898 261.37C145.636 279.972 179.373 279.972 213.11 261.37C215.177 260.228 216.016 257.637 215.038 255.449L184.639 187.688L203.193 131.39" fill="url(#paint1_linear_239_2483)"/>
</g>
</g>
<path d="M112.193 367.685H120.961V369.166H117.441V379H115.723V369.166H112.193V367.685ZM124.24 379H122.571V367.685H124.218V371.901H124.323C124.529 371.422 124.838 371.053 125.251 370.796C125.667 370.534 126.196 370.403 126.836 370.403C127.426 370.403 127.938 370.525 128.372 370.768C128.807 371.007 129.144 371.366 129.383 371.845C129.623 372.324 129.743 372.91 129.743 373.602V379H128.074V373.807C128.074 373.188 127.914 372.707 127.593 372.365C127.277 372.018 126.835 371.845 126.267 371.845C125.873 371.845 125.523 371.93 125.218 372.099C124.912 372.265 124.673 372.508 124.499 372.829C124.326 373.145 124.24 373.525 124.24 373.967V379ZM135.422 379.171C134.597 379.171 133.878 378.993 133.267 378.635C132.659 378.274 132.192 377.766 131.864 377.11C131.54 376.451 131.378 375.685 131.378 374.812C131.378 373.95 131.54 373.186 131.864 372.519C132.192 371.853 132.652 371.333 133.245 370.961C133.838 370.589 134.523 370.403 135.3 370.403C135.982 370.403 136.606 370.552 137.173 370.851C137.744 371.145 138.203 371.611 138.549 372.249C138.899 372.886 139.074 373.692 139.074 374.669V375.26H133.035C133.05 375.79 133.158 376.247 133.361 376.63C133.564 377.013 133.842 377.304 134.195 377.503C134.553 377.702 134.965 377.801 135.433 377.801C135.882 377.801 136.263 377.716 136.576 377.547C136.89 377.374 137.122 377.147 137.273 376.867H138.963C138.838 377.331 138.613 377.737 138.289 378.083C137.969 378.429 137.564 378.698 137.074 378.89C136.584 379.077 136.033 379.171 135.422 379.171ZM137.433 374.011C137.433 373.584 137.344 373.201 137.168 372.862C136.991 372.523 136.742 372.258 136.422 372.066C136.105 371.871 135.739 371.773 135.322 371.773C134.891 371.773 134.506 371.875 134.168 372.077C133.832 372.28 133.567 372.552 133.372 372.895C133.177 373.238 133.066 373.61 133.041 374.011H137.433ZM146.86 367.685L150.451 376.453H150.584L154.17 367.685H156.264V379H154.623V370.834H154.518L151.192 378.983H149.833L146.507 370.818H146.413V379H144.766V367.685H146.86ZM158.033 376.602C158.033 375.729 158.329 375.105 158.922 374.729C159.519 374.354 160.28 374.133 161.204 374.066C161.565 374.044 161.957 374.022 162.381 374C162.804 373.978 163.156 373.961 163.436 373.95V373.26C163.436 372.777 163.289 372.405 162.994 372.144C162.7 371.882 162.27 371.751 161.707 371.751C161.232 371.751 160.843 371.849 160.541 372.044C160.243 372.239 160.049 372.501 159.961 372.829H158.298C158.35 372.361 158.525 371.943 158.823 371.575C159.121 371.206 159.523 370.919 160.027 370.713C160.536 370.506 161.116 370.403 161.768 370.403C162.305 370.403 162.823 370.486 163.32 370.652C163.817 370.818 164.237 371.122 164.58 371.564C164.926 372.002 165.099 372.602 165.099 373.365V379H163.475V377.84H163.409C163.291 378.076 163.121 378.295 162.9 378.497C162.683 378.7 162.405 378.866 162.066 378.994C161.731 379.123 161.342 379.188 160.9 379.188C160.355 379.188 159.865 379.087 159.431 378.884C159 378.681 158.659 378.385 158.409 377.994C158.158 377.604 158.033 377.14 158.033 376.602ZM159.668 376.624C159.668 377.022 159.814 377.328 160.105 377.541C160.399 377.751 160.788 377.856 161.27 377.856C161.709 377.856 162.092 377.768 162.42 377.591C162.751 377.414 163.003 377.18 163.176 376.89C163.353 376.595 163.442 376.278 163.442 375.939V375.166C163.162 375.18 162.495 375.225 161.442 375.298C160.878 375.339 160.442 375.47 160.132 375.691C159.823 375.908 159.668 376.219 159.668 376.624ZM170.687 382.359C169.973 382.359 169.345 382.258 168.803 382.055C168.265 381.856 167.838 381.565 167.521 381.182C167.208 380.803 167.028 380.35 166.98 379.823H168.682C168.759 380.221 168.973 380.519 169.323 380.718C169.676 380.921 170.137 381.022 170.704 381.022C171.389 381.022 171.919 380.866 172.295 380.552C172.674 380.243 172.864 379.766 172.864 379.122V377.453H172.753C172.544 377.843 172.253 378.179 171.881 378.459C171.509 378.735 170.98 378.873 170.295 378.873C169.617 378.873 169.009 378.709 168.472 378.381C167.938 378.053 167.516 377.573 167.207 376.939C166.897 376.306 166.742 375.549 166.742 374.669C166.742 373.788 166.895 373.028 167.201 372.387C167.507 371.742 167.928 371.25 168.466 370.912C169.008 370.573 169.623 370.403 170.312 370.403C170.794 370.403 171.199 370.484 171.527 370.646C171.855 370.805 172.107 370.987 172.284 371.193C172.461 371.4 172.623 371.632 172.77 371.89H172.881V370.514H174.51V379.182C174.51 379.886 174.346 380.475 174.019 380.95C173.691 381.425 173.24 381.779 172.665 382.011C172.094 382.243 171.435 382.359 170.687 382.359ZM168.439 374.702C168.439 375.262 168.523 375.751 168.693 376.171C168.862 376.591 169.114 376.917 169.45 377.149C169.785 377.381 170.192 377.497 170.671 377.497C171.138 377.497 171.538 377.387 171.87 377.166C172.201 376.945 172.451 376.624 172.621 376.204C172.794 375.785 172.881 375.284 172.881 374.702C172.881 374.127 172.794 373.624 172.621 373.193C172.451 372.759 172.201 372.422 171.87 372.182C171.538 371.943 171.138 371.823 170.671 371.823C170.188 371.823 169.779 371.948 169.444 372.199C169.113 372.446 168.862 372.786 168.693 373.221C168.523 373.656 168.439 374.149 168.439 374.702ZM176.54 370.514H178.209V379H176.54V370.514ZM177.385 369.21C177.194 369.21 177.017 369.166 176.855 369.077C176.697 368.989 176.569 368.869 176.474 368.718C176.378 368.567 176.33 368.401 176.33 368.221C176.33 368.041 176.378 367.875 176.474 367.724C176.569 367.573 176.697 367.453 176.855 367.365C177.017 367.276 177.194 367.232 177.385 367.232C177.573 367.232 177.746 367.276 177.905 367.365C178.067 367.453 178.194 367.573 178.286 367.724C178.382 367.875 178.43 368.041 178.43 368.221C178.43 368.401 178.382 368.567 178.286 368.718C178.194 368.869 178.067 368.989 177.905 369.077C177.746 369.166 177.573 369.21 177.385 369.21ZM183.829 379.171C183.022 379.171 182.319 378.987 181.718 378.619C181.122 378.247 180.663 377.729 180.343 377.066C180.022 376.403 179.862 375.646 179.862 374.796C179.862 373.937 180.024 373.177 180.348 372.514C180.676 371.847 181.138 371.33 181.735 370.961C182.332 370.589 183.024 370.403 183.812 370.403C184.449 370.403 185.022 370.523 185.53 370.762C186.042 370.998 186.453 371.331 186.762 371.762C187.076 372.193 187.26 372.692 187.315 373.26H185.696C185.634 372.987 185.521 372.74 185.359 372.519C185.201 372.298 184.991 372.123 184.729 371.994C184.471 371.866 184.173 371.801 183.834 371.801C183.378 371.801 182.976 371.923 182.63 372.166C182.284 372.405 182.015 372.748 181.823 373.193C181.635 373.639 181.541 374.16 181.541 374.757C181.541 375.368 181.635 375.901 181.823 376.354C182.011 376.803 182.278 377.149 182.624 377.392C182.971 377.635 183.374 377.757 183.834 377.757C184.309 377.757 184.713 377.63 185.044 377.376C185.376 377.122 185.593 376.766 185.696 376.309H187.315C187.256 376.862 187.076 377.355 186.774 377.79C186.475 378.221 186.074 378.56 185.569 378.807C185.065 379.05 184.484 379.171 183.829 379.171ZM188.899 370.514H190.568V379H188.899V370.514ZM189.745 369.21C189.553 369.21 189.376 369.166 189.214 369.077C189.056 368.989 188.929 368.869 188.833 368.718C188.737 368.567 188.689 368.401 188.689 368.221C188.689 368.041 188.737 367.875 188.833 367.724C188.929 367.573 189.056 367.453 189.214 367.365C189.376 367.276 189.553 367.232 189.745 367.232C189.933 367.232 190.106 367.276 190.264 367.365C190.426 367.453 190.553 367.573 190.645 367.724C190.741 367.875 190.789 368.041 190.789 368.221C190.789 368.401 190.741 368.567 190.645 368.718C190.553 368.869 190.426 368.989 190.264 369.077C190.106 369.166 189.933 369.21 189.745 369.21ZM192.205 376.602C192.205 375.729 192.501 375.105 193.094 374.729C193.691 374.354 194.451 374.133 195.376 374.066C195.737 374.044 196.129 374.022 196.553 374C196.976 373.978 197.328 373.961 197.608 373.95V373.26C197.608 372.777 197.461 372.405 197.166 372.144C196.871 371.882 196.442 371.751 195.879 371.751C195.404 371.751 195.015 371.849 194.713 372.044C194.415 372.239 194.221 372.501 194.133 372.829H192.47C192.521 372.361 192.696 371.943 192.995 371.575C193.293 371.206 193.695 370.919 194.199 370.713C194.707 370.506 195.288 370.403 195.94 370.403C196.477 370.403 196.995 370.486 197.492 370.652C197.989 370.818 198.409 371.122 198.752 371.564C199.098 372.002 199.271 372.602 199.271 373.365V379H197.647V377.84H197.58C197.463 378.076 197.293 378.295 197.072 378.497C196.855 378.7 196.577 378.866 196.238 378.994C195.903 379.123 195.514 379.188 195.072 379.188C194.527 379.188 194.037 379.087 193.603 378.884C193.172 378.681 192.831 378.385 192.58 377.994C192.33 377.604 192.205 377.14 192.205 376.602ZM193.84 376.624C193.84 377.022 193.986 377.328 194.277 377.541C194.571 377.751 194.96 377.856 195.442 377.856C195.881 377.856 196.264 377.768 196.591 377.591C196.923 377.414 197.175 377.18 197.348 376.89C197.525 376.595 197.614 376.278 197.614 375.939V375.166C197.334 375.18 196.667 375.225 195.614 375.298C195.05 375.339 194.614 375.47 194.304 375.691C193.995 375.908 193.84 376.219 193.84 376.624ZM202.959 379H201.29V370.514H202.892V371.901H202.997C203.2 371.433 203.513 371.066 203.936 370.801C204.36 370.536 204.881 370.403 205.5 370.403C206.086 370.403 206.594 370.527 207.025 370.773C207.459 371.017 207.795 371.378 208.03 371.856C208.27 372.335 208.389 372.917 208.389 373.602V379H206.721V373.807C206.721 373.401 206.649 373.052 206.505 372.757C206.366 372.462 206.161 372.238 205.892 372.083C205.623 371.924 205.303 371.845 204.931 371.845C204.544 371.845 204.202 371.93 203.903 372.099C203.609 372.265 203.377 372.508 203.207 372.829C203.041 373.145 202.959 373.525 202.959 373.967V379Z" fill="#FFF8E2"/>
<path d="M163.699 84H162.295V72.6851H163.699V84Z" fill="#FFF8E2"/>
<defs>
<filter id="filter0_d_239_2483" x="0.5" y="0" width="324" height="452" filterUnits="userSpaceOnUse" color-interpolation-filters="sRGB">
<feFlood flood-opacity="0" result="BackgroundImageFix"/>
<feColorMatrix in="SourceAlpha" type="matrix" values="0 0 0 0 0 0 0 0 0 0 0 0 0 0 0 0 0 0 127 0" result="hardAlpha"/>
<feMorphology radius="10" operator="dilate" in="SourceAlpha" result="effect1_dropShadow_239_2483"/>
<feOffset/>
<feGaussianBlur stdDeviation="17.5"/>
<feComposite in2="hardAlpha" operator="out"/>
<feColorMatrix type="matrix" values="0 0 0 0 0.792157 0 0 0 0 0.956863 0 0 0 0 0.862745 0 0 0 0.3 0"/>
<feBlend mode="normal" in2="BackgroundImageFix" result="effect1_dropShadow_239_2483"/>
<feBlend mode="normal" in="SourceGraphic" in2="effect1_dropShadow_239_2483" result="shape"/>
</filter>
<filter id="filter1_d_239_2483" x="74.1" y="232.562" width="176.809" height="65.3382" filterUnits="userSpaceOnUse" color-interpolation-filters="sRGB">
<feFlood flood-opacity="0" result="BackgroundImageFix"/>
<feColorMatrix in="SourceAlpha" type="matrix" values="0 0 0 0 0 0 0 0 0 0 0 0 0 0 0 0 0 0 127 0" result="hardAlpha"/>
<feOffset/>
<feGaussianBlur stdDeviation="5.45"/>
<feComposite in2="hardAlpha" operator="out"/>
<feColorMatrix type="matrix" values="0 0 0 0 0.52018 0 0 0 0 0.531966 0 0 0 0 0.97198 0 0 0 0.3 0"/>
<feBlend mode="normal" in2="BackgroundImageFix" result="effect1_dropShadow_239_2483"/>
<feBlend mode="normal" in="SourceGraphic" in2="effect1_dropShadow_239_2483" result="shape"/>
</filter>
<filter id="filter2_d_239_2483" x="98.6636" y="119.1" width="127.681" height="167.122" filterUnits="userSpaceOnUse" color-interpolation-filters="sRGB">
<feFlood flood-opacity="0" result="BackgroundImageFix"/>
<feColorMatrix in="SourceAlpha" type="matrix" values="0 0 0 0 0 0 0 0 0 0 0 0 0 0 0 0 0 0 127 0" result="hardAlpha"/>
<feOffset/>
<feGaussianBlur stdDeviation="5.45"/>
<feComposite in2="hardAlpha" operator="out"/>
<feColorMatrix type="matrix" values="0 0 0 0 0.52018 0 0 0 0 0.531966 0 0 0 0 0.97198 0 0 0 0.3 0"/>
<feBlend mode="normal" in2="BackgroundImageFix" result="effect1_dropShadow_239_2483"/>
<feBlend mode="normal" in="SourceGraphic" in2="effect1_dropShadow_239_2483" result="shape"/>
</filter>
<linearGradient id="paint0_linear_239_2483" x1="106.615" y1="243.264" x2="239.677" y2="271.995" gradientUnits="userSpaceOnUse">
<stop stop-color="#FFF8E2"/>
<stop offset="0.5" stop-color="#CAF4DC"/>
<stop offset="1" stop-color="#75AFFF"/>
</linearGradient>
<linearGradient id="paint1_linear_239_2483" x1="151.143" y1="151.452" x2="220.419" y2="261.76" gradientUnits="userSpaceOnUse">
<stop stop-color="#FFF8E2"/>
<stop offset="0.5" stop-color="#CAF4DC"/>
<stop offset="1" stop-color="#75AFFF"/>
</linearGradient>
<clipPath id="clip0_239_2483">
<rect width="177" height="179" fill="white" transform="translate(74 119)"/>
</clipPath>
</defs>
</svg>
