<svg width="335" height="462" viewBox="0 0 335 462" fill="none" xmlns="http://www.w3.org/2000/svg">
<g filter="url(#filter0_d_239_2334)">
<rect x="50.5" y="50" width="234" height="362" rx="8" fill="#111111"/>
</g>
<g clip-path="url(#clip0_239_2334)">
<g filter="url(#filter1_d_239_2334)">
<path d="M136.387 211.744C148.083 168.733 193.869 147.987 206.587 158.104C174.582 167.717 170.466 204.685 172.498 243.622L136.376 211.744H136.387Z" fill="url(#paint0_linear_239_2334)"/>
</g>
<g filter="url(#filter2_dd_239_2334)">
<path d="M253.552 210.874C241.866 166 177.193 161.015 157.095 226.311C146.104 174.483 100.118 182.641 77.2194 218.75C109.561 196.569 131.838 211.607 113.846 249.811C110.93 250.282 108.014 250.774 105.108 251.33C97.1173 252.858 92.0428 260.786 93.6957 268.557C95.3486 276.338 102.476 281.186 109.677 279.815C142.609 273.5 176.288 273.5 209.219 279.815C216.42 281.186 223.548 276.348 225.201 268.557C226.853 260.786 221.768 252.858 213.788 251.33C211.377 250.869 208.956 250.439 206.545 250.041C187.826 213.356 224.4 184.735 253.563 210.874H253.552Z" fill="url(#paint1_linear_239_2334)"/>
</g>
<g filter="url(#filter3_d_239_2334)">
<path d="M77.2299 233.244C82.6257 233.244 86.9999 228.892 86.9999 223.525C86.9999 218.158 82.6257 213.807 77.2299 213.807C71.8341 213.807 67.46 218.158 67.46 223.525C67.46 228.892 71.8341 233.244 77.2299 233.244Z" fill="url(#paint2_linear_239_2334)"/>
</g>
<g filter="url(#filter4_d_239_2334)">
<path d="M210.093 165.508C214.663 165.508 218.368 161.822 218.368 157.276C218.368 152.73 214.663 149.045 210.093 149.045C205.523 149.045 201.818 152.73 201.818 157.276C201.818 161.822 205.523 165.508 210.093 165.508Z" fill="url(#paint3_linear_239_2334)"/>
</g>
<g filter="url(#filter5_d_239_2334)">
<path d="M256.426 228.625C263.072 228.625 268.46 223.266 268.46 216.655C268.46 210.044 263.072 204.685 256.426 204.685C249.781 204.685 244.393 210.044 244.393 216.655C244.393 223.266 249.781 228.625 256.426 228.625Z" fill="url(#paint4_linear_239_2334)"/>
</g>
</g>
<path d="M135.388 372.685H144.156V374.166H140.637V384H138.918V374.166H135.388V372.685ZM147.435 384H145.767V372.685H147.413V376.901H147.518C147.724 376.422 148.034 376.053 148.446 375.796C148.862 375.534 149.391 375.403 150.032 375.403C150.621 375.403 151.133 375.525 151.568 375.768C152.002 376.007 152.339 376.366 152.579 376.845C152.818 377.324 152.938 377.91 152.938 378.602V384H151.269V378.807C151.269 378.188 151.109 377.707 150.789 377.365C150.472 377.018 150.03 376.845 149.463 376.845C149.069 376.845 148.719 376.93 148.413 377.099C148.107 377.265 147.868 377.508 147.695 377.829C147.522 378.145 147.435 378.525 147.435 378.967V384ZM158.617 384.171C157.792 384.171 157.074 383.993 156.462 383.635C155.855 383.274 155.387 382.766 155.059 382.11C154.735 381.451 154.573 380.685 154.573 379.812C154.573 378.95 154.735 378.186 155.059 377.519C155.387 376.853 155.847 376.333 156.44 375.961C157.033 375.589 157.718 375.403 158.496 375.403C159.177 375.403 159.801 375.552 160.368 375.851C160.939 376.145 161.398 376.611 161.744 377.249C162.094 377.886 162.269 378.692 162.269 379.669V380.26H156.23C156.245 380.79 156.354 381.247 156.556 381.63C156.759 382.013 157.037 382.304 157.391 382.503C157.748 382.702 158.16 382.801 158.628 382.801C159.077 382.801 159.459 382.716 159.772 382.547C160.085 382.374 160.317 382.147 160.468 381.867H162.158C162.033 382.331 161.809 382.737 161.484 383.083C161.164 383.429 160.759 383.698 160.269 383.89C159.779 384.077 159.228 384.171 158.617 384.171ZM160.628 379.011C160.628 378.584 160.54 378.201 160.363 377.862C160.186 377.523 159.938 377.258 159.617 377.066C159.3 376.871 158.934 376.773 158.518 376.773C158.087 376.773 157.702 376.875 157.363 377.077C157.028 377.28 156.763 377.552 156.567 377.895C156.372 378.238 156.262 378.61 156.236 379.011H160.628ZM167.962 372.685H174.989V374.166H169.68V377.597H174.481V379.072H169.68V384H167.962V372.685ZM179.727 384.171C178.935 384.171 178.239 383.991 177.639 383.63C177.042 383.265 176.58 382.751 176.252 382.088C175.924 381.425 175.76 380.661 175.76 379.796C175.76 378.923 175.924 378.155 176.252 377.492C176.58 376.829 177.042 376.315 177.639 375.95C178.239 375.586 178.935 375.403 179.727 375.403C180.515 375.403 181.208 375.586 181.805 375.95C182.405 376.315 182.867 376.829 183.191 377.492C183.519 378.155 183.683 378.923 183.683 379.796C183.683 380.661 183.519 381.425 183.191 382.088C182.867 382.751 182.405 383.265 181.805 383.63C181.208 383.991 180.515 384.171 179.727 384.171ZM177.44 379.79C177.44 380.346 177.525 380.851 177.694 381.304C177.867 381.757 178.125 382.116 178.468 382.381C178.814 382.646 179.235 382.779 179.733 382.779C180.226 382.779 180.642 382.646 180.981 382.381C181.324 382.116 181.58 381.757 181.749 381.304C181.919 380.851 182.003 380.346 182.003 379.79C182.003 379.234 181.919 378.729 181.749 378.276C181.58 377.823 181.324 377.462 180.981 377.193C180.642 376.924 180.226 376.79 179.733 376.79C179.235 376.79 178.814 376.924 178.468 377.193C178.125 377.462 177.867 377.823 177.694 378.276C177.525 378.729 177.44 379.234 177.44 379.79ZM188.915 384.171C188.123 384.171 187.427 383.991 186.826 383.63C186.23 383.265 185.767 382.751 185.44 382.088C185.112 381.425 184.948 380.661 184.948 379.796C184.948 378.923 185.112 378.155 185.44 377.492C185.767 376.829 186.23 376.315 186.826 375.95C187.427 375.586 188.123 375.403 188.915 375.403C189.703 375.403 190.395 375.586 190.992 375.95C191.592 376.315 192.055 376.829 192.379 377.492C192.707 378.155 192.871 378.923 192.871 379.796C192.871 380.661 192.707 381.425 192.379 382.088C192.055 382.751 191.592 383.265 190.992 383.63C190.395 383.991 189.703 384.171 188.915 384.171ZM186.627 379.79C186.627 380.346 186.712 380.851 186.882 381.304C187.055 381.757 187.313 382.116 187.655 382.381C188.001 382.646 188.423 382.779 188.92 382.779C189.414 382.779 189.83 382.646 190.169 382.381C190.511 382.116 190.767 381.757 190.937 381.304C191.106 380.851 191.191 380.346 191.191 379.79C191.191 379.234 191.106 378.729 190.937 378.276C190.767 377.823 190.511 377.462 190.169 377.193C189.83 376.924 189.414 376.79 188.92 376.79C188.423 376.79 188.001 376.924 187.655 377.193C187.313 377.462 187.055 377.823 186.882 378.276C186.712 378.729 186.627 379.234 186.627 379.79ZM196.185 384H194.517V372.685H196.185V384Z" fill="#B48AEB"/>
<path d="M167.762 89.1547C166.93 89.1547 166.217 88.9282 165.624 88.4751C165.035 88.0184 164.584 87.3554 164.271 86.4862C163.961 85.6169 163.807 84.5691 163.807 83.3425C163.807 82.1271 163.963 81.0847 164.276 80.2155C164.589 79.3425 165.042 78.6777 165.635 78.221C166.228 77.7606 166.937 77.5304 167.762 77.5304C168.587 77.5304 169.297 77.7606 169.89 78.221C170.483 78.6777 170.936 79.3425 171.249 80.2155C171.562 81.0847 171.718 82.1271 171.718 83.3425C171.718 84.5691 171.562 85.6169 171.249 86.4862C170.939 87.3554 170.488 88.0184 169.895 88.4751C169.306 88.9282 168.595 89.1547 167.762 89.1547ZM165.177 83.3425C165.177 84.3112 165.278 85.1381 165.481 85.8232C165.683 86.5046 165.978 87.0221 166.365 87.3757C166.751 87.7293 167.217 87.9061 167.762 87.9061C168.308 87.9061 168.773 87.7293 169.16 87.3757C169.547 87.0221 169.842 86.5046 170.044 85.8232C170.247 85.1381 170.348 84.3112 170.348 83.3425C170.348 82.3738 170.245 81.547 170.039 80.8619C169.836 80.1731 169.541 79.6501 169.155 79.2928C168.768 78.9355 168.304 78.7569 167.762 78.7569C167.221 78.7569 166.757 78.9355 166.37 79.2928C165.983 79.6501 165.687 80.1731 165.481 80.8619C165.278 81.547 165.177 82.3738 165.177 83.3425Z" fill="#B48AEB"/>
<defs>
<filter id="filter0_d_239_2334" x="0.5" y="0" width="334" height="462" filterUnits="userSpaceOnUse" color-interpolation-filters="sRGB">
<feFlood flood-opacity="0" result="BackgroundImageFix"/>
<feColorMatrix in="SourceAlpha" type="matrix" values="0 0 0 0 0 0 0 0 0 0 0 0 0 0 0 0 0 0 127 0" result="hardAlpha"/>
<feMorphology radius="15" operator="dilate" in="SourceAlpha" result="effect1_dropShadow_239_2334"/>
<feOffset/>
<feGaussianBlur stdDeviation="17.5"/>
<feComposite in2="hardAlpha" operator="out"/>
<feColorMatrix type="matrix" values="0 0 0 0 0 0 0 0 0 0.192157 0 0 0 0 0.67451 0 0 0 0.3 0"/>
<feBlend mode="normal" in2="BackgroundImageFix" result="effect1_dropShadow_239_2334"/>
<feBlend mode="normal" in="SourceGraphic" in2="effect1_dropShadow_239_2334" result="shape"/>
</filter>
<filter id="filter1_d_239_2334" x="125.476" y="144.677" width="92.011" height="109.844" filterUnits="userSpaceOnUse" color-interpolation-filters="sRGB">
<feFlood flood-opacity="0" result="BackgroundImageFix"/>
<feColorMatrix in="SourceAlpha" type="matrix" values="0 0 0 0 0 0 0 0 0 0 0 0 0 0 0 0 0 0 127 0" result="hardAlpha"/>
<feOffset/>
<feGaussianBlur stdDeviation="5.45"/>
<feComposite in2="hardAlpha" operator="out"/>
<feColorMatrix type="matrix" values="0 0 0 0 0.52018 0 0 0 0 0.531966 0 0 0 0 0.97198 0 0 0 0.3 0"/>
<feBlend mode="normal" in2="BackgroundImageFix" result="effect1_dropShadow_239_2334"/>
<feBlend mode="normal" in="SourceGraphic" in2="effect1_dropShadow_239_2334" result="shape"/>
</filter>
<filter id="filter2_dd_239_2334" x="66.3194" y="166.285" width="198.143" height="124.661" filterUnits="userSpaceOnUse" color-interpolation-filters="sRGB">
<feFlood flood-opacity="0" result="BackgroundImageFix"/>
<feColorMatrix in="SourceAlpha" type="matrix" values="0 0 0 0 0 0 0 0 0 0 0 0 0 0 0 0 0 0 127 0" result="hardAlpha"/>
<feOffset/>
<feGaussianBlur stdDeviation="5.45"/>
<feComposite in2="hardAlpha" operator="out"/>
<feColorMatrix type="matrix" values="0 0 0 0 0.52018 0 0 0 0 0.531966 0 0 0 0 0.97198 0 0 0 0.3 0"/>
<feBlend mode="normal" in2="BackgroundImageFix" result="effect1_dropShadow_239_2334"/>
<feColorMatrix in="SourceAlpha" type="matrix" values="0 0 0 0 0 0 0 0 0 0 0 0 0 0 0 0 0 0 127 0" result="hardAlpha"/>
<feOffset dy="4"/>
<feGaussianBlur stdDeviation="2"/>
<feComposite in2="hardAlpha" operator="out"/>
<feColorMatrix type="matrix" values="0 0 0 0 0 0 0 0 0 0 0 0 0 0 0 0 0 0 0.25 0"/>
<feBlend mode="normal" in2="effect1_dropShadow_239_2334" result="effect2_dropShadow_239_2334"/>
<feBlend mode="normal" in="SourceGraphic" in2="effect2_dropShadow_239_2334" result="shape"/>
</filter>
<filter id="filter3_d_239_2334" x="56.56" y="202.907" width="41.3399" height="41.2369" filterUnits="userSpaceOnUse" color-interpolation-filters="sRGB">
<feFlood flood-opacity="0" result="BackgroundImageFix"/>
<feColorMatrix in="SourceAlpha" type="matrix" values="0 0 0 0 0 0 0 0 0 0 0 0 0 0 0 0 0 0 127 0" result="hardAlpha"/>
<feOffset/>
<feGaussianBlur stdDeviation="5.45"/>
<feComposite in2="hardAlpha" operator="out"/>
<feColorMatrix type="matrix" values="0 0 0 0 0.52018 0 0 0 0 0.531966 0 0 0 0 0.97198 0 0 0 0.3 0"/>
<feBlend mode="normal" in2="BackgroundImageFix" result="effect1_dropShadow_239_2334"/>
<feBlend mode="normal" in="SourceGraphic" in2="effect1_dropShadow_239_2334" result="shape"/>
</filter>
<filter id="filter4_d_239_2334" x="190.918" y="138.145" width="38.35" height="38.2627" filterUnits="userSpaceOnUse" color-interpolation-filters="sRGB">
<feFlood flood-opacity="0" result="BackgroundImageFix"/>
<feColorMatrix in="SourceAlpha" type="matrix" values="0 0 0 0 0 0 0 0 0 0 0 0 0 0 0 0 0 0 127 0" result="hardAlpha"/>
<feOffset/>
<feGaussianBlur stdDeviation="5.45"/>
<feComposite in2="hardAlpha" operator="out"/>
<feColorMatrix type="matrix" values="0 0 0 0 0.52018 0 0 0 0 0.531966 0 0 0 0 0.97198 0 0 0 0.3 0"/>
<feBlend mode="normal" in2="BackgroundImageFix" result="effect1_dropShadow_239_2334"/>
<feBlend mode="normal" in="SourceGraphic" in2="effect1_dropShadow_239_2334" result="shape"/>
</filter>
<filter id="filter5_d_239_2334" x="233.493" y="193.785" width="45.8669" height="45.74" filterUnits="userSpaceOnUse" color-interpolation-filters="sRGB">
<feFlood flood-opacity="0" result="BackgroundImageFix"/>
<feColorMatrix in="SourceAlpha" type="matrix" values="0 0 0 0 0 0 0 0 0 0 0 0 0 0 0 0 0 0 127 0" result="hardAlpha"/>
<feOffset/>
<feGaussianBlur stdDeviation="5.45"/>
<feComposite in2="hardAlpha" operator="out"/>
<feColorMatrix type="matrix" values="0 0 0 0 0.52018 0 0 0 0 0.531966 0 0 0 0 0.97198 0 0 0 0.3 0"/>
<feBlend mode="normal" in2="BackgroundImageFix" result="effect1_dropShadow_239_2334"/>
<feBlend mode="normal" in="SourceGraphic" in2="effect1_dropShadow_239_2334" result="shape"/>
</filter>
<linearGradient id="paint0_linear_239_2334" x1="203.271" y1="149.569" x2="156.274" y2="233.561" gradientUnits="userSpaceOnUse">
<stop stop-color="#B48AEB"/>
<stop offset="0.5" stop-color="#6C6FDF"/>
<stop offset="1" stop-color="#0031AC"/>
</linearGradient>
<linearGradient id="paint1_linear_239_2334" x1="102.792" y1="189.835" x2="226.272" y2="269.328" gradientUnits="userSpaceOnUse">
<stop stop-color="#B48AEB"/>
<stop offset="0.5" stop-color="#6C6FDF"/>
<stop offset="1" stop-color="#0031AC"/>
</linearGradient>
<linearGradient id="paint2_linear_239_2334" x1="69.5656" y1="213.974" x2="82.6318" y2="232.889" gradientUnits="userSpaceOnUse">
<stop stop-color="#B48AEB"/>
<stop offset="0.5" stop-color="#6C6FDF"/>
<stop offset="1" stop-color="#0031AC"/>
</linearGradient>
<linearGradient id="paint3_linear_239_2334" x1="202.218" y1="149.045" x2="217.921" y2="165.884" gradientUnits="userSpaceOnUse">
<stop stop-color="#B48AEB"/>
<stop offset="0.5" stop-color="#6C6FDF"/>
<stop offset="1" stop-color="#0031AC"/>
</linearGradient>
<linearGradient id="paint4_linear_239_2334" x1="244.33" y1="204.549" x2="263.682" y2="228.736" gradientUnits="userSpaceOnUse">
<stop stop-color="#B48AEB"/>
<stop offset="0.5" stop-color="#6C6FDF"/>
<stop offset="1" stop-color="#0031AC"/>
</linearGradient>
<clipPath id="clip0_239_2334">
<rect width="224" height="153" fill="white" transform="translate(56 138)"/>
</clipPath>
</defs>
</svg>
