<svg width="325" height="452" viewBox="0 0 325 452" fill="none" xmlns="http://www.w3.org/2000/svg">
<g filter="url(#filter0_d_239_2475)">
<rect x="45.5" y="45" width="234" height="362" rx="8" fill="#111111"/>
</g>
<path d="M107.094 367.685H111.139C111.99 367.685 112.708 367.843 113.293 368.16C113.883 368.473 114.323 368.906 114.614 369.459C114.908 370.011 115.056 370.643 115.056 371.354C115.056 372.064 114.908 372.698 114.614 373.254C114.319 373.807 113.877 374.241 113.288 374.558C112.702 374.875 111.984 375.033 111.133 375.033H108.813V379H107.094V367.685ZM110.962 373.569C111.761 373.569 112.354 373.368 112.741 372.967C113.131 372.565 113.327 372.028 113.327 371.354C113.327 370.68 113.131 370.145 112.741 369.751C112.354 369.357 111.759 369.16 110.956 369.16H108.813V373.569H110.962ZM116.252 376.602C116.252 375.729 116.548 375.105 117.141 374.729C117.738 374.354 118.498 374.133 119.423 374.066C119.784 374.044 120.176 374.022 120.6 374C121.023 373.978 121.375 373.961 121.655 373.95V373.26C121.655 372.777 121.508 372.405 121.213 372.144C120.918 371.882 120.489 371.751 119.926 371.751C119.45 371.751 119.062 371.849 118.76 372.044C118.462 372.239 118.268 372.501 118.18 372.829H116.517C116.568 372.361 116.743 371.943 117.042 371.575C117.34 371.206 117.741 370.919 118.246 370.713C118.754 370.506 119.334 370.403 119.986 370.403C120.524 370.403 121.042 370.486 121.539 370.652C122.036 370.818 122.456 371.122 122.799 371.564C123.145 372.002 123.318 372.602 123.318 373.365V379H121.694V377.84H121.627C121.509 378.076 121.34 378.295 121.119 378.497C120.902 378.7 120.624 378.866 120.285 378.994C119.95 379.123 119.561 379.188 119.119 379.188C118.574 379.188 118.084 379.087 117.649 378.884C117.218 378.681 116.878 378.385 116.627 377.994C116.377 377.604 116.252 377.14 116.252 376.602ZM117.887 376.624C117.887 377.022 118.032 377.328 118.323 377.541C118.618 377.751 119.007 377.856 119.489 377.856C119.927 377.856 120.311 377.768 120.638 377.591C120.97 377.414 121.222 377.18 121.395 376.89C121.572 376.595 121.66 376.278 121.66 375.939V375.166C121.381 375.18 120.714 375.225 119.66 375.298C119.097 375.339 118.66 375.47 118.351 375.691C118.042 375.908 117.887 376.219 117.887 376.624ZM128.906 382.359C128.191 382.359 127.563 382.258 127.022 382.055C126.484 381.856 126.057 381.565 125.74 381.182C125.427 380.803 125.247 380.35 125.199 379.823H126.9C126.978 380.221 127.191 380.519 127.541 380.718C127.895 380.921 128.355 381.022 128.923 381.022C129.608 381.022 130.138 380.866 130.514 380.552C130.893 380.243 131.083 379.766 131.083 379.122V377.453H130.972C130.762 377.843 130.471 378.179 130.099 378.459C129.727 378.735 129.199 378.873 128.514 378.873C127.836 378.873 127.228 378.709 126.69 378.381C126.156 378.053 125.735 377.573 125.425 376.939C125.116 376.306 124.961 375.549 124.961 374.669C124.961 373.788 125.114 373.028 125.42 372.387C125.725 371.742 126.147 371.25 126.685 370.912C127.226 370.573 127.841 370.403 128.53 370.403C129.013 370.403 129.418 370.484 129.746 370.646C130.074 370.805 130.326 370.987 130.503 371.193C130.679 371.4 130.841 371.632 130.989 371.89H131.099V370.514H132.729V379.182C132.729 379.886 132.565 380.475 132.237 380.95C131.91 381.425 131.458 381.779 130.884 382.011C130.313 382.243 129.654 382.359 128.906 382.359ZM126.657 374.702C126.657 375.262 126.742 375.751 126.911 376.171C127.081 376.591 127.333 376.917 127.668 377.149C128.004 377.381 128.411 377.497 128.889 377.497C129.357 377.497 129.757 377.387 130.088 377.166C130.42 376.945 130.67 376.624 130.84 376.204C131.013 375.785 131.099 375.284 131.099 374.702C131.099 374.127 131.013 373.624 130.84 373.193C130.67 372.759 130.42 372.422 130.088 372.182C129.757 371.943 129.357 371.823 128.889 371.823C128.407 371.823 127.998 371.948 127.663 372.199C127.331 372.446 127.081 372.786 126.911 373.221C126.742 373.656 126.657 374.149 126.657 374.702ZM138.422 379.171C137.597 379.171 136.878 378.993 136.267 378.635C135.659 378.274 135.192 377.766 134.864 377.11C134.54 376.451 134.378 375.685 134.378 374.812C134.378 373.95 134.54 373.186 134.864 372.519C135.192 371.853 135.652 371.333 136.245 370.961C136.838 370.589 137.523 370.403 138.3 370.403C138.982 370.403 139.606 370.552 140.173 370.851C140.744 371.145 141.203 371.611 141.549 372.249C141.899 372.886 142.074 373.692 142.074 374.669V375.26H136.035C136.05 375.79 136.158 376.247 136.361 376.63C136.564 377.013 136.842 377.304 137.195 377.503C137.553 377.702 137.965 377.801 138.433 377.801C138.882 377.801 139.263 377.716 139.576 377.547C139.89 377.374 140.122 377.147 140.273 376.867H141.963C141.838 377.331 141.613 377.737 141.289 378.083C140.969 378.429 140.564 378.698 140.074 378.89C139.584 379.077 139.033 379.171 138.422 379.171ZM140.433 374.011C140.433 373.584 140.344 373.201 140.168 372.862C139.991 372.523 139.742 372.258 139.422 372.066C139.105 371.871 138.739 371.773 138.322 371.773C137.891 371.773 137.506 371.875 137.168 372.077C136.832 372.28 136.567 372.552 136.372 372.895C136.177 373.238 136.066 373.61 136.041 374.011H140.433ZM151.219 379.171C150.428 379.171 149.731 378.991 149.131 378.63C148.534 378.265 148.072 377.751 147.744 377.088C147.416 376.425 147.253 375.661 147.253 374.796C147.253 373.923 147.416 373.155 147.744 372.492C148.072 371.829 148.534 371.315 149.131 370.95C149.731 370.586 150.428 370.403 151.219 370.403C152.008 370.403 152.7 370.586 153.297 370.95C153.897 371.315 154.359 371.829 154.683 372.492C155.011 373.155 155.175 373.923 155.175 374.796C155.175 375.661 155.011 376.425 154.683 377.088C154.359 377.751 153.897 378.265 153.297 378.63C152.7 378.991 152.008 379.171 151.219 379.171ZM148.932 374.79C148.932 375.346 149.017 375.851 149.186 376.304C149.359 376.757 149.617 377.116 149.96 377.381C150.306 377.646 150.728 377.779 151.225 377.779C151.718 377.779 152.135 377.646 152.474 377.381C152.816 377.116 153.072 376.757 153.241 376.304C153.411 375.851 153.496 375.346 153.496 374.79C153.496 374.234 153.411 373.729 153.241 373.276C153.072 372.823 152.816 372.462 152.474 372.193C152.135 371.924 151.718 371.79 151.225 371.79C150.728 371.79 150.306 371.924 149.96 372.193C149.617 372.462 149.359 372.823 149.186 373.276C149.017 373.729 148.932 374.234 148.932 374.79ZM160.865 371.845H159.042V379H157.374V371.845H156.064V370.514H157.374V369.536C157.374 369.035 157.475 368.606 157.678 368.249C157.884 367.891 158.177 367.621 158.556 367.436C158.935 367.249 159.385 367.155 159.904 367.155C160.302 367.155 160.679 367.192 161.037 367.265V368.652C160.783 368.615 160.549 368.597 160.335 368.597C159.893 368.597 159.567 368.691 159.357 368.878C159.147 369.066 159.042 369.365 159.042 369.773V370.514H160.865V371.845ZM165.506 367.685H167.319L169.517 376.431H169.622L171.91 367.685H173.7L175.987 376.436H176.087L178.285 367.685H180.098L176.959 379H175.225L172.849 370.547H172.761L170.385 379H168.645L165.506 367.685ZM180.127 376.602C180.127 375.729 180.423 375.105 181.016 374.729C181.613 374.354 182.373 374.133 183.298 374.066C183.659 374.044 184.051 374.022 184.475 374C184.898 373.978 185.25 373.961 185.53 373.95V373.26C185.53 372.777 185.383 372.405 185.088 372.144C184.793 371.882 184.364 371.751 183.801 371.751C183.325 371.751 182.937 371.849 182.635 372.044C182.337 372.239 182.143 372.501 182.055 372.829H180.392C180.443 372.361 180.618 371.943 180.917 371.575C181.215 371.206 181.616 370.919 182.121 370.713C182.629 370.506 183.209 370.403 183.861 370.403C184.399 370.403 184.917 370.486 185.414 370.652C185.911 370.818 186.331 371.122 186.674 371.564C187.02 372.002 187.193 372.602 187.193 373.365V379H185.569V377.84H185.502C185.384 378.076 185.215 378.295 184.994 378.497C184.777 378.7 184.499 378.866 184.16 378.994C183.825 379.123 183.436 379.188 182.994 379.188C182.449 379.188 181.959 379.087 181.524 378.884C181.093 378.681 180.753 378.385 180.502 377.994C180.252 377.604 180.127 377.14 180.127 376.602ZM181.762 376.624C181.762 377.022 181.907 377.328 182.198 377.541C182.493 377.751 182.882 377.856 183.364 377.856C183.802 377.856 184.186 377.768 184.513 377.591C184.845 377.414 185.097 377.18 185.27 376.89C185.447 376.595 185.535 376.278 185.535 375.939V375.166C185.256 375.18 184.589 375.225 183.535 375.298C182.972 375.339 182.535 375.47 182.226 375.691C181.917 375.908 181.762 376.219 181.762 376.624ZM190.88 379H189.212V370.514H190.814V371.901H190.919C191.122 371.433 191.435 371.066 191.858 370.801C192.282 370.536 192.803 370.403 193.422 370.403C194.007 370.403 194.516 370.527 194.947 370.773C195.381 371.017 195.716 371.378 195.952 371.856C196.192 372.335 196.311 372.917 196.311 373.602V379H194.643V373.807C194.643 373.401 194.571 373.052 194.427 372.757C194.287 372.462 194.083 372.238 193.814 372.083C193.545 371.924 193.225 371.845 192.853 371.845C192.466 371.845 192.123 371.93 191.825 372.099C191.53 372.265 191.298 372.508 191.129 372.829C190.963 373.145 190.88 373.525 190.88 373.967V379ZM201.514 379.166C200.829 379.166 200.217 378.989 199.679 378.635C199.142 378.282 198.72 377.773 198.414 377.11C198.112 376.448 197.961 375.669 197.961 374.773C197.961 373.875 198.114 373.096 198.42 372.436C198.725 371.777 199.149 371.274 199.69 370.928C200.232 370.578 200.845 370.403 201.53 370.403C202.013 370.403 202.416 370.484 202.74 370.646C203.068 370.805 203.318 370.987 203.492 371.193C203.665 371.4 203.825 371.632 203.972 371.89H204.061V367.685H205.729V379H204.099V377.68H203.972C203.829 377.934 203.665 378.166 203.481 378.376C203.296 378.586 203.04 378.77 202.713 378.928C202.388 379.087 201.989 379.166 201.514 379.166ZM199.657 374.757C199.657 375.331 199.742 375.845 199.911 376.298C200.085 376.748 200.339 377.101 200.674 377.359C201.009 377.617 201.414 377.746 201.889 377.746C202.353 377.746 202.751 377.622 203.083 377.376C203.414 377.125 203.667 376.775 203.84 376.326C204.013 375.873 204.099 375.35 204.099 374.757C204.099 374.164 204.013 373.648 203.84 373.21C203.67 372.768 203.42 372.427 203.088 372.188C202.757 371.945 202.357 371.823 201.889 371.823C201.407 371.823 200.998 371.948 200.663 372.199C200.328 372.449 200.075 372.796 199.906 373.238C199.74 373.68 199.657 374.186 199.657 374.757ZM212.662 372.829C212.581 372.483 212.404 372.212 212.131 372.017C211.863 371.818 211.503 371.718 211.054 371.718C210.745 371.718 210.465 371.768 210.214 371.867C209.964 371.967 209.769 372.105 209.629 372.282C209.492 372.455 209.424 372.646 209.424 372.856C209.421 373.11 209.526 373.328 209.739 373.508C209.956 373.685 210.293 373.827 210.75 373.934L212.109 374.243C212.886 374.424 213.467 374.703 213.85 375.083C214.233 375.459 214.424 375.945 214.424 376.541C214.424 377.053 214.284 377.508 214.004 377.906C213.728 378.304 213.328 378.615 212.805 378.84C212.282 379.061 211.666 379.171 210.955 379.171C209.945 379.171 209.144 378.956 208.551 378.525C207.962 378.094 207.614 377.479 207.507 376.68H209.214C209.358 377.449 209.933 377.834 210.938 377.834C211.295 377.834 211.608 377.788 211.877 377.696C212.146 377.6 212.352 377.466 212.496 377.293C212.643 377.116 212.717 376.91 212.717 376.674C212.717 376.398 212.61 376.171 212.397 375.994C212.187 375.814 211.857 375.672 211.408 375.569L210.082 375.276C209.323 375.11 208.745 374.829 208.347 374.431C207.953 374.033 207.756 373.54 207.756 372.95C207.756 372.453 207.892 372.011 208.165 371.624C208.441 371.238 208.828 370.937 209.325 370.724C209.822 370.51 210.395 370.403 211.043 370.403C211.662 370.403 212.203 370.505 212.667 370.707C213.135 370.906 213.505 371.188 213.778 371.552C214.05 371.917 214.212 372.343 214.264 372.829H212.662Z" fill="#FFF8E2"/>
<path d="M159.413 72.6851H163.258C164.112 72.6851 164.827 72.8416 165.402 73.1547C165.98 73.4641 166.409 73.8895 166.689 74.4309C166.973 74.9724 167.114 75.5875 167.114 76.2762C167.114 76.965 166.974 77.582 166.694 78.1271C166.415 78.6722 165.987 79.1031 165.413 79.4199C164.838 79.733 164.127 79.8895 163.28 79.8895H160.816V84H159.413V72.6851ZM163.214 78.6409C164.072 78.6409 164.704 78.4273 165.109 78C165.518 77.5691 165.722 76.9945 165.722 76.2762C165.722 75.558 165.518 74.9889 165.109 74.5691C164.7 74.1455 164.065 73.9337 163.203 73.9337H160.816V78.6409H163.214Z" fill="#FFF8E2"/>
<g clip-path="url(#clip0_239_2475)">
<g filter="url(#filter1_d_239_2475)">
<path d="M145.406 181.004C159.498 173.906 165.145 156.684 158.02 142.536C150.894 128.388 133.694 122.673 119.602 129.77C105.51 136.868 99.8624 154.09 106.988 168.238C114.114 182.386 131.314 188.101 145.406 181.004Z" fill="url(#paint0_linear_239_2475)"/>
</g>
<g filter="url(#filter2_d_239_2475)">
<path d="M222.543 318.932L210.299 325.099L132.753 183.857L155.231 172.536L222.543 318.932Z" fill="url(#paint1_linear_239_2475)"/>
</g>
<g filter="url(#filter3_d_239_2475)">
<path d="M165.995 184.991L136.342 199.926L144.35 215.826L174.004 200.891L165.995 184.991Z" fill="url(#paint2_linear_239_2475)"/>
</g>
</g>
<defs>
<filter id="filter0_d_239_2475" x="0.5" y="0" width="324" height="452" filterUnits="userSpaceOnUse" color-interpolation-filters="sRGB">
<feFlood flood-opacity="0" result="BackgroundImageFix"/>
<feColorMatrix in="SourceAlpha" type="matrix" values="0 0 0 0 0 0 0 0 0 0 0 0 0 0 0 0 0 0 127 0" result="hardAlpha"/>
<feMorphology radius="10" operator="dilate" in="SourceAlpha" result="effect1_dropShadow_239_2475"/>
<feOffset/>
<feGaussianBlur stdDeviation="17.5"/>
<feComposite in2="hardAlpha" operator="out"/>
<feColorMatrix type="matrix" values="0 0 0 0 0.792157 0 0 0 0 0.956863 0 0 0 0 0.862745 0 0 0 0.3 0"/>
<feBlend mode="normal" in2="BackgroundImageFix" result="effect1_dropShadow_239_2475"/>
<feBlend mode="normal" in="SourceGraphic" in2="effect1_dropShadow_239_2475" result="shape"/>
</filter>
<filter id="filter1_d_239_2475" x="93.0055" y="115.821" width="78.997" height="79.132" filterUnits="userSpaceOnUse" color-interpolation-filters="sRGB">
<feFlood flood-opacity="0" result="BackgroundImageFix"/>
<feColorMatrix in="SourceAlpha" type="matrix" values="0 0 0 0 0 0 0 0 0 0 0 0 0 0 0 0 0 0 127 0" result="hardAlpha"/>
<feOffset/>
<feGaussianBlur stdDeviation="5.45"/>
<feComposite in2="hardAlpha" operator="out"/>
<feColorMatrix type="matrix" values="0 0 0 0 0.52018 0 0 0 0 0.531966 0 0 0 0 0.97198 0 0 0 0.3 0"/>
<feBlend mode="normal" in2="BackgroundImageFix" result="effect1_dropShadow_239_2475"/>
<feBlend mode="normal" in="SourceGraphic" in2="effect1_dropShadow_239_2475" result="shape"/>
</filter>
<filter id="filter2_d_239_2475" x="121.853" y="161.636" width="111.591" height="174.363" filterUnits="userSpaceOnUse" color-interpolation-filters="sRGB">
<feFlood flood-opacity="0" result="BackgroundImageFix"/>
<feColorMatrix in="SourceAlpha" type="matrix" values="0 0 0 0 0 0 0 0 0 0 0 0 0 0 0 0 0 0 127 0" result="hardAlpha"/>
<feOffset/>
<feGaussianBlur stdDeviation="5.45"/>
<feComposite in2="hardAlpha" operator="out"/>
<feColorMatrix type="matrix" values="0 0 0 0 0.52018 0 0 0 0 0.531966 0 0 0 0 0.97198 0 0 0 0.3 0"/>
<feBlend mode="normal" in2="BackgroundImageFix" result="effect1_dropShadow_239_2475"/>
<feBlend mode="normal" in="SourceGraphic" in2="effect1_dropShadow_239_2475" result="shape"/>
</filter>
<filter id="filter3_d_239_2475" x="125.442" y="174.091" width="59.4614" height="52.6353" filterUnits="userSpaceOnUse" color-interpolation-filters="sRGB">
<feFlood flood-opacity="0" result="BackgroundImageFix"/>
<feColorMatrix in="SourceAlpha" type="matrix" values="0 0 0 0 0 0 0 0 0 0 0 0 0 0 0 0 0 0 127 0" result="hardAlpha"/>
<feOffset/>
<feGaussianBlur stdDeviation="5.45"/>
<feComposite in2="hardAlpha" operator="out"/>
<feColorMatrix type="matrix" values="0 0 0 0 0.52018 0 0 0 0 0.531966 0 0 0 0 0.97198 0 0 0 0.3 0"/>
<feBlend mode="normal" in2="BackgroundImageFix" result="effect1_dropShadow_239_2475"/>
<feBlend mode="normal" in="SourceGraphic" in2="effect1_dropShadow_239_2475" result="shape"/>
</filter>
<linearGradient id="paint0_linear_239_2475" x1="97.5535" y1="128.595" x2="156.754" y2="179.49" gradientUnits="userSpaceOnUse">
<stop stop-color="#FFF8E2"/>
<stop offset="0.5" stop-color="#CAF4DC"/>
<stop offset="1" stop-color="#75AFFF"/>
</linearGradient>
<linearGradient id="paint1_linear_239_2475" x1="155.58" y1="152.345" x2="208.299" y2="329.966" gradientUnits="userSpaceOnUse">
<stop stop-color="#75AFFF"/>
<stop offset="0.607158" stop-color="#CAF4DC"/>
<stop offset="1" stop-color="#FFF8E2"/>
</linearGradient>
<linearGradient id="paint2_linear_239_2475" x1="131.909" y1="197.842" x2="174.724" y2="202.817" gradientUnits="userSpaceOnUse">
<stop stop-color="#FFF8E2"/>
<stop offset="0.5" stop-color="#CAF4DC"/>
<stop offset="1" stop-color="#75AFFF"/>
</linearGradient>
<clipPath id="clip0_239_2475">
<rect width="225.341" height="260.804" fill="white" transform="translate(4.21411 159.718) rotate(-26.7325)"/>
</clipPath>
</defs>
</svg>
