<svg width="335" height="462" viewBox="0 0 335 462" fill="none" xmlns="http://www.w3.org/2000/svg">
<g filter="url(#filter0_d_239_2381)">
<rect x="50.5" y="50" width="234" height="362" rx="8" fill="#111111"/>
</g>
<path d="M146.968 372.685V380.702C146.968 381.42 146.825 382.039 146.537 382.558C146.254 383.077 145.852 383.473 145.333 383.746C144.817 384.018 144.213 384.155 143.521 384.155C142.873 384.155 142.294 384.039 141.786 383.807C141.278 383.571 140.878 383.228 140.587 382.779C140.3 382.326 140.156 381.788 140.156 381.166H141.869C141.869 381.475 141.941 381.746 142.084 381.978C142.228 382.206 142.427 382.383 142.681 382.508C142.939 382.63 143.232 382.691 143.559 382.691C144.101 382.691 144.517 382.521 144.808 382.182C145.099 381.843 145.246 381.35 145.25 380.702V372.685H146.968ZM154.528 375.514H156.186V384H154.556V382.53H154.468C154.261 383.006 153.939 383.389 153.501 383.68C153.066 383.967 152.543 384.11 151.932 384.11C151.379 384.11 150.893 383.989 150.473 383.746C150.053 383.499 149.725 383.136 149.49 382.657C149.258 382.179 149.142 381.597 149.142 380.912V375.514H150.81V380.707C150.81 381.087 150.882 381.42 151.026 381.707C151.169 381.991 151.372 382.21 151.633 382.365C151.895 382.519 152.195 382.597 152.534 382.597C152.858 382.597 153.173 382.517 153.479 382.359C153.784 382.197 154.035 381.958 154.23 381.641C154.429 381.32 154.528 380.932 154.528 380.475V375.514ZM162.982 377.829C162.901 377.483 162.724 377.212 162.452 377.017C162.183 376.818 161.824 376.718 161.374 376.718C161.065 376.718 160.785 376.768 160.535 376.867C160.284 376.967 160.089 377.105 159.949 377.282C159.813 377.455 159.745 377.646 159.745 377.856C159.741 378.11 159.846 378.328 160.059 378.508C160.277 378.685 160.614 378.827 161.071 378.934L162.43 379.243C163.207 379.424 163.787 379.703 164.17 380.083C164.553 380.459 164.745 380.945 164.745 381.541C164.745 382.053 164.605 382.508 164.325 382.906C164.048 383.304 163.649 383.615 163.126 383.84C162.603 384.061 161.986 384.171 161.275 384.171C160.266 384.171 159.465 383.956 158.872 383.525C158.282 383.094 157.934 382.479 157.827 381.68H159.535C159.678 382.449 160.253 382.834 161.258 382.834C161.616 382.834 161.929 382.788 162.198 382.696C162.466 382.6 162.673 382.466 162.816 382.293C162.964 382.116 163.037 381.91 163.037 381.674C163.037 381.398 162.931 381.171 162.717 380.994C162.507 380.814 162.177 380.672 161.728 380.569L160.402 380.276C159.643 380.11 159.065 379.829 158.667 379.431C158.273 379.033 158.076 378.54 158.076 377.95C158.076 377.453 158.212 377.011 158.485 376.624C158.761 376.238 159.148 375.937 159.645 375.724C160.142 375.51 160.715 375.403 161.363 375.403C161.982 375.403 162.524 375.505 162.988 375.707C163.455 375.906 163.826 376.188 164.098 376.552C164.371 376.917 164.533 377.343 164.584 377.829H162.982ZM170.358 376.845H168.629V381.503C168.629 381.941 168.719 382.239 168.9 382.398C169.08 382.552 169.329 382.632 169.646 382.635C169.745 382.635 169.979 382.626 170.347 382.608L170.474 382.602V384.039C170.202 384.087 169.858 384.11 169.441 384.11C168.988 384.11 168.574 384.028 168.198 383.862C167.823 383.692 167.522 383.438 167.298 383.099C167.073 382.757 166.961 382.339 166.961 381.845V376.845H165.718V375.514H166.961V373.481H168.629V375.514H170.358V376.845ZM171.985 375.514H173.654V384H171.985V375.514ZM172.831 374.21C172.639 374.21 172.462 374.166 172.3 374.077C172.142 373.989 172.015 373.869 171.919 373.718C171.823 373.567 171.775 373.401 171.775 373.221C171.775 373.041 171.823 372.875 171.919 372.724C172.015 372.573 172.142 372.453 172.3 372.365C172.462 372.276 172.639 372.232 172.831 372.232C173.018 372.232 173.192 372.276 173.35 372.365C173.512 372.453 173.639 372.573 173.731 372.724C173.827 372.875 173.875 373.041 173.875 373.221C173.875 373.401 173.827 373.567 173.731 373.718C173.639 373.869 173.512 373.989 173.35 374.077C173.192 374.166 173.018 374.21 172.831 374.21ZM179.274 384.171C178.467 384.171 177.764 383.987 177.164 383.619C176.567 383.247 176.108 382.729 175.788 382.066C175.467 381.403 175.307 380.646 175.307 379.796C175.307 378.937 175.469 378.177 175.793 377.514C176.121 376.847 176.583 376.33 177.18 375.961C177.777 375.589 178.469 375.403 179.258 375.403C179.895 375.403 180.467 375.523 180.976 375.762C181.488 375.998 181.898 376.331 182.208 376.762C182.521 377.193 182.705 377.692 182.76 378.26H181.141C181.079 377.987 180.967 377.74 180.804 377.519C180.646 377.298 180.436 377.123 180.175 376.994C179.917 376.866 179.618 376.801 179.28 376.801C178.823 376.801 178.421 376.923 178.075 377.166C177.729 377.405 177.46 377.748 177.269 378.193C177.081 378.639 176.987 379.16 176.987 379.757C176.987 380.368 177.081 380.901 177.269 381.354C177.456 381.803 177.723 382.149 178.07 382.392C178.416 382.635 178.819 382.757 179.28 382.757C179.755 382.757 180.158 382.63 180.49 382.376C180.821 382.122 181.038 381.766 181.141 381.309H182.76C182.701 381.862 182.521 382.355 182.219 382.79C181.92 383.221 181.519 383.56 181.014 383.807C180.51 384.05 179.93 384.171 179.274 384.171ZM188.008 384.171C187.183 384.171 186.464 383.993 185.853 383.635C185.245 383.274 184.777 382.766 184.45 382.11C184.126 381.451 183.963 380.685 183.963 379.812C183.963 378.95 184.126 378.186 184.45 377.519C184.777 376.853 185.238 376.333 185.831 375.961C186.424 375.589 187.109 375.403 187.886 375.403C188.568 375.403 189.192 375.552 189.759 375.851C190.33 376.145 190.789 376.611 191.135 377.249C191.485 377.886 191.66 378.692 191.66 379.669V380.26H185.621C185.636 380.79 185.744 381.247 185.947 381.63C186.149 382.013 186.428 382.304 186.781 382.503C187.138 382.702 187.551 382.801 188.019 382.801C188.468 382.801 188.849 382.716 189.162 382.547C189.475 382.374 189.707 382.147 189.859 381.867H191.549C191.424 382.331 191.199 382.737 190.875 383.083C190.555 383.429 190.149 383.698 189.66 383.89C189.17 384.077 188.619 384.171 188.008 384.171ZM190.019 379.011C190.019 378.584 189.93 378.201 189.754 377.862C189.577 377.523 189.328 377.258 189.008 377.066C188.691 376.871 188.324 376.773 187.908 376.773C187.477 376.773 187.092 376.875 186.754 377.077C186.418 377.28 186.153 377.552 185.958 377.895C185.763 378.238 185.652 378.61 185.626 379.011H190.019Z" fill="#B48AEB"/>
<path d="M165.999 82.3591H166.088L168.983 77.6851H170.64L167.082 83.3425L170.64 89H168.983L166.088 84.4144H165.999L163.104 89H161.447L165.093 83.3425L161.447 77.6851H163.115L165.999 82.3591ZM173.597 89H172.194V77.6851H173.597V89Z" fill="#B48AEB"/>
<g clip-path="url(#clip0_239_2381)">
<g filter="url(#filter1_d_239_2381)">
<path d="M226.684 171.027H110.217V180.278H226.684V171.027Z" fill="url(#paint0_linear_239_2381)"/>
</g>
<g filter="url(#filter2_d_239_2381)">
<path d="M155.795 306.342V180.278H181.089V306.342C176.147 311.287 173.383 314.054 168.442 319L155.795 306.342Z" fill="url(#paint1_linear_239_2381)"/>
</g>
<g filter="url(#filter3_d_239_2381)">
<path d="M168.442 133C173.659 133 177.892 137.237 177.892 142.459V171.027H158.991V142.459C158.991 137.237 163.224 133 168.442 133Z" fill="url(#paint2_linear_239_2381)"/>
</g>
<g filter="url(#filter4_d_239_2381)">
<path d="M129.775 227.124H90.6414L110.199 176.37L129.757 227.124H129.775ZM94.7707 224.288H125.663L110.217 184.204L94.7707 224.288Z" fill="url(#paint3_linear_239_2381)"/>
</g>
<g filter="url(#filter5_d_239_2381)">
<path d="M130.138 223.994C130.138 235.373 120.929 244.59 109.56 244.59C98.1916 244.59 89 235.373 89 223.994H130.138Z" fill="url(#paint4_linear_239_2381)"/>
</g>
<g filter="url(#filter6_d_239_2381)">
<path d="M245.551 226.986H206.435L225.993 176.232L245.551 226.986ZM210.547 224.15H241.439L225.993 184.065L210.547 224.15Z" fill="url(#paint5_linear_239_2381)"/>
</g>
<g filter="url(#filter7_d_239_2381)">
<path d="M245.914 223.856C245.914 235.234 236.705 244.451 225.336 244.451C213.968 244.451 204.759 235.234 204.759 223.856H245.896H245.914Z" fill="url(#paint6_linear_239_2381)"/>
</g>
</g>
<defs>
<filter id="filter0_d_239_2381" x="0.5" y="0" width="334" height="462" filterUnits="userSpaceOnUse" color-interpolation-filters="sRGB">
<feFlood flood-opacity="0" result="BackgroundImageFix"/>
<feColorMatrix in="SourceAlpha" type="matrix" values="0 0 0 0 0 0 0 0 0 0 0 0 0 0 0 0 0 0 127 0" result="hardAlpha"/>
<feMorphology radius="15" operator="dilate" in="SourceAlpha" result="effect1_dropShadow_239_2381"/>
<feOffset/>
<feGaussianBlur stdDeviation="17.5"/>
<feComposite in2="hardAlpha" operator="out"/>
<feColorMatrix type="matrix" values="0 0 0 0 0 0 0 0 0 0.192157 0 0 0 0 0.67451 0 0 0 0.3 0"/>
<feBlend mode="normal" in2="BackgroundImageFix" result="effect1_dropShadow_239_2381"/>
<feBlend mode="normal" in="SourceGraphic" in2="effect1_dropShadow_239_2381" result="shape"/>
</filter>
<filter id="filter1_d_239_2381" x="99.3167" y="160.127" width="138.267" height="31.0516" filterUnits="userSpaceOnUse" color-interpolation-filters="sRGB">
<feFlood flood-opacity="0" result="BackgroundImageFix"/>
<feColorMatrix in="SourceAlpha" type="matrix" values="0 0 0 0 0 0 0 0 0 0 0 0 0 0 0 0 0 0 127 0" result="hardAlpha"/>
<feOffset/>
<feGaussianBlur stdDeviation="5.45"/>
<feComposite in2="hardAlpha" operator="out"/>
<feColorMatrix type="matrix" values="0 0 0 0 0.52018 0 0 0 0 0.531966 0 0 0 0 0.97198 0 0 0 0.3 0"/>
<feBlend mode="normal" in2="BackgroundImageFix" result="effect1_dropShadow_239_2381"/>
<feBlend mode="normal" in="SourceGraphic" in2="effect1_dropShadow_239_2381" result="shape"/>
</filter>
<filter id="filter2_d_239_2381" x="144.895" y="169.378" width="47.0942" height="160.522" filterUnits="userSpaceOnUse" color-interpolation-filters="sRGB">
<feFlood flood-opacity="0" result="BackgroundImageFix"/>
<feColorMatrix in="SourceAlpha" type="matrix" values="0 0 0 0 0 0 0 0 0 0 0 0 0 0 0 0 0 0 127 0" result="hardAlpha"/>
<feOffset/>
<feGaussianBlur stdDeviation="5.45"/>
<feComposite in2="hardAlpha" operator="out"/>
<feColorMatrix type="matrix" values="0 0 0 0 0.52018 0 0 0 0 0.531966 0 0 0 0 0.97198 0 0 0 0.3 0"/>
<feBlend mode="normal" in2="BackgroundImageFix" result="effect1_dropShadow_239_2381"/>
<feBlend mode="normal" in="SourceGraphic" in2="effect1_dropShadow_239_2381" result="shape"/>
</filter>
<filter id="filter3_d_239_2381" x="148.091" y="122.1" width="40.7015" height="59.8266" filterUnits="userSpaceOnUse" color-interpolation-filters="sRGB">
<feFlood flood-opacity="0" result="BackgroundImageFix"/>
<feColorMatrix in="SourceAlpha" type="matrix" values="0 0 0 0 0 0 0 0 0 0 0 0 0 0 0 0 0 0 127 0" result="hardAlpha"/>
<feOffset/>
<feGaussianBlur stdDeviation="5.45"/>
<feComposite in2="hardAlpha" operator="out"/>
<feColorMatrix type="matrix" values="0 0 0 0 0.52018 0 0 0 0 0.531966 0 0 0 0 0.97198 0 0 0 0.3 0"/>
<feBlend mode="normal" in2="BackgroundImageFix" result="effect1_dropShadow_239_2381"/>
<feBlend mode="normal" in="SourceGraphic" in2="effect1_dropShadow_239_2381" result="shape"/>
</filter>
<filter id="filter4_d_239_2381" x="79.7414" y="165.47" width="60.9334" height="72.554" filterUnits="userSpaceOnUse" color-interpolation-filters="sRGB">
<feFlood flood-opacity="0" result="BackgroundImageFix"/>
<feColorMatrix in="SourceAlpha" type="matrix" values="0 0 0 0 0 0 0 0 0 0 0 0 0 0 0 0 0 0 127 0" result="hardAlpha"/>
<feOffset/>
<feGaussianBlur stdDeviation="5.45"/>
<feComposite in2="hardAlpha" operator="out"/>
<feColorMatrix type="matrix" values="0 0 0 0 0.52018 0 0 0 0 0.531966 0 0 0 0 0.97198 0 0 0 0.3 0"/>
<feBlend mode="normal" in2="BackgroundImageFix" result="effect1_dropShadow_239_2381"/>
<feBlend mode="normal" in="SourceGraphic" in2="effect1_dropShadow_239_2381" result="shape"/>
</filter>
<filter id="filter5_d_239_2381" x="78.1" y="213.094" width="62.9376" height="42.3956" filterUnits="userSpaceOnUse" color-interpolation-filters="sRGB">
<feFlood flood-opacity="0" result="BackgroundImageFix"/>
<feColorMatrix in="SourceAlpha" type="matrix" values="0 0 0 0 0 0 0 0 0 0 0 0 0 0 0 0 0 0 127 0" result="hardAlpha"/>
<feOffset/>
<feGaussianBlur stdDeviation="5.45"/>
<feComposite in2="hardAlpha" operator="out"/>
<feColorMatrix type="matrix" values="0 0 0 0 0.52018 0 0 0 0 0.531966 0 0 0 0 0.97198 0 0 0 0.3 0"/>
<feBlend mode="normal" in2="BackgroundImageFix" result="effect1_dropShadow_239_2381"/>
<feBlend mode="normal" in="SourceGraphic" in2="effect1_dropShadow_239_2381" result="shape"/>
</filter>
<filter id="filter6_d_239_2381" x="195.535" y="165.332" width="60.9161" height="72.554" filterUnits="userSpaceOnUse" color-interpolation-filters="sRGB">
<feFlood flood-opacity="0" result="BackgroundImageFix"/>
<feColorMatrix in="SourceAlpha" type="matrix" values="0 0 0 0 0 0 0 0 0 0 0 0 0 0 0 0 0 0 127 0" result="hardAlpha"/>
<feOffset/>
<feGaussianBlur stdDeviation="5.45"/>
<feComposite in2="hardAlpha" operator="out"/>
<feColorMatrix type="matrix" values="0 0 0 0 0.52018 0 0 0 0 0.531966 0 0 0 0 0.97198 0 0 0 0.3 0"/>
<feBlend mode="normal" in2="BackgroundImageFix" result="effect1_dropShadow_239_2381"/>
<feBlend mode="normal" in="SourceGraphic" in2="effect1_dropShadow_239_2381" result="shape"/>
</filter>
<filter id="filter7_d_239_2381" x="193.859" y="212.956" width="62.9548" height="42.3956" filterUnits="userSpaceOnUse" color-interpolation-filters="sRGB">
<feFlood flood-opacity="0" result="BackgroundImageFix"/>
<feColorMatrix in="SourceAlpha" type="matrix" values="0 0 0 0 0 0 0 0 0 0 0 0 0 0 0 0 0 0 127 0" result="hardAlpha"/>
<feOffset/>
<feGaussianBlur stdDeviation="5.45"/>
<feComposite in2="hardAlpha" operator="out"/>
<feColorMatrix type="matrix" values="0 0 0 0 0.52018 0 0 0 0 0.531966 0 0 0 0 0.97198 0 0 0 0.3 0"/>
<feBlend mode="normal" in2="BackgroundImageFix" result="effect1_dropShadow_239_2381"/>
<feBlend mode="normal" in="SourceGraphic" in2="effect1_dropShadow_239_2381" result="shape"/>
</filter>
<linearGradient id="paint0_linear_239_2381" x1="153.836" y1="145.257" x2="196.122" y2="201.118" gradientUnits="userSpaceOnUse">
<stop stop-color="#B48AEB"/>
<stop offset="0.5" stop-color="#6C6FDF"/>
<stop offset="1" stop-color="#0031AC"/>
</linearGradient>
<linearGradient id="paint1_linear_239_2381" x1="219.46" y1="197.988" x2="114.044" y2="299.577" gradientUnits="userSpaceOnUse">
<stop stop-color="#0031AC"/>
<stop offset="0.5" stop-color="#6C6FDF"/>
<stop offset="1" stop-color="#B48AEB"/>
</linearGradient>
<linearGradient id="paint2_linear_239_2381" x1="157.246" y1="130.406" x2="177.144" y2="175.354" gradientUnits="userSpaceOnUse">
<stop stop-color="#B48AEB"/>
<stop offset="0.5" stop-color="#6C6FDF"/>
<stop offset="1" stop-color="#0031AC"/>
</linearGradient>
<linearGradient id="paint3_linear_239_2381" x1="102.822" y1="176.232" x2="127.044" y2="223.769" gradientUnits="userSpaceOnUse">
<stop stop-color="#B48AEB"/>
<stop offset="0.5" stop-color="#6C6FDF"/>
<stop offset="1" stop-color="#0031AC"/>
</linearGradient>
<linearGradient id="paint4_linear_239_2381" x1="91.5916" y1="221.192" x2="117.531" y2="247.109" gradientUnits="userSpaceOnUse">
<stop stop-color="#B48AEB"/>
<stop offset="0.5" stop-color="#6C6FDF"/>
<stop offset="1" stop-color="#0031AC"/>
</linearGradient>
<linearGradient id="paint5_linear_239_2381" x1="214.175" y1="176.093" x2="246.178" y2="226.216" gradientUnits="userSpaceOnUse">
<stop stop-color="#B48AEB"/>
<stop offset="0.5" stop-color="#6C6FDF"/>
<stop offset="1" stop-color="#0031AC"/>
</linearGradient>
<linearGradient id="paint6_linear_239_2381" x1="204.759" y1="220.328" x2="235.016" y2="245.376" gradientUnits="userSpaceOnUse">
<stop stop-color="#B48AEB"/>
<stop offset="0.5" stop-color="#6C6FDF"/>
<stop offset="1" stop-color="#0031AC"/>
</linearGradient>
<clipPath id="clip0_239_2381">
<rect width="179" height="208" fill="white" transform="translate(78 122)"/>
</clipPath>
</defs>
</svg>
