<svg width="335" height="462" viewBox="0 0 335 462" fill="none" xmlns="http://www.w3.org/2000/svg">
<g filter="url(#filter0_d_239_2433)">
<rect x="50.5" y="50" width="234" height="362" rx="8" fill="#111111"/>
</g>
<path d="M136.568 372.685H145.336V374.166H141.816V384H140.098V374.166H136.568V372.685ZM148.615 384H146.946V372.685H148.593V376.901H148.698C148.904 376.422 149.213 376.053 149.626 375.796C150.042 375.534 150.571 375.403 151.211 375.403C151.801 375.403 152.313 375.525 152.747 375.768C153.182 376.007 153.519 376.366 153.758 376.845C153.998 377.324 154.118 377.91 154.118 378.602V384H152.449V378.807C152.449 378.188 152.289 377.707 151.968 377.365C151.652 377.018 151.21 376.845 150.642 376.845C150.248 376.845 149.898 376.93 149.593 377.099C149.287 377.265 149.048 377.508 148.874 377.829C148.701 378.145 148.615 378.525 148.615 378.967V384ZM159.797 384.171C158.972 384.171 158.253 383.993 157.642 383.635C157.034 383.274 156.567 382.766 156.239 382.11C155.915 381.451 155.753 380.685 155.753 379.812C155.753 378.95 155.915 378.186 156.239 377.519C156.567 376.853 157.027 376.333 157.62 375.961C158.213 375.589 158.898 375.403 159.675 375.403C160.357 375.403 160.981 375.552 161.548 375.851C162.119 376.145 162.578 376.611 162.924 377.249C163.274 377.886 163.449 378.692 163.449 379.669V380.26H157.41C157.425 380.79 157.533 381.247 157.736 381.63C157.939 382.013 158.217 382.304 158.57 382.503C158.928 382.702 159.34 382.801 159.808 382.801C160.257 382.801 160.638 382.716 160.951 382.547C161.265 382.374 161.497 382.147 161.648 381.867H163.338C163.213 382.331 162.988 382.737 162.664 383.083C162.344 383.429 161.939 383.698 161.449 383.89C160.959 384.077 160.408 384.171 159.797 384.171ZM161.808 379.011C161.808 378.584 161.719 378.201 161.543 377.862C161.366 377.523 161.117 377.258 160.797 377.066C160.48 376.871 160.114 376.773 159.697 376.773C159.266 376.773 158.881 376.875 158.543 377.077C158.207 377.28 157.942 377.552 157.747 377.895C157.552 378.238 157.441 378.61 157.416 379.011H161.808ZM175.307 375.663C175.27 375.32 175.149 375.026 174.942 374.779C174.74 374.532 174.469 374.344 174.13 374.215C173.795 374.083 173.412 374.017 172.981 374.017C172.528 374.017 172.13 374.088 171.788 374.232C171.445 374.376 171.18 374.575 170.992 374.829C170.808 375.079 170.716 375.365 170.716 375.685C170.712 376.164 170.906 376.534 171.296 376.796C171.69 377.053 172.182 377.254 172.771 377.398L173.871 377.685C174.788 377.91 175.559 378.269 176.186 378.762C176.812 379.252 177.125 379.954 177.125 380.867C177.125 381.512 176.959 382.085 176.628 382.586C176.296 383.087 175.814 383.479 175.18 383.762C174.55 384.046 173.801 384.188 172.931 384.188C172.092 384.188 171.361 384.055 170.738 383.79C170.116 383.521 169.628 383.138 169.274 382.641C168.924 382.14 168.731 381.549 168.694 380.867H170.418C170.451 381.262 170.582 381.595 170.81 381.867C171.038 382.14 171.335 382.344 171.699 382.481C172.068 382.613 172.477 382.68 172.926 382.68C173.405 382.68 173.832 382.604 174.208 382.453C174.587 382.298 174.884 382.083 175.097 381.807C175.314 381.53 175.423 381.212 175.423 380.851C175.423 380.534 175.333 380.269 175.152 380.055C174.972 379.842 174.729 379.667 174.423 379.53C174.117 379.39 173.736 379.26 173.279 379.138L171.948 378.779C170.998 378.521 170.268 378.149 169.76 377.663C169.252 377.173 168.998 376.547 168.998 375.785C168.998 375.144 169.173 374.576 169.523 374.083C169.872 373.589 170.353 373.208 170.965 372.939C171.576 372.667 172.261 372.53 173.02 372.53C173.775 372.53 174.449 372.665 175.042 372.934C175.635 373.203 176.101 373.575 176.44 374.05C176.779 374.525 176.955 375.063 176.97 375.663H175.307ZM184.224 375.514H185.881V384H184.251V382.53H184.163C183.957 383.006 183.634 383.389 183.196 383.68C182.761 383.967 182.238 384.11 181.627 384.11C181.074 384.11 180.588 383.989 180.168 383.746C179.748 383.499 179.421 383.136 179.185 382.657C178.953 382.179 178.837 381.597 178.837 380.912V375.514H180.505V380.707C180.505 381.087 180.577 381.42 180.721 381.707C180.865 381.991 181.067 382.21 181.329 382.365C181.59 382.519 181.89 382.597 182.229 382.597C182.553 382.597 182.868 382.517 183.174 382.359C183.48 382.197 183.73 381.958 183.925 381.641C184.124 381.32 184.224 380.932 184.224 380.475V375.514ZM189.584 384H187.915V375.514H189.517V376.901H189.622C189.825 376.433 190.138 376.066 190.561 375.801C190.985 375.536 191.506 375.403 192.125 375.403C192.711 375.403 193.219 375.527 193.65 375.773C194.084 376.017 194.42 376.378 194.655 376.856C194.895 377.335 195.014 377.917 195.014 378.602V384H193.346V378.807C193.346 378.401 193.274 378.052 193.13 377.757C192.991 377.462 192.786 377.238 192.517 377.083C192.248 376.924 191.928 376.845 191.556 376.845C191.169 376.845 190.827 376.93 190.528 377.099C190.234 377.265 190.002 377.508 189.832 377.829C189.666 378.145 189.584 378.525 189.584 378.967V384Z" fill="#B48AEB"/>
<path d="M161.101 82.3591H161.189L164.084 77.6851H165.742L162.184 83.3425L165.742 89H164.084L161.189 84.4144H161.101L158.206 89H156.548L160.195 83.3425L156.548 77.6851H158.217L161.101 82.3591ZM168.699 89H167.295V77.6851H168.699V89ZM174.804 82.3591H174.892L177.787 77.6851H179.445L175.887 83.3425L179.445 89H177.787L174.892 84.4144H174.804L171.909 89H170.251L173.898 83.3425L170.251 77.6851H171.92L174.804 82.3591Z" fill="#B48AEB"/>
<g clip-path="url(#clip0_239_2433)">
<g filter="url(#filter1_d_239_2433)">
<path d="M165.502 137L188.544 190.588L246.475 183.751L211.591 230.502L246.475 277.249L188.544 270.417L165.502 324L142.456 270.417L84.5245 277.249L119.409 230.502L84.5245 183.751L142.456 190.588L165.502 137Z" fill="url(#paint0_linear_239_2433)"/>
</g>
<g filter="url(#filter2_d_239_2433)">
<path d="M212.249 149.525L205.417 207.456L259 230.502L205.417 253.544L212.249 311.475L165.502 276.591L118.751 311.475L125.588 253.544L72 230.502L125.588 207.456L118.751 149.525L165.502 184.409L212.249 149.525Z" fill="url(#paint1_linear_239_2433)"/>
</g>
<g filter="url(#filter3_d_239_2433)">
<path d="M165.502 276.468C190.889 276.468 211.468 255.889 211.468 230.502C211.468 205.116 190.889 184.536 165.502 184.536C140.116 184.536 119.536 205.116 119.536 230.502C119.536 255.889 140.116 276.468 165.502 276.468Z" fill="url(#paint2_linear_239_2433)"/>
</g>
</g>
<defs>
<filter id="filter0_d_239_2433" x="0.5" y="0" width="334" height="462" filterUnits="userSpaceOnUse" color-interpolation-filters="sRGB">
<feFlood flood-opacity="0" result="BackgroundImageFix"/>
<feColorMatrix in="SourceAlpha" type="matrix" values="0 0 0 0 0 0 0 0 0 0 0 0 0 0 0 0 0 0 127 0" result="hardAlpha"/>
<feMorphology radius="15" operator="dilate" in="SourceAlpha" result="effect1_dropShadow_239_2433"/>
<feOffset/>
<feGaussianBlur stdDeviation="17.5"/>
<feComposite in2="hardAlpha" operator="out"/>
<feColorMatrix type="matrix" values="0 0 0 0 0 0 0 0 0 0.192157 0 0 0 0 0.67451 0 0 0 0.3 0"/>
<feBlend mode="normal" in2="BackgroundImageFix" result="effect1_dropShadow_239_2433"/>
<feBlend mode="normal" in="SourceGraphic" in2="effect1_dropShadow_239_2433" result="shape"/>
</filter>
<filter id="filter1_d_239_2433" x="73.6245" y="126.1" width="183.751" height="208.8" filterUnits="userSpaceOnUse" color-interpolation-filters="sRGB">
<feFlood flood-opacity="0" result="BackgroundImageFix"/>
<feColorMatrix in="SourceAlpha" type="matrix" values="0 0 0 0 0 0 0 0 0 0 0 0 0 0 0 0 0 0 127 0" result="hardAlpha"/>
<feOffset/>
<feGaussianBlur stdDeviation="5.45"/>
<feComposite in2="hardAlpha" operator="out"/>
<feColorMatrix type="matrix" values="0 0 0 0 0.52018 0 0 0 0 0.531966 0 0 0 0 0.97198 0 0 0 0.3 0"/>
<feBlend mode="normal" in2="BackgroundImageFix" result="effect1_dropShadow_239_2433"/>
<feBlend mode="normal" in="SourceGraphic" in2="effect1_dropShadow_239_2433" result="shape"/>
</filter>
<filter id="filter2_d_239_2433" x="61.1" y="138.625" width="208.8" height="183.751" filterUnits="userSpaceOnUse" color-interpolation-filters="sRGB">
<feFlood flood-opacity="0" result="BackgroundImageFix"/>
<feColorMatrix in="SourceAlpha" type="matrix" values="0 0 0 0 0 0 0 0 0 0 0 0 0 0 0 0 0 0 127 0" result="hardAlpha"/>
<feOffset/>
<feGaussianBlur stdDeviation="5.45"/>
<feComposite in2="hardAlpha" operator="out"/>
<feColorMatrix type="matrix" values="0 0 0 0 0.52018 0 0 0 0 0.531966 0 0 0 0 0.97198 0 0 0 0.3 0"/>
<feBlend mode="normal" in2="BackgroundImageFix" result="effect1_dropShadow_239_2433"/>
<feBlend mode="normal" in="SourceGraphic" in2="effect1_dropShadow_239_2433" result="shape"/>
</filter>
<filter id="filter3_d_239_2433" x="108.636" y="173.636" width="113.732" height="113.732" filterUnits="userSpaceOnUse" color-interpolation-filters="sRGB">
<feFlood flood-opacity="0" result="BackgroundImageFix"/>
<feColorMatrix in="SourceAlpha" type="matrix" values="0 0 0 0 0 0 0 0 0 0 0 0 0 0 0 0 0 0 127 0" result="hardAlpha"/>
<feOffset/>
<feGaussianBlur stdDeviation="5.45"/>
<feComposite in2="hardAlpha" operator="out"/>
<feColorMatrix type="matrix" values="0 0 0 0 0.52018 0 0 0 0 0.531966 0 0 0 0 0.97198 0 0 0 0.3 0"/>
<feBlend mode="normal" in2="BackgroundImageFix" result="effect1_dropShadow_239_2433"/>
<feBlend mode="normal" in="SourceGraphic" in2="effect1_dropShadow_239_2433" result="shape"/>
</filter>
<linearGradient id="paint0_linear_239_2433" x1="90.8948" y1="121.541" x2="242.79" y2="323.985" gradientUnits="userSpaceOnUse">
<stop stop-color="#0031AC"/>
<stop offset="0.5" stop-color="#6C6FDF"/>
<stop offset="1" stop-color="#B48AEB"/>
</linearGradient>
<linearGradient id="paint1_linear_239_2433" x1="165.5" y1="149.525" x2="165.5" y2="311.475" gradientUnits="userSpaceOnUse">
<stop stop-color="#B48AEB"/>
<stop offset="0.5" stop-color="#6C6FDF"/>
<stop offset="1" stop-color="#0031AC"/>
</linearGradient>
<linearGradient id="paint2_linear_239_2433" x1="134.574" y1="192.948" x2="184.388" y2="276.38" gradientUnits="userSpaceOnUse">
<stop stop-color="#B48AEB"/>
<stop offset="0.5" stop-color="#6C6FDF"/>
<stop offset="1" stop-color="#0031AC"/>
</linearGradient>
<clipPath id="clip0_239_2433">
<rect width="209" height="209" fill="white" transform="translate(61 126)"/>
</clipPath>
</defs>
</svg>
