<svg width="325" height="452" viewBox="0 0 325 452" fill="none" xmlns="http://www.w3.org/2000/svg">
<g filter="url(#filter0_d_239_2458)">
<rect x="45.5" y="45" width="234" height="362" rx="8" fill="#111111"/>
</g>
<path d="M124.326 367.685H133.093V369.166H129.574V379H127.856V369.166H124.326V367.685ZM136.373 379H134.704V367.685H136.35V371.901H136.455C136.662 371.422 136.971 371.053 137.384 370.796C137.8 370.534 138.328 370.403 138.969 370.403C139.559 370.403 140.071 370.525 140.505 370.768C140.94 371.007 141.277 371.366 141.516 371.845C141.756 372.324 141.875 372.91 141.875 373.602V379H140.207V373.807C140.207 373.188 140.047 372.707 139.726 372.365C139.409 372.018 138.967 371.845 138.4 371.845C138.006 371.845 137.656 371.93 137.35 372.099C137.045 372.265 136.805 372.508 136.632 372.829C136.459 373.145 136.373 373.525 136.373 373.967V379ZM147.555 379.171C146.73 379.171 146.011 378.993 145.4 378.635C144.792 378.274 144.324 377.766 143.997 377.11C143.672 376.451 143.51 375.685 143.51 374.812C143.51 373.95 143.672 373.186 143.997 372.519C144.324 371.853 144.785 371.333 145.378 370.961C145.971 370.589 146.656 370.403 147.433 370.403C148.114 370.403 148.739 370.552 149.306 370.851C149.877 371.145 150.335 371.611 150.682 372.249C151.032 372.886 151.206 373.692 151.206 374.669V375.26H145.168C145.183 375.79 145.291 376.247 145.494 376.63C145.696 377.013 145.974 377.304 146.328 377.503C146.685 377.702 147.098 377.801 147.566 377.801C148.015 377.801 148.396 377.716 148.709 377.547C149.022 377.374 149.254 377.147 149.405 376.867H151.096C150.971 377.331 150.746 377.737 150.422 378.083C150.102 378.429 149.696 378.698 149.206 378.89C148.717 379.077 148.166 379.171 147.555 379.171ZM149.566 374.011C149.566 373.584 149.477 373.201 149.3 372.862C149.124 372.523 148.875 372.258 148.555 372.066C148.238 371.871 147.871 371.773 147.455 371.773C147.024 371.773 146.639 371.875 146.3 372.077C145.965 372.28 145.7 372.552 145.505 372.895C145.31 373.238 145.199 373.61 145.173 374.011H149.566ZM155.999 367.685H157.811L160.01 376.431H160.115L162.402 367.685H164.192L166.479 376.436H166.579L168.778 367.685H170.59L167.452 379H165.717L163.341 370.547H163.253L160.877 379H159.137L155.999 367.685ZM174.602 379.171C173.81 379.171 173.114 378.991 172.514 378.63C171.917 378.265 171.455 377.751 171.127 377.088C170.799 376.425 170.635 375.661 170.635 374.796C170.635 373.923 170.799 373.155 171.127 372.492C171.455 371.829 171.917 371.315 172.514 370.95C173.114 370.586 173.81 370.403 174.602 370.403C175.39 370.403 176.083 370.586 176.68 370.95C177.28 371.315 177.742 371.829 178.066 372.492C178.394 373.155 178.558 373.923 178.558 374.796C178.558 375.661 178.394 376.425 178.066 377.088C177.742 377.751 177.28 378.265 176.68 378.63C176.083 378.991 175.39 379.171 174.602 379.171ZM172.315 374.79C172.315 375.346 172.4 375.851 172.569 376.304C172.742 376.757 173 377.116 173.343 377.381C173.689 377.646 174.11 377.779 174.608 377.779C175.101 377.779 175.517 377.646 175.856 377.381C176.199 377.116 176.455 376.757 176.624 376.304C176.794 375.851 176.878 375.346 176.878 374.79C176.878 374.234 176.794 373.729 176.624 373.276C176.455 372.823 176.199 372.462 175.856 372.193C175.517 371.924 175.101 371.79 174.608 371.79C174.11 371.79 173.689 371.924 173.343 372.193C173 372.462 172.742 372.823 172.569 373.276C172.4 373.729 172.315 374.234 172.315 374.79ZM180.204 370.514H181.817V371.867H181.906C182.009 371.565 182.165 371.304 182.375 371.083C182.589 370.858 182.839 370.687 183.127 370.569C183.418 370.448 183.727 370.387 184.055 370.387C184.173 370.387 184.3 370.39 184.436 370.398C184.572 370.405 184.683 370.414 184.768 370.425V372.017C184.676 371.994 184.545 371.972 184.375 371.95C184.21 371.928 184.051 371.917 183.9 371.917C183.517 371.917 183.171 372 182.862 372.166C182.552 372.328 182.309 372.554 182.132 372.845C181.959 373.136 181.873 373.464 181.873 373.829V379H180.204V370.514ZM187.685 379H186.017V367.685H187.685V379ZM192.896 379.166C192.211 379.166 191.6 378.989 191.062 378.635C190.524 378.282 190.103 377.773 189.797 377.11C189.495 376.448 189.344 375.669 189.344 374.773C189.344 373.875 189.497 373.096 189.803 372.436C190.108 371.777 190.532 371.274 191.073 370.928C191.615 370.578 192.228 370.403 192.913 370.403C193.396 370.403 193.799 370.484 194.123 370.646C194.451 370.805 194.701 370.987 194.874 371.193C195.048 371.4 195.208 371.632 195.355 371.89H195.443V367.685H197.112V379H195.482V377.68H195.355C195.211 377.934 195.048 378.166 194.863 378.376C194.679 378.586 194.423 378.77 194.095 378.928C193.771 379.087 193.372 379.166 192.896 379.166ZM191.04 374.757C191.04 375.331 191.125 375.845 191.294 376.298C191.467 376.748 191.722 377.101 192.057 377.359C192.392 377.617 192.797 377.746 193.272 377.746C193.736 377.746 194.134 377.622 194.466 377.376C194.797 377.125 195.049 376.775 195.222 376.326C195.396 375.873 195.482 375.35 195.482 374.757C195.482 374.164 195.396 373.648 195.222 373.21C195.053 372.768 194.803 372.427 194.471 372.188C194.14 371.945 193.74 371.823 193.272 371.823C192.79 371.823 192.381 371.948 192.046 372.199C191.71 372.449 191.458 372.796 191.289 373.238C191.123 373.68 191.04 374.186 191.04 374.757Z" fill="#FFF8E2"/>
<path d="M156.101 77.3591H156.189L159.084 72.6851H160.742L157.184 78.3425L160.742 84H159.084L156.189 79.4144H156.101L153.206 84H151.548L155.195 78.3425L151.548 72.6851H153.217L156.101 77.3591ZM165.898 77.3591H165.986L168.881 72.6851H170.539L166.981 78.3425L170.539 84H168.881L165.986 79.4144H165.898L163.003 84H161.345L164.992 78.3425L161.345 72.6851H163.014L165.898 77.3591ZM173.496 84H172.092V72.6851H173.496V84Z" fill="#FFF8E2"/>
<g clip-path="url(#clip0_239_2458)" filter="url(#filter1_d_239_2458)">
<g filter="url(#filter2_d_239_2458)">
<path d="M163.13 147C206.832 147 242.26 182.428 242.26 226.13C242.26 269.832 206.832 305.26 163.13 305.26C119.428 305.26 84 269.832 84 226.13C84.0001 182.428 119.428 147 163.13 147ZM119.569 211.932C114.798 208.552 108.233 208.635 102.76 210.694C101.142 211.304 99.5882 212.061 98.0996 212.92C97.2953 217.038 96.8701 221.286 96.8701 225.645C96.8701 231.074 97.5267 236.348 98.7656 241.39C101.687 253.33 107.855 263.996 116.287 272.399C125.145 281.228 136.499 287.563 149.193 290.25C154.482 287.701 158.504 282.133 159.53 276.204C160.954 267.967 157.736 259.536 153.039 252.619C150.302 248.593 146.974 244.705 146.077 239.931C145.328 235.988 146.318 231.703 144.653 228.046C143.183 224.832 139.624 222.69 136.092 222.902C132.56 223.115 129.277 225.672 128.214 229.043C126.744 222.662 124.913 215.718 119.569 211.932ZM166.55 159.25C163.096 162.537 159.9 166.102 157.859 170.39C155.08 176.214 154.932 183.79 159.227 188.596C162.45 192.198 167.501 193.642 170.937 197.031C175.249 201.272 176.311 207.727 177.161 213.718C177.918 219.144 178.103 225.895 173.421 228.72C171.057 230.136 167.696 230.349 166.439 232.803C165.451 234.747 166.449 237.22 168.12 238.6C169.801 239.989 171.989 240.536 174.095 241.045C182.056 242.962 190.783 244.804 198.116 241.165C200.333 240.063 202.3 238.507 204.239 236.961L214.962 228.433C219.644 224.701 224.437 220.857 227.494 215.699C228.011 214.829 228.464 213.931 228.87 213.005C223.227 183.187 197.645 160.435 166.55 159.25Z" fill="url(#paint0_linear_239_2458)"/>
</g>
</g>
<defs>
<filter id="filter0_d_239_2458" x="0.5" y="0" width="324" height="452" filterUnits="userSpaceOnUse" color-interpolation-filters="sRGB">
<feFlood flood-opacity="0" result="BackgroundImageFix"/>
<feColorMatrix in="SourceAlpha" type="matrix" values="0 0 0 0 0 0 0 0 0 0 0 0 0 0 0 0 0 0 127 0" result="hardAlpha"/>
<feMorphology radius="10" operator="dilate" in="SourceAlpha" result="effect1_dropShadow_239_2458"/>
<feOffset/>
<feGaussianBlur stdDeviation="17.5"/>
<feComposite in2="hardAlpha" operator="out"/>
<feColorMatrix type="matrix" values="0 0 0 0 0.792157 0 0 0 0 0.956863 0 0 0 0 0.862745 0 0 0 0.3 0"/>
<feBlend mode="normal" in2="BackgroundImageFix" result="effect1_dropShadow_239_2458"/>
<feBlend mode="normal" in="SourceGraphic" in2="effect1_dropShadow_239_2458" result="shape"/>
</filter>
<filter id="filter1_d_239_2458" x="62.1" y="125.1" width="202.8" height="202.8" filterUnits="userSpaceOnUse" color-interpolation-filters="sRGB">
<feFlood flood-opacity="0" result="BackgroundImageFix"/>
<feColorMatrix in="SourceAlpha" type="matrix" values="0 0 0 0 0 0 0 0 0 0 0 0 0 0 0 0 0 0 127 0" result="hardAlpha"/>
<feOffset/>
<feGaussianBlur stdDeviation="5.45"/>
<feComposite in2="hardAlpha" operator="out"/>
<feColorMatrix type="matrix" values="0 0 0 0 0.52018 0 0 0 0 0.531966 0 0 0 0 0.97198 0 0 0 0.3 0"/>
<feBlend mode="normal" in2="BackgroundImageFix" result="effect1_dropShadow_239_2458"/>
<feBlend mode="normal" in="SourceGraphic" in2="effect1_dropShadow_239_2458" result="shape"/>
</filter>
<filter id="filter2_d_239_2458" x="73.1" y="136.1" width="180.06" height="180.06" filterUnits="userSpaceOnUse" color-interpolation-filters="sRGB">
<feFlood flood-opacity="0" result="BackgroundImageFix"/>
<feColorMatrix in="SourceAlpha" type="matrix" values="0 0 0 0 0 0 0 0 0 0 0 0 0 0 0 0 0 0 127 0" result="hardAlpha"/>
<feOffset/>
<feGaussianBlur stdDeviation="5.45"/>
<feComposite in2="hardAlpha" operator="out"/>
<feColorMatrix type="matrix" values="0 0 0 0 0.52018 0 0 0 0 0.531966 0 0 0 0 0.97198 0 0 0 0.3 0"/>
<feBlend mode="normal" in2="BackgroundImageFix" result="effect1_dropShadow_239_2458"/>
<feBlend mode="normal" in="SourceGraphic" in2="effect1_dropShadow_239_2458" result="shape"/>
</filter>
<linearGradient id="paint0_linear_239_2458" x1="99" y1="134" x2="209.5" y2="305" gradientUnits="userSpaceOnUse">
<stop stop-color="#FFF8E2"/>
<stop offset="0.5" stop-color="#CAF4DC"/>
<stop offset="1" stop-color="#75AFFF"/>
</linearGradient>
<clipPath id="clip0_239_2458">
<rect width="181" height="181" fill="white" transform="translate(73 136)"/>
</clipPath>
</defs>
</svg>
