<svg width="335" height="462" viewBox="0 0 335 462" fill="none" xmlns="http://www.w3.org/2000/svg">
<g filter="url(#filter0_d_239_2344)">
<rect x="50.5" y="50" width="234" height="362" rx="8" fill="#111111"/>
</g>
<g clip-path="url(#clip0_239_2344)">
<g filter="url(#filter1_d_239_2344)">
<path d="M167.504 292C210.309 292 245.009 282.254 245.009 270.231C245.009 258.208 210.309 248.462 167.504 248.462C124.7 248.462 90 258.208 90 270.231C90 282.254 124.7 292 167.504 292Z" fill="url(#paint0_linear_239_2344)"/>
</g>
<g filter="url(#filter2_d_239_2344)">
<path d="M206.239 135L174.387 158.743L161.547 168.293C156.394 172.128 152.322 177.2 149.702 183.043L114.97 260.449C113.993 262.628 114.832 265.228 116.898 266.37C150.636 284.972 184.373 284.972 218.11 266.37C220.177 265.228 221.016 262.637 220.038 260.449L189.639 192.688L208.193 136.39" fill="url(#paint1_linear_239_2344)"/>
</g>
</g>
<path d="M117.193 372.685H125.961V374.166H122.441V384H120.723V374.166H117.193V372.685ZM129.24 384H127.571V372.685H129.218V376.901H129.323C129.529 376.422 129.838 376.053 130.251 375.796C130.667 375.534 131.196 375.403 131.836 375.403C132.426 375.403 132.938 375.525 133.372 375.768C133.807 376.007 134.144 376.366 134.383 376.845C134.623 377.324 134.743 377.91 134.743 378.602V384H133.074V378.807C133.074 378.188 132.914 377.707 132.593 377.365C132.277 377.018 131.835 376.845 131.267 376.845C130.873 376.845 130.523 376.93 130.218 377.099C129.912 377.265 129.673 377.508 129.499 377.829C129.326 378.145 129.24 378.525 129.24 378.967V384ZM140.422 384.171C139.597 384.171 138.878 383.993 138.267 383.635C137.659 383.274 137.192 382.766 136.864 382.11C136.54 381.451 136.378 380.685 136.378 379.812C136.378 378.95 136.54 378.186 136.864 377.519C137.192 376.853 137.652 376.333 138.245 375.961C138.838 375.589 139.523 375.403 140.3 375.403C140.982 375.403 141.606 375.552 142.173 375.851C142.744 376.145 143.203 376.611 143.549 377.249C143.899 377.886 144.074 378.692 144.074 379.669V380.26H138.035C138.05 380.79 138.158 381.247 138.361 381.63C138.564 382.013 138.842 382.304 139.195 382.503C139.553 382.702 139.965 382.801 140.433 382.801C140.882 382.801 141.263 382.716 141.576 382.547C141.89 382.374 142.122 382.147 142.273 381.867H143.963C143.838 382.331 143.613 382.737 143.289 383.083C142.969 383.429 142.564 383.698 142.074 383.89C141.584 384.077 141.033 384.171 140.422 384.171ZM142.433 379.011C142.433 378.584 142.344 378.201 142.168 377.862C141.991 377.523 141.742 377.258 141.422 377.066C141.105 376.871 140.739 376.773 140.322 376.773C139.891 376.773 139.506 376.875 139.168 377.077C138.832 377.28 138.567 377.552 138.372 377.895C138.177 378.238 138.066 378.61 138.041 379.011H142.433ZM151.86 372.685L155.451 381.453H155.584L159.17 372.685H161.264V384H159.623V375.834H159.518L156.192 383.983H154.833L151.507 375.818H151.413V384H149.766V372.685H151.86ZM163.033 381.602C163.033 380.729 163.329 380.105 163.922 379.729C164.519 379.354 165.28 379.133 166.204 379.066C166.565 379.044 166.957 379.022 167.381 379C167.804 378.978 168.156 378.961 168.436 378.95V378.26C168.436 377.777 168.289 377.405 167.994 377.144C167.7 376.882 167.27 376.751 166.707 376.751C166.232 376.751 165.843 376.849 165.541 377.044C165.243 377.239 165.049 377.501 164.961 377.829H163.298C163.35 377.361 163.525 376.943 163.823 376.575C164.121 376.206 164.523 375.919 165.027 375.713C165.536 375.506 166.116 375.403 166.768 375.403C167.305 375.403 167.823 375.486 168.32 375.652C168.817 375.818 169.237 376.122 169.58 376.564C169.926 377.002 170.099 377.602 170.099 378.365V384H168.475V382.84H168.409C168.291 383.076 168.121 383.295 167.9 383.497C167.683 383.7 167.405 383.866 167.066 383.994C166.731 384.123 166.342 384.188 165.9 384.188C165.355 384.188 164.865 384.087 164.431 383.884C164 383.681 163.659 383.385 163.409 382.994C163.158 382.604 163.033 382.14 163.033 381.602ZM164.668 381.624C164.668 382.022 164.814 382.328 165.105 382.541C165.399 382.751 165.788 382.856 166.27 382.856C166.709 382.856 167.092 382.768 167.42 382.591C167.751 382.414 168.003 382.18 168.176 381.89C168.353 381.595 168.442 381.278 168.442 380.939V380.166C168.162 380.18 167.495 380.225 166.442 380.298C165.878 380.339 165.442 380.47 165.132 380.691C164.823 380.908 164.668 381.219 164.668 381.624ZM175.687 387.359C174.973 387.359 174.345 387.258 173.803 387.055C173.265 386.856 172.838 386.565 172.521 386.182C172.208 385.803 172.028 385.35 171.98 384.823H173.682C173.759 385.221 173.973 385.519 174.323 385.718C174.676 385.921 175.137 386.022 175.704 386.022C176.389 386.022 176.919 385.866 177.295 385.552C177.674 385.243 177.864 384.766 177.864 384.122V382.453H177.753C177.544 382.843 177.253 383.179 176.881 383.459C176.509 383.735 175.98 383.873 175.295 383.873C174.617 383.873 174.009 383.709 173.472 383.381C172.938 383.053 172.516 382.573 172.207 381.939C171.897 381.306 171.742 380.549 171.742 379.669C171.742 378.788 171.895 378.028 172.201 377.387C172.507 376.742 172.928 376.25 173.466 375.912C174.008 375.573 174.623 375.403 175.312 375.403C175.794 375.403 176.199 375.484 176.527 375.646C176.855 375.805 177.107 375.987 177.284 376.193C177.461 376.4 177.623 376.632 177.77 376.89H177.881V375.514H179.51V384.182C179.51 384.886 179.346 385.475 179.019 385.95C178.691 386.425 178.24 386.779 177.665 387.011C177.094 387.243 176.435 387.359 175.687 387.359ZM173.439 379.702C173.439 380.262 173.523 380.751 173.693 381.171C173.862 381.591 174.114 381.917 174.45 382.149C174.785 382.381 175.192 382.497 175.671 382.497C176.138 382.497 176.538 382.387 176.87 382.166C177.201 381.945 177.451 381.624 177.621 381.204C177.794 380.785 177.881 380.284 177.881 379.702C177.881 379.127 177.794 378.624 177.621 378.193C177.451 377.759 177.201 377.422 176.87 377.182C176.538 376.943 176.138 376.823 175.671 376.823C175.188 376.823 174.779 376.948 174.444 377.199C174.113 377.446 173.862 377.786 173.693 378.221C173.523 378.656 173.439 379.149 173.439 379.702ZM181.54 375.514H183.209V384H181.54V375.514ZM182.385 374.21C182.194 374.21 182.017 374.166 181.855 374.077C181.697 373.989 181.569 373.869 181.474 373.718C181.378 373.567 181.33 373.401 181.33 373.221C181.33 373.041 181.378 372.875 181.474 372.724C181.569 372.573 181.697 372.453 181.855 372.365C182.017 372.276 182.194 372.232 182.385 372.232C182.573 372.232 182.746 372.276 182.905 372.365C183.067 372.453 183.194 372.573 183.286 372.724C183.382 372.875 183.43 373.041 183.43 373.221C183.43 373.401 183.382 373.567 183.286 373.718C183.194 373.869 183.067 373.989 182.905 374.077C182.746 374.166 182.573 374.21 182.385 374.21ZM188.829 384.171C188.022 384.171 187.319 383.987 186.718 383.619C186.122 383.247 185.663 382.729 185.343 382.066C185.022 381.403 184.862 380.646 184.862 379.796C184.862 378.937 185.024 378.177 185.348 377.514C185.676 376.847 186.138 376.33 186.735 375.961C187.332 375.589 188.024 375.403 188.812 375.403C189.449 375.403 190.022 375.523 190.53 375.762C191.042 375.998 191.453 376.331 191.762 376.762C192.076 377.193 192.26 377.692 192.315 378.26H190.696C190.634 377.987 190.521 377.74 190.359 377.519C190.201 377.298 189.991 377.123 189.729 376.994C189.471 376.866 189.173 376.801 188.834 376.801C188.378 376.801 187.976 376.923 187.63 377.166C187.284 377.405 187.015 377.748 186.823 378.193C186.635 378.639 186.541 379.16 186.541 379.757C186.541 380.368 186.635 380.901 186.823 381.354C187.011 381.803 187.278 382.149 187.624 382.392C187.971 382.635 188.374 382.757 188.834 382.757C189.309 382.757 189.713 382.63 190.044 382.376C190.376 382.122 190.593 381.766 190.696 381.309H192.315C192.256 381.862 192.076 382.355 191.774 382.79C191.475 383.221 191.074 383.56 190.569 383.807C190.065 384.05 189.484 384.171 188.829 384.171ZM193.899 375.514H195.568V384H193.899V375.514ZM194.745 374.21C194.553 374.21 194.376 374.166 194.214 374.077C194.056 373.989 193.929 373.869 193.833 373.718C193.737 373.567 193.689 373.401 193.689 373.221C193.689 373.041 193.737 372.875 193.833 372.724C193.929 372.573 194.056 372.453 194.214 372.365C194.376 372.276 194.553 372.232 194.745 372.232C194.933 372.232 195.106 372.276 195.264 372.365C195.426 372.453 195.553 372.573 195.645 372.724C195.741 372.875 195.789 373.041 195.789 373.221C195.789 373.401 195.741 373.567 195.645 373.718C195.553 373.869 195.426 373.989 195.264 374.077C195.106 374.166 194.933 374.21 194.745 374.21ZM197.205 381.602C197.205 380.729 197.501 380.105 198.094 379.729C198.691 379.354 199.451 379.133 200.376 379.066C200.737 379.044 201.129 379.022 201.553 379C201.976 378.978 202.328 378.961 202.608 378.95V378.26C202.608 377.777 202.461 377.405 202.166 377.144C201.871 376.882 201.442 376.751 200.879 376.751C200.404 376.751 200.015 376.849 199.713 377.044C199.415 377.239 199.221 377.501 199.133 377.829H197.47C197.521 377.361 197.696 376.943 197.995 376.575C198.293 376.206 198.695 375.919 199.199 375.713C199.707 375.506 200.288 375.403 200.94 375.403C201.477 375.403 201.995 375.486 202.492 375.652C202.989 375.818 203.409 376.122 203.752 376.564C204.098 377.002 204.271 377.602 204.271 378.365V384H202.647V382.84H202.58C202.463 383.076 202.293 383.295 202.072 383.497C201.855 383.7 201.577 383.866 201.238 383.994C200.903 384.123 200.514 384.188 200.072 384.188C199.527 384.188 199.037 384.087 198.603 383.884C198.172 383.681 197.831 383.385 197.58 382.994C197.33 382.604 197.205 382.14 197.205 381.602ZM198.84 381.624C198.84 382.022 198.986 382.328 199.277 382.541C199.571 382.751 199.96 382.856 200.442 382.856C200.881 382.856 201.264 382.768 201.591 382.591C201.923 382.414 202.175 382.18 202.348 381.89C202.525 381.595 202.614 381.278 202.614 380.939V380.166C202.334 380.18 201.667 380.225 200.614 380.298C200.05 380.339 199.614 380.47 199.304 380.691C198.995 380.908 198.84 381.219 198.84 381.624ZM207.959 384H206.29V375.514H207.892V376.901H207.997C208.2 376.433 208.513 376.066 208.936 375.801C209.36 375.536 209.881 375.403 210.5 375.403C211.086 375.403 211.594 375.527 212.025 375.773C212.459 376.017 212.795 376.378 213.03 376.856C213.27 377.335 213.389 377.917 213.389 378.602V384H211.721V378.807C211.721 378.401 211.649 378.052 211.505 377.757C211.366 377.462 211.161 377.238 210.892 377.083C210.623 376.924 210.303 376.845 209.931 376.845C209.544 376.845 209.202 376.93 208.903 377.099C208.609 377.265 208.377 377.508 208.207 377.829C208.041 378.145 207.959 378.525 207.959 378.967V384Z" fill="#B48AEB"/>
<path d="M168.699 89H167.295V77.6851H168.699V89Z" fill="#B48AEB"/>
<defs>
<filter id="filter0_d_239_2344" x="0.5" y="0" width="334" height="462" filterUnits="userSpaceOnUse" color-interpolation-filters="sRGB">
<feFlood flood-opacity="0" result="BackgroundImageFix"/>
<feColorMatrix in="SourceAlpha" type="matrix" values="0 0 0 0 0 0 0 0 0 0 0 0 0 0 0 0 0 0 127 0" result="hardAlpha"/>
<feMorphology radius="15" operator="dilate" in="SourceAlpha" result="effect1_dropShadow_239_2344"/>
<feOffset/>
<feGaussianBlur stdDeviation="17.5"/>
<feComposite in2="hardAlpha" operator="out"/>
<feColorMatrix type="matrix" values="0 0 0 0 0 0 0 0 0 0.192157 0 0 0 0 0.67451 0 0 0 0.3 0"/>
<feBlend mode="normal" in2="BackgroundImageFix" result="effect1_dropShadow_239_2344"/>
<feBlend mode="normal" in="SourceGraphic" in2="effect1_dropShadow_239_2344" result="shape"/>
</filter>
<filter id="filter1_d_239_2344" x="79.1" y="237.562" width="176.809" height="65.3382" filterUnits="userSpaceOnUse" color-interpolation-filters="sRGB">
<feFlood flood-opacity="0" result="BackgroundImageFix"/>
<feColorMatrix in="SourceAlpha" type="matrix" values="0 0 0 0 0 0 0 0 0 0 0 0 0 0 0 0 0 0 127 0" result="hardAlpha"/>
<feOffset/>
<feGaussianBlur stdDeviation="5.45"/>
<feComposite in2="hardAlpha" operator="out"/>
<feColorMatrix type="matrix" values="0 0 0 0 0.52018 0 0 0 0 0.531966 0 0 0 0 0.97198 0 0 0 0.3 0"/>
<feBlend mode="normal" in2="BackgroundImageFix" result="effect1_dropShadow_239_2344"/>
<feBlend mode="normal" in="SourceGraphic" in2="effect1_dropShadow_239_2344" result="shape"/>
</filter>
<filter id="filter2_d_239_2344" x="103.664" y="124.1" width="127.681" height="167.122" filterUnits="userSpaceOnUse" color-interpolation-filters="sRGB">
<feFlood flood-opacity="0" result="BackgroundImageFix"/>
<feColorMatrix in="SourceAlpha" type="matrix" values="0 0 0 0 0 0 0 0 0 0 0 0 0 0 0 0 0 0 127 0" result="hardAlpha"/>
<feOffset/>
<feGaussianBlur stdDeviation="5.45"/>
<feComposite in2="hardAlpha" operator="out"/>
<feColorMatrix type="matrix" values="0 0 0 0 0.52018 0 0 0 0 0.531966 0 0 0 0 0.97198 0 0 0 0.3 0"/>
<feBlend mode="normal" in2="BackgroundImageFix" result="effect1_dropShadow_239_2344"/>
<feBlend mode="normal" in="SourceGraphic" in2="effect1_dropShadow_239_2344" result="shape"/>
</filter>
<linearGradient id="paint0_linear_239_2344" x1="111.615" y1="248.264" x2="244.677" y2="276.995" gradientUnits="userSpaceOnUse">
<stop stop-color="#B48AEB"/>
<stop offset="0.5" stop-color="#6C6FDF"/>
<stop offset="1" stop-color="#0031AC"/>
</linearGradient>
<linearGradient id="paint1_linear_239_2344" x1="156.143" y1="156.452" x2="225.419" y2="266.76" gradientUnits="userSpaceOnUse">
<stop stop-color="#B48AEB"/>
<stop offset="0.5" stop-color="#6C6FDF"/>
<stop offset="1" stop-color="#0031AC"/>
</linearGradient>
<clipPath id="clip0_239_2344">
<rect width="177" height="179" fill="white" transform="translate(79 124)"/>
</clipPath>
</defs>
</svg>
