<svg width="335" height="462" viewBox="0 0 335 462" fill="none" xmlns="http://www.w3.org/2000/svg">
<g filter="url(#filter0_d_239_2449)">
<rect x="50.5" y="50" width="234" height="362" rx="8" fill="#111111"/>
</g>
<path d="M129.326 372.685H138.093V374.166H134.574V384H132.856V374.166H129.326V372.685ZM141.373 384H139.704V372.685H141.35V376.901H141.455C141.662 376.422 141.971 376.053 142.384 375.796C142.8 375.534 143.328 375.403 143.969 375.403C144.559 375.403 145.071 375.525 145.505 375.768C145.94 376.007 146.277 376.366 146.516 376.845C146.756 377.324 146.875 377.91 146.875 378.602V384H145.207V378.807C145.207 378.188 145.047 377.707 144.726 377.365C144.409 377.018 143.967 376.845 143.4 376.845C143.006 376.845 142.656 376.93 142.35 377.099C142.045 377.265 141.805 377.508 141.632 377.829C141.459 378.145 141.373 378.525 141.373 378.967V384ZM152.555 384.171C151.73 384.171 151.011 383.993 150.4 383.635C149.792 383.274 149.324 382.766 148.997 382.11C148.672 381.451 148.51 380.685 148.51 379.812C148.51 378.95 148.672 378.186 148.997 377.519C149.324 376.853 149.785 376.333 150.378 375.961C150.971 375.589 151.656 375.403 152.433 375.403C153.114 375.403 153.739 375.552 154.306 375.851C154.877 376.145 155.335 376.611 155.682 377.249C156.032 377.886 156.206 378.692 156.206 379.669V380.26H150.168C150.183 380.79 150.291 381.247 150.494 381.63C150.696 382.013 150.974 382.304 151.328 382.503C151.685 382.702 152.098 382.801 152.566 382.801C153.015 382.801 153.396 382.716 153.709 382.547C154.022 382.374 154.254 382.147 154.405 381.867H156.096C155.971 382.331 155.746 382.737 155.422 383.083C155.102 383.429 154.696 383.698 154.206 383.89C153.717 384.077 153.166 384.171 152.555 384.171ZM154.566 379.011C154.566 378.584 154.477 378.201 154.3 377.862C154.124 377.523 153.875 377.258 153.555 377.066C153.238 376.871 152.871 376.773 152.455 376.773C152.024 376.773 151.639 376.875 151.3 377.077C150.965 377.28 150.7 377.552 150.505 377.895C150.31 378.238 150.199 378.61 150.173 379.011H154.566ZM160.999 372.685H162.811L165.01 381.431H165.115L167.402 372.685H169.192L171.479 381.436H171.579L173.778 372.685H175.59L172.452 384H170.717L168.341 375.547H168.253L165.877 384H164.137L160.999 372.685ZM179.602 384.171C178.81 384.171 178.114 383.991 177.514 383.63C176.917 383.265 176.455 382.751 176.127 382.088C175.799 381.425 175.635 380.661 175.635 379.796C175.635 378.923 175.799 378.155 176.127 377.492C176.455 376.829 176.917 376.315 177.514 375.95C178.114 375.586 178.81 375.403 179.602 375.403C180.39 375.403 181.083 375.586 181.68 375.95C182.28 376.315 182.742 376.829 183.066 377.492C183.394 378.155 183.558 378.923 183.558 379.796C183.558 380.661 183.394 381.425 183.066 382.088C182.742 382.751 182.28 383.265 181.68 383.63C181.083 383.991 180.39 384.171 179.602 384.171ZM177.315 379.79C177.315 380.346 177.4 380.851 177.569 381.304C177.742 381.757 178 382.116 178.343 382.381C178.689 382.646 179.11 382.779 179.608 382.779C180.101 382.779 180.517 382.646 180.856 382.381C181.199 382.116 181.455 381.757 181.624 381.304C181.794 380.851 181.878 380.346 181.878 379.79C181.878 379.234 181.794 378.729 181.624 378.276C181.455 377.823 181.199 377.462 180.856 377.193C180.517 376.924 180.101 376.79 179.608 376.79C179.11 376.79 178.689 376.924 178.343 377.193C178 377.462 177.742 377.823 177.569 378.276C177.4 378.729 177.315 379.234 177.315 379.79ZM185.204 375.514H186.817V376.867H186.906C187.009 376.565 187.165 376.304 187.375 376.083C187.589 375.858 187.839 375.687 188.127 375.569C188.418 375.448 188.727 375.387 189.055 375.387C189.173 375.387 189.3 375.39 189.436 375.398C189.572 375.405 189.683 375.414 189.768 375.425V377.017C189.676 376.994 189.545 376.972 189.375 376.95C189.21 376.928 189.051 376.917 188.9 376.917C188.517 376.917 188.171 377 187.862 377.166C187.552 377.328 187.309 377.554 187.132 377.845C186.959 378.136 186.873 378.464 186.873 378.829V384H185.204V375.514ZM192.685 384H191.017V372.685H192.685V384ZM197.896 384.166C197.211 384.166 196.6 383.989 196.062 383.635C195.524 383.282 195.103 382.773 194.797 382.11C194.495 381.448 194.344 380.669 194.344 379.773C194.344 378.875 194.497 378.096 194.803 377.436C195.108 376.777 195.532 376.274 196.073 375.928C196.615 375.578 197.228 375.403 197.913 375.403C198.396 375.403 198.799 375.484 199.123 375.646C199.451 375.805 199.701 375.987 199.874 376.193C200.048 376.4 200.208 376.632 200.355 376.89H200.443V372.685H202.112V384H200.482V382.68H200.355C200.211 382.934 200.048 383.166 199.863 383.376C199.679 383.586 199.423 383.77 199.095 383.928C198.771 384.087 198.372 384.166 197.896 384.166ZM196.04 379.757C196.04 380.331 196.125 380.845 196.294 381.298C196.467 381.748 196.722 382.101 197.057 382.359C197.392 382.617 197.797 382.746 198.272 382.746C198.736 382.746 199.134 382.622 199.466 382.376C199.797 382.125 200.049 381.775 200.222 381.326C200.396 380.873 200.482 380.35 200.482 379.757C200.482 379.164 200.396 378.648 200.222 378.21C200.053 377.768 199.803 377.427 199.471 377.188C199.14 376.945 198.74 376.823 198.272 376.823C197.79 376.823 197.381 376.948 197.046 377.199C196.71 377.449 196.458 377.796 196.289 378.238C196.123 378.68 196.04 379.186 196.04 379.757Z" fill="#B48AEB"/>
<path d="M161.101 82.3591H161.189L164.084 77.6851H165.742L162.184 83.3425L165.742 89H164.084L161.189 84.4144H161.101L158.206 89H156.548L160.195 83.3425L156.548 77.6851H158.217L161.101 82.3591ZM170.898 82.3591H170.986L173.881 77.6851H175.539L171.981 83.3425L175.539 89H173.881L170.986 84.4144H170.898L168.003 89H166.345L169.992 83.3425L166.345 77.6851H168.014L170.898 82.3591ZM178.496 89H177.092V77.6851H178.496V89Z" fill="#B48AEB"/>
<g clip-path="url(#clip0_239_2449)" filter="url(#filter1_d_239_2449)">
<g filter="url(#filter2_d_239_2449)">
<path d="M168.13 152C211.832 152 247.26 187.428 247.26 231.13C247.26 274.832 211.832 310.26 168.13 310.26C124.428 310.26 89 274.832 89 231.13C89.0001 187.428 124.428 152 168.13 152ZM124.569 216.932C119.798 213.552 113.233 213.635 107.76 215.694C106.142 216.304 104.588 217.061 103.1 217.92C102.295 222.038 101.87 226.286 101.87 230.645C101.87 236.074 102.527 241.348 103.766 246.39C106.687 258.33 112.855 268.996 121.287 277.399C130.145 286.228 141.499 292.563 154.193 295.25C159.482 292.701 163.504 287.133 164.53 281.204C165.954 272.967 162.736 264.536 158.039 257.619C155.302 253.593 151.974 249.705 151.077 244.931C150.328 240.988 151.318 236.703 149.653 233.046C148.183 229.832 144.624 227.69 141.092 227.902C137.56 228.115 134.277 230.672 133.214 234.043C131.744 227.662 129.913 220.718 124.569 216.932ZM171.55 164.25C168.096 167.537 164.9 171.102 162.859 175.39C160.08 181.214 159.932 188.79 164.227 193.596C167.45 197.198 172.501 198.642 175.937 202.031C180.249 206.272 181.311 212.727 182.161 218.718C182.918 224.144 183.103 230.895 178.421 233.72C176.057 235.136 172.696 235.349 171.439 237.803C170.451 239.747 171.449 242.22 173.12 243.6C174.801 244.989 176.989 245.536 179.095 246.045C187.056 247.962 195.783 249.804 203.116 246.165C205.333 245.063 207.3 243.507 209.239 241.961L219.962 233.433C224.644 229.701 229.437 225.857 232.494 220.699C233.011 219.829 233.464 218.931 233.87 218.005C228.227 188.187 202.645 165.435 171.55 164.25Z" fill="url(#paint0_linear_239_2449)"/>
</g>
</g>
<defs>
<filter id="filter0_d_239_2449" x="0.5" y="0" width="334" height="462" filterUnits="userSpaceOnUse" color-interpolation-filters="sRGB">
<feFlood flood-opacity="0" result="BackgroundImageFix"/>
<feColorMatrix in="SourceAlpha" type="matrix" values="0 0 0 0 0 0 0 0 0 0 0 0 0 0 0 0 0 0 127 0" result="hardAlpha"/>
<feMorphology radius="15" operator="dilate" in="SourceAlpha" result="effect1_dropShadow_239_2449"/>
<feOffset/>
<feGaussianBlur stdDeviation="17.5"/>
<feComposite in2="hardAlpha" operator="out"/>
<feColorMatrix type="matrix" values="0 0 0 0 0 0 0 0 0 0.192157 0 0 0 0 0.67451 0 0 0 0.3 0"/>
<feBlend mode="normal" in2="BackgroundImageFix" result="effect1_dropShadow_239_2449"/>
<feBlend mode="normal" in="SourceGraphic" in2="effect1_dropShadow_239_2449" result="shape"/>
</filter>
<filter id="filter1_d_239_2449" x="67.1" y="130.1" width="202.8" height="202.8" filterUnits="userSpaceOnUse" color-interpolation-filters="sRGB">
<feFlood flood-opacity="0" result="BackgroundImageFix"/>
<feColorMatrix in="SourceAlpha" type="matrix" values="0 0 0 0 0 0 0 0 0 0 0 0 0 0 0 0 0 0 127 0" result="hardAlpha"/>
<feOffset/>
<feGaussianBlur stdDeviation="5.45"/>
<feComposite in2="hardAlpha" operator="out"/>
<feColorMatrix type="matrix" values="0 0 0 0 0.52018 0 0 0 0 0.531966 0 0 0 0 0.97198 0 0 0 0.3 0"/>
<feBlend mode="normal" in2="BackgroundImageFix" result="effect1_dropShadow_239_2449"/>
<feBlend mode="normal" in="SourceGraphic" in2="effect1_dropShadow_239_2449" result="shape"/>
</filter>
<filter id="filter2_d_239_2449" x="78.1" y="141.1" width="180.06" height="180.06" filterUnits="userSpaceOnUse" color-interpolation-filters="sRGB">
<feFlood flood-opacity="0" result="BackgroundImageFix"/>
<feColorMatrix in="SourceAlpha" type="matrix" values="0 0 0 0 0 0 0 0 0 0 0 0 0 0 0 0 0 0 127 0" result="hardAlpha"/>
<feOffset/>
<feGaussianBlur stdDeviation="5.45"/>
<feComposite in2="hardAlpha" operator="out"/>
<feColorMatrix type="matrix" values="0 0 0 0 0.52018 0 0 0 0 0.531966 0 0 0 0 0.97198 0 0 0 0.3 0"/>
<feBlend mode="normal" in2="BackgroundImageFix" result="effect1_dropShadow_239_2449"/>
<feBlend mode="normal" in="SourceGraphic" in2="effect1_dropShadow_239_2449" result="shape"/>
</filter>
<linearGradient id="paint0_linear_239_2449" x1="104" y1="139" x2="214.5" y2="310" gradientUnits="userSpaceOnUse">
<stop stop-color="#B48AEB"/>
<stop offset="0.5" stop-color="#6C6FDF"/>
<stop offset="1" stop-color="#0031AC"/>
</linearGradient>
<clipPath id="clip0_239_2449">
<rect width="181" height="181" fill="white" transform="translate(78 141)"/>
</clipPath>
</defs>
</svg>
