<svg width="335" height="462" viewBox="0 0 335 462" fill="none" xmlns="http://www.w3.org/2000/svg">
<g filter="url(#filter0_d_239_2351)">
<rect x="50.5" y="50" width="234" height="362" rx="8" fill="#111111"/>
</g>
<path d="M126.193 372.685H134.961V374.166H131.441V384H129.723V374.166H126.193V372.685ZM138.24 384H136.571V372.685H138.218V376.901H138.323C138.529 376.422 138.838 376.053 139.251 375.796C139.667 375.534 140.196 375.403 140.836 375.403C141.426 375.403 141.938 375.525 142.372 375.768C142.807 376.007 143.144 376.366 143.383 376.845C143.623 377.324 143.743 377.91 143.743 378.602V384H142.074V378.807C142.074 378.188 141.914 377.707 141.593 377.365C141.277 377.018 140.835 376.845 140.267 376.845C139.873 376.845 139.523 376.93 139.218 377.099C138.912 377.265 138.673 377.508 138.499 377.829C138.326 378.145 138.24 378.525 138.24 378.967V384ZM149.422 384.171C148.597 384.171 147.878 383.993 147.267 383.635C146.659 383.274 146.192 382.766 145.864 382.11C145.54 381.451 145.378 380.685 145.378 379.812C145.378 378.95 145.54 378.186 145.864 377.519C146.192 376.853 146.652 376.333 147.245 375.961C147.838 375.589 148.523 375.403 149.3 375.403C149.982 375.403 150.606 375.552 151.173 375.851C151.744 376.145 152.203 376.611 152.549 377.249C152.899 377.886 153.074 378.692 153.074 379.669V380.26H147.035C147.05 380.79 147.158 381.247 147.361 381.63C147.564 382.013 147.842 382.304 148.195 382.503C148.553 382.702 148.965 382.801 149.433 382.801C149.882 382.801 150.263 382.716 150.576 382.547C150.89 382.374 151.122 382.147 151.273 381.867H152.963C152.838 382.331 152.613 382.737 152.289 383.083C151.969 383.429 151.564 383.698 151.074 383.89C150.584 384.077 150.033 384.171 149.422 384.171ZM151.433 379.011C151.433 378.584 151.344 378.201 151.168 377.862C150.991 377.523 150.742 377.258 150.422 377.066C150.105 376.871 149.739 376.773 149.322 376.773C148.891 376.773 148.506 376.875 148.168 377.077C147.832 377.28 147.567 377.552 147.372 377.895C147.177 378.238 147.066 378.61 147.041 379.011H151.433ZM158.766 372.685H160.485V382.519H165.606V384H158.766V372.685ZM170.813 384.171C170.021 384.171 169.325 383.991 168.725 383.63C168.128 383.265 167.666 382.751 167.338 382.088C167.01 381.425 166.846 380.661 166.846 379.796C166.846 378.923 167.01 378.155 167.338 377.492C167.666 376.829 168.128 376.315 168.725 375.95C169.325 375.586 170.021 375.403 170.813 375.403C171.601 375.403 172.294 375.586 172.89 375.95C173.491 376.315 173.953 376.829 174.277 377.492C174.605 378.155 174.769 378.923 174.769 379.796C174.769 380.661 174.605 381.425 174.277 382.088C173.953 382.751 173.491 383.265 172.89 383.63C172.294 383.991 171.601 384.171 170.813 384.171ZM168.526 379.79C168.526 380.346 168.611 380.851 168.78 381.304C168.953 381.757 169.211 382.116 169.553 382.381C169.9 382.646 170.321 382.779 170.819 382.779C171.312 382.779 171.728 382.646 172.067 382.381C172.41 382.116 172.666 381.757 172.835 381.304C173.005 380.851 173.089 380.346 173.089 379.79C173.089 379.234 173.005 378.729 172.835 378.276C172.666 377.823 172.41 377.462 172.067 377.193C171.728 376.924 171.312 376.79 170.819 376.79C170.321 376.79 169.9 376.924 169.553 377.193C169.211 377.462 168.953 377.823 168.78 378.276C168.611 378.729 168.526 379.234 168.526 379.79ZM180.312 384H178.527L175.45 375.514H177.24L179.378 382.033H179.466L181.61 375.514H183.394L180.312 384ZM188.125 384.171C187.3 384.171 186.582 383.993 185.97 383.635C185.362 383.274 184.895 382.766 184.567 382.11C184.243 381.451 184.081 380.685 184.081 379.812C184.081 378.95 184.243 378.186 184.567 377.519C184.895 376.853 185.355 376.333 185.948 375.961C186.541 375.589 187.226 375.403 188.003 375.403C188.685 375.403 189.309 375.552 189.876 375.851C190.447 376.145 190.906 376.611 191.252 377.249C191.602 377.886 191.777 378.692 191.777 379.669V380.26H185.738C185.753 380.79 185.862 381.247 186.064 381.63C186.267 382.013 186.545 382.304 186.898 382.503C187.256 382.702 187.668 382.801 188.136 382.801C188.585 382.801 188.966 382.716 189.28 382.547C189.593 382.374 189.825 382.147 189.976 381.867H191.666C191.541 382.331 191.316 382.737 190.992 383.083C190.672 383.429 190.267 383.698 189.777 383.89C189.287 384.077 188.736 384.171 188.125 384.171ZM190.136 379.011C190.136 378.584 190.048 378.201 189.871 377.862C189.694 377.523 189.445 377.258 189.125 377.066C188.808 376.871 188.442 376.773 188.025 376.773C187.594 376.773 187.21 376.875 186.871 377.077C186.536 377.28 186.27 377.552 186.075 377.895C185.88 378.238 185.769 378.61 185.744 379.011H190.136ZM193.431 375.514H195.044V376.867H195.132C195.235 376.565 195.392 376.304 195.602 376.083C195.816 375.858 196.066 375.687 196.353 375.569C196.644 375.448 196.954 375.387 197.281 375.387C197.399 375.387 197.526 375.39 197.663 375.398C197.799 375.405 197.909 375.414 197.994 375.425V377.017C197.902 376.994 197.771 376.972 197.602 376.95C197.436 376.928 197.278 376.917 197.127 376.917C196.744 376.917 196.397 377 196.088 377.166C195.779 377.328 195.536 377.554 195.359 377.845C195.186 378.136 195.099 378.464 195.099 378.829V384H193.431V375.514ZM204.006 377.829C203.925 377.483 203.748 377.212 203.475 377.017C203.206 376.818 202.847 376.718 202.398 376.718C202.088 376.718 201.809 376.768 201.558 376.867C201.308 376.967 201.112 377.105 200.972 377.282C200.836 377.455 200.768 377.646 200.768 377.856C200.764 378.11 200.869 378.328 201.083 378.508C201.3 378.685 201.637 378.827 202.094 378.934L203.453 379.243C204.23 379.424 204.81 379.703 205.193 380.083C205.576 380.459 205.768 380.945 205.768 381.541C205.768 382.053 205.628 382.508 205.348 382.906C205.072 383.304 204.672 383.615 204.149 383.84C203.626 384.061 203.009 384.171 202.298 384.171C201.289 384.171 200.488 383.956 199.895 383.525C199.306 383.094 198.958 382.479 198.851 381.68H200.558C200.702 382.449 201.276 382.834 202.282 382.834C202.639 382.834 202.952 382.788 203.221 382.696C203.49 382.6 203.696 382.466 203.84 382.293C203.987 382.116 204.061 381.91 204.061 381.674C204.061 381.398 203.954 381.171 203.74 380.994C203.53 380.814 203.201 380.672 202.751 380.569L201.425 380.276C200.667 380.11 200.088 379.829 199.691 379.431C199.297 379.033 199.099 378.54 199.099 377.95C199.099 377.453 199.236 377.011 199.508 376.624C199.785 376.238 200.171 375.937 200.669 375.724C201.166 375.51 201.739 375.403 202.387 375.403C203.006 375.403 203.547 375.505 204.011 375.707C204.479 375.906 204.849 376.188 205.122 376.552C205.394 376.917 205.556 377.343 205.608 377.829H204.006Z" fill="#B48AEB"/>
<path d="M166.477 87.1768H166.609L169.946 77.6851H171.427L167.283 89H165.803L161.659 77.6851H163.151L166.477 87.1768ZM174.363 89H172.96V77.6851H174.363V89Z" fill="#B48AEB"/>
<g clip-path="url(#clip0_239_2351)">
<g filter="url(#filter1_d_239_2351)">
<path d="M165.5 172.559C148.742 155.832 121.599 155.832 104.841 172.559C89.0992 188.271 89.0992 213.744 104.841 229.428L106.709 231.293L165.555 290V172.559H165.5Z" fill="url(#paint0_linear_239_2351)"/>
</g>
<g filter="url(#filter2_d_239_2351)">
<path d="M165.5 172.559C182.258 155.832 209.401 155.832 226.159 172.559C241.901 188.27 241.901 213.744 226.159 229.428L224.291 231.293L165.445 290V172.559H165.5Z" fill="url(#paint1_linear_239_2351)"/>
</g>
</g>
<defs>
<filter id="filter0_d_239_2351" x="0.5" y="0" width="334" height="462" filterUnits="userSpaceOnUse" color-interpolation-filters="sRGB">
<feFlood flood-opacity="0" result="BackgroundImageFix"/>
<feColorMatrix in="SourceAlpha" type="matrix" values="0 0 0 0 0 0 0 0 0 0 0 0 0 0 0 0 0 0 127 0" result="hardAlpha"/>
<feMorphology radius="15" operator="dilate" in="SourceAlpha" result="effect1_dropShadow_239_2351"/>
<feOffset/>
<feGaussianBlur stdDeviation="17.5"/>
<feComposite in2="hardAlpha" operator="out"/>
<feColorMatrix type="matrix" values="0 0 0 0 0 0 0 0 0 0.192157 0 0 0 0 0.67451 0 0 0 0.3 0"/>
<feBlend mode="normal" in2="BackgroundImageFix" result="effect1_dropShadow_239_2351"/>
<feBlend mode="normal" in="SourceGraphic" in2="effect1_dropShadow_239_2351" result="shape"/>
</filter>
<filter id="filter1_d_239_2351" x="82.1346" y="149.114" width="94.3206" height="151.786" filterUnits="userSpaceOnUse" color-interpolation-filters="sRGB">
<feFlood flood-opacity="0" result="BackgroundImageFix"/>
<feColorMatrix in="SourceAlpha" type="matrix" values="0 0 0 0 0 0 0 0 0 0 0 0 0 0 0 0 0 0 127 0" result="hardAlpha"/>
<feOffset/>
<feGaussianBlur stdDeviation="5.45"/>
<feComposite in2="hardAlpha" operator="out"/>
<feColorMatrix type="matrix" values="0 0 0 0 0.52018 0 0 0 0 0.531966 0 0 0 0 0.97198 0 0 0 0.3 0"/>
<feBlend mode="normal" in2="BackgroundImageFix" result="effect1_dropShadow_239_2351"/>
<feBlend mode="normal" in="SourceGraphic" in2="effect1_dropShadow_239_2351" result="shape"/>
</filter>
<filter id="filter2_d_239_2351" x="154.545" y="149.114" width="94.3206" height="151.786" filterUnits="userSpaceOnUse" color-interpolation-filters="sRGB">
<feFlood flood-opacity="0" result="BackgroundImageFix"/>
<feColorMatrix in="SourceAlpha" type="matrix" values="0 0 0 0 0 0 0 0 0 0 0 0 0 0 0 0 0 0 127 0" result="hardAlpha"/>
<feOffset/>
<feGaussianBlur stdDeviation="5.45"/>
<feComposite in2="hardAlpha" operator="out"/>
<feColorMatrix type="matrix" values="0 0 0 0 0.52018 0 0 0 0 0.531966 0 0 0 0 0.97198 0 0 0 0.3 0"/>
<feBlend mode="normal" in2="BackgroundImageFix" result="effect1_dropShadow_239_2351"/>
<feBlend mode="normal" in="SourceGraphic" in2="effect1_dropShadow_239_2351" result="shape"/>
</filter>
<linearGradient id="paint0_linear_239_2351" x1="109" y1="160" x2="166" y2="290" gradientUnits="userSpaceOnUse">
<stop stop-color="#B48AEB"/>
<stop offset="0.5" stop-color="#6C6FDF"/>
<stop offset="1" stop-color="#0031AC"/>
</linearGradient>
<linearGradient id="paint1_linear_239_2351" x1="238" y1="170" x2="170.5" y2="276" gradientUnits="userSpaceOnUse">
<stop stop-color="#B48AEB"/>
<stop offset="0.5" stop-color="#6C6FDF"/>
<stop offset="1" stop-color="#0031AC"/>
</linearGradient>
<clipPath id="clip0_239_2351">
<rect width="167" height="152" fill="white" transform="translate(82 149)"/>
</clipPath>
</defs>
</svg>
