<svg width="335" height="462" viewBox="0 0 335 462" fill="none" xmlns="http://www.w3.org/2000/svg">
<g filter="url(#filter0_d_239_2419)">
<rect x="50.5" y="50" width="234" height="362" rx="8" fill="#111111"/>
</g>
<path d="M131.536 372.685H140.304V374.166H136.785V384H135.067V374.166H131.536V372.685ZM143.584 384H141.915V372.685H143.561V376.901H143.666C143.873 376.422 144.182 376.053 144.595 375.796C145.011 375.534 145.539 375.403 146.18 375.403C146.77 375.403 147.281 375.525 147.716 375.768C148.151 376.007 148.488 376.366 148.727 376.845C148.967 377.324 149.086 377.91 149.086 378.602V384H147.418V378.807C147.418 378.188 147.258 377.707 146.937 377.365C146.62 377.018 146.178 376.845 145.611 376.845C145.217 376.845 144.867 376.93 144.561 377.099C144.256 377.265 144.016 377.508 143.843 377.829C143.67 378.145 143.584 378.525 143.584 378.967V384ZM154.765 384.171C153.94 384.171 153.222 383.993 152.611 383.635C152.003 383.274 151.535 382.766 151.207 382.11C150.883 381.451 150.721 380.685 150.721 379.812C150.721 378.95 150.883 378.186 151.207 377.519C151.535 376.853 151.996 376.333 152.589 375.961C153.182 375.589 153.867 375.403 154.644 375.403C155.325 375.403 155.95 375.552 156.517 375.851C157.088 376.145 157.546 376.611 157.893 377.249C158.242 377.886 158.417 378.692 158.417 379.669V380.26H152.379C152.393 380.79 152.502 381.247 152.705 381.63C152.907 382.013 153.185 382.304 153.539 382.503C153.896 382.702 154.309 382.801 154.777 382.801C155.226 382.801 155.607 382.716 155.92 382.547C156.233 382.374 156.465 382.147 156.616 381.867H158.307C158.182 382.331 157.957 382.737 157.633 383.083C157.312 383.429 156.907 383.698 156.417 383.89C155.928 384.077 155.377 384.171 154.765 384.171ZM156.777 379.011C156.777 378.584 156.688 378.201 156.511 377.862C156.335 377.523 156.086 377.258 155.765 377.066C155.449 376.871 155.082 376.773 154.666 376.773C154.235 376.773 153.85 376.875 153.511 377.077C153.176 377.28 152.911 377.552 152.716 377.895C152.521 378.238 152.41 378.61 152.384 379.011H156.777ZM170.276 375.663C170.239 375.32 170.117 375.026 169.911 374.779C169.709 374.532 169.438 374.344 169.099 374.215C168.764 374.083 168.381 374.017 167.95 374.017C167.497 374.017 167.099 374.088 166.757 374.232C166.414 374.376 166.149 374.575 165.961 374.829C165.777 375.079 165.685 375.365 165.685 375.685C165.681 376.164 165.874 376.534 166.265 376.796C166.659 377.053 167.151 377.254 167.74 377.398L168.839 377.685C169.757 377.91 170.528 378.269 171.154 378.762C171.78 379.252 172.094 379.954 172.094 380.867C172.094 381.512 171.928 382.085 171.596 382.586C171.265 383.087 170.782 383.479 170.149 383.762C169.519 384.046 168.769 384.188 167.9 384.188C167.06 384.188 166.329 384.055 165.707 383.79C165.084 383.521 164.596 383.138 164.243 382.641C163.893 382.14 163.699 381.549 163.663 380.867H165.386C165.42 381.262 165.55 381.595 165.779 381.867C166.007 382.14 166.303 382.344 166.668 382.481C167.036 382.613 167.445 382.68 167.895 382.68C168.373 382.68 168.801 382.604 169.176 382.453C169.556 382.298 169.852 382.083 170.066 381.807C170.283 381.53 170.392 381.212 170.392 380.851C170.392 380.534 170.302 380.269 170.121 380.055C169.941 379.842 169.698 379.667 169.392 379.53C169.086 379.39 168.705 379.26 168.248 379.138L166.917 378.779C165.966 378.521 165.237 378.149 164.729 377.663C164.221 377.173 163.966 376.547 163.966 375.785C163.966 375.144 164.141 374.576 164.491 374.083C164.841 373.589 165.322 373.208 165.933 372.939C166.545 372.667 167.23 372.53 167.989 372.53C168.744 372.53 169.418 372.665 170.011 372.934C170.604 373.203 171.07 373.575 171.408 374.05C171.747 374.525 171.924 375.063 171.939 375.663H170.276ZM177.772 376.845H176.043V381.503C176.043 381.941 176.133 382.239 176.314 382.398C176.494 382.552 176.743 382.632 177.06 382.635C177.159 382.635 177.393 382.626 177.761 382.608L177.889 382.602V384.039C177.616 384.087 177.272 384.11 176.855 384.11C176.402 384.11 175.988 384.028 175.612 383.862C175.237 383.692 174.936 383.438 174.712 383.099C174.487 382.757 174.375 382.339 174.375 381.845V376.845H173.132V375.514H174.375V373.481H176.043V375.514H177.772V376.845ZM179.002 381.602C179.002 380.729 179.298 380.105 179.891 379.729C180.488 379.354 181.248 379.133 182.173 379.066C182.534 379.044 182.926 379.022 183.35 379C183.773 378.978 184.125 378.961 184.405 378.95V378.26C184.405 377.777 184.258 377.405 183.963 377.144C183.668 376.882 183.239 376.751 182.676 376.751C182.2 376.751 181.812 376.849 181.51 377.044C181.212 377.239 181.018 377.501 180.93 377.829H179.267C179.318 377.361 179.493 376.943 179.792 376.575C180.09 376.206 180.491 375.919 180.996 375.713C181.504 375.506 182.084 375.403 182.736 375.403C183.274 375.403 183.792 375.486 184.289 375.652C184.786 375.818 185.206 376.122 185.549 376.564C185.895 377.002 186.068 377.602 186.068 378.365V384H184.444V382.84H184.377C184.259 383.076 184.09 383.295 183.869 383.497C183.652 383.7 183.374 383.866 183.035 383.994C182.7 384.123 182.311 384.188 181.869 384.188C181.324 384.188 180.834 384.087 180.399 383.884C179.968 383.681 179.628 383.385 179.377 382.994C179.127 382.604 179.002 382.14 179.002 381.602ZM180.637 381.624C180.637 382.022 180.782 382.328 181.073 382.541C181.368 382.751 181.757 382.856 182.239 382.856C182.677 382.856 183.061 382.768 183.388 382.591C183.72 382.414 183.972 382.18 184.145 381.89C184.322 381.595 184.41 381.278 184.41 380.939V380.166C184.131 380.18 183.464 380.225 182.41 380.298C181.847 380.339 181.41 380.47 181.101 380.691C180.792 380.908 180.637 381.219 180.637 381.624ZM188.087 375.514H189.7V376.867H189.789C189.892 376.565 190.048 376.304 190.258 376.083C190.472 375.858 190.722 375.687 191.01 375.569C191.301 375.448 191.61 375.387 191.938 375.387C192.056 375.387 192.183 375.39 192.319 375.398C192.455 375.405 192.566 375.414 192.65 375.425V377.017C192.558 376.994 192.428 376.972 192.258 376.95C192.092 376.928 191.934 376.917 191.783 376.917C191.4 376.917 191.054 377 190.744 377.166C190.435 377.328 190.192 377.554 190.015 377.845C189.842 378.136 189.755 378.464 189.755 378.829V384H188.087V375.514ZM198.662 377.829C198.581 377.483 198.404 377.212 198.131 377.017C197.863 376.818 197.503 376.718 197.054 376.718C196.745 376.718 196.465 376.768 196.214 376.867C195.964 376.967 195.769 377.105 195.629 377.282C195.492 377.455 195.424 377.646 195.424 377.856C195.421 378.11 195.526 378.328 195.739 378.508C195.956 378.685 196.293 378.827 196.75 378.934L198.109 379.243C198.886 379.424 199.467 379.703 199.85 380.083C200.233 380.459 200.424 380.945 200.424 381.541C200.424 382.053 200.284 382.508 200.004 382.906C199.728 383.304 199.328 383.615 198.805 383.84C198.282 384.061 197.666 384.171 196.955 384.171C195.945 384.171 195.144 383.956 194.551 383.525C193.962 383.094 193.614 382.479 193.507 381.68H195.214C195.358 382.449 195.933 382.834 196.938 382.834C197.295 382.834 197.608 382.788 197.877 382.696C198.146 382.6 198.352 382.466 198.496 382.293C198.643 382.116 198.717 381.91 198.717 381.674C198.717 381.398 198.61 381.171 198.397 380.994C198.187 380.814 197.857 380.672 197.408 380.569L196.082 380.276C195.323 380.11 194.745 379.829 194.347 379.431C193.953 379.033 193.756 378.54 193.756 377.95C193.756 377.453 193.892 377.011 194.165 376.624C194.441 376.238 194.828 375.937 195.325 375.724C195.822 375.51 196.395 375.403 197.043 375.403C197.662 375.403 198.203 375.505 198.667 375.707C199.135 375.906 199.505 376.188 199.778 376.552C200.05 376.917 200.212 377.343 200.264 377.829H198.662Z" fill="#B48AEB"/>
<path d="M158.882 82.3591H158.97L161.866 77.6851H163.523L159.965 83.3425L163.523 89H161.866L158.97 84.4144H158.882L155.987 89H154.33L157.976 83.3425L154.33 77.6851H155.998L158.882 82.3591ZM168.922 87.1768H169.055L172.392 77.6851H173.872L169.729 89H168.248L164.104 77.6851H165.596L168.922 87.1768ZM176.808 89H175.405V77.6851H176.808V89ZM180.714 89H179.311V77.6851H180.714V89Z" fill="#B48AEB"/>
<g clip-path="url(#clip0_239_2419)">
<g filter="url(#filter1_d_239_2419)">
<path d="M167.496 324L155.174 260.252L125.264 272.736L137.748 242.826L74 230.496L137.748 218.174L125.264 188.264L155.174 200.748L167.496 137V324Z" fill="url(#paint0_linear_239_2419)"/>
</g>
<g filter="url(#filter2_d_239_2419)">
<path d="M167.496 324L179.826 260.252L209.736 272.736L197.252 242.826L261 230.496L197.252 218.174L209.736 188.264L179.826 200.748L167.496 137V324Z" fill="url(#paint1_linear_239_2419)"/>
</g>
</g>
<defs>
<filter id="filter0_d_239_2419" x="0.5" y="0" width="334" height="462" filterUnits="userSpaceOnUse" color-interpolation-filters="sRGB">
<feFlood flood-opacity="0" result="BackgroundImageFix"/>
<feColorMatrix in="SourceAlpha" type="matrix" values="0 0 0 0 0 0 0 0 0 0 0 0 0 0 0 0 0 0 127 0" result="hardAlpha"/>
<feMorphology radius="15" operator="dilate" in="SourceAlpha" result="effect1_dropShadow_239_2419"/>
<feOffset/>
<feGaussianBlur stdDeviation="17.5"/>
<feComposite in2="hardAlpha" operator="out"/>
<feColorMatrix type="matrix" values="0 0 0 0 0 0 0 0 0 0.192157 0 0 0 0 0.67451 0 0 0 0.3 0"/>
<feBlend mode="normal" in2="BackgroundImageFix" result="effect1_dropShadow_239_2419"/>
<feBlend mode="normal" in="SourceGraphic" in2="effect1_dropShadow_239_2419" result="shape"/>
</filter>
<filter id="filter1_d_239_2419" x="63.1" y="126.1" width="115.296" height="208.8" filterUnits="userSpaceOnUse" color-interpolation-filters="sRGB">
<feFlood flood-opacity="0" result="BackgroundImageFix"/>
<feColorMatrix in="SourceAlpha" type="matrix" values="0 0 0 0 0 0 0 0 0 0 0 0 0 0 0 0 0 0 127 0" result="hardAlpha"/>
<feOffset/>
<feGaussianBlur stdDeviation="5.45"/>
<feComposite in2="hardAlpha" operator="out"/>
<feColorMatrix type="matrix" values="0 0 0 0 0.52018 0 0 0 0 0.531966 0 0 0 0 0.97198 0 0 0 0.3 0"/>
<feBlend mode="normal" in2="BackgroundImageFix" result="effect1_dropShadow_239_2419"/>
<feBlend mode="normal" in="SourceGraphic" in2="effect1_dropShadow_239_2419" result="shape"/>
</filter>
<filter id="filter2_d_239_2419" x="156.596" y="126.1" width="115.304" height="208.8" filterUnits="userSpaceOnUse" color-interpolation-filters="sRGB">
<feFlood flood-opacity="0" result="BackgroundImageFix"/>
<feColorMatrix in="SourceAlpha" type="matrix" values="0 0 0 0 0 0 0 0 0 0 0 0 0 0 0 0 0 0 127 0" result="hardAlpha"/>
<feOffset/>
<feGaussianBlur stdDeviation="5.45"/>
<feComposite in2="hardAlpha" operator="out"/>
<feColorMatrix type="matrix" values="0 0 0 0 0.52018 0 0 0 0 0.531966 0 0 0 0 0.97198 0 0 0 0.3 0"/>
<feBlend mode="normal" in2="BackgroundImageFix" result="effect1_dropShadow_239_2419"/>
<feBlend mode="normal" in="SourceGraphic" in2="effect1_dropShadow_239_2419" result="shape"/>
</filter>
<linearGradient id="paint0_linear_239_2419" x1="120.998" y1="137" x2="173.136" y2="324.257" gradientUnits="userSpaceOnUse">
<stop stop-color="#B48AEB"/>
<stop offset="0.5" stop-color="#6C6FDF"/>
<stop offset="1" stop-color="#0031AC"/>
</linearGradient>
<linearGradient id="paint1_linear_239_2419" x1="173.87" y1="175.553" x2="214.259" y2="324.257" gradientUnits="userSpaceOnUse">
<stop stop-color="#B48AEB"/>
<stop offset="0.5" stop-color="#6C6FDF"/>
<stop offset="1" stop-color="#0031AC"/>
</linearGradient>
<clipPath id="clip0_239_2419">
<rect width="209" height="209" fill="white" transform="translate(63 126)"/>
</clipPath>
</defs>
</svg>
