<svg width="325" height="452" viewBox="0 0 325 452" fill="none" xmlns="http://www.w3.org/2000/svg">
<g filter="url(#filter0_d_239_2441)">
<rect x="45.5" y="45" width="234" height="362" rx="8" fill="#111111"/>
</g>
<path d="M131.568 367.685H140.336V369.166H136.816V379H135.098V369.166H131.568V367.685ZM143.615 379H141.946V367.685H143.593V371.901H143.698C143.904 371.422 144.213 371.053 144.626 370.796C145.042 370.534 145.571 370.403 146.211 370.403C146.801 370.403 147.313 370.525 147.747 370.768C148.182 371.007 148.519 371.366 148.758 371.845C148.998 372.324 149.118 372.91 149.118 373.602V379H147.449V373.807C147.449 373.188 147.289 372.707 146.968 372.365C146.652 372.018 146.21 371.845 145.642 371.845C145.248 371.845 144.898 371.93 144.593 372.099C144.287 372.265 144.048 372.508 143.874 372.829C143.701 373.145 143.615 373.525 143.615 373.967V379ZM154.797 379.171C153.972 379.171 153.253 378.993 152.642 378.635C152.034 378.274 151.567 377.766 151.239 377.11C150.915 376.451 150.753 375.685 150.753 374.812C150.753 373.95 150.915 373.186 151.239 372.519C151.567 371.853 152.027 371.333 152.62 370.961C153.213 370.589 153.898 370.403 154.675 370.403C155.357 370.403 155.981 370.552 156.548 370.851C157.119 371.145 157.578 371.611 157.924 372.249C158.274 372.886 158.449 373.692 158.449 374.669V375.26H152.41C152.425 375.79 152.533 376.247 152.736 376.63C152.939 377.013 153.217 377.304 153.57 377.503C153.928 377.702 154.34 377.801 154.808 377.801C155.257 377.801 155.638 377.716 155.951 377.547C156.265 377.374 156.497 377.147 156.648 376.867H158.338C158.213 377.331 157.988 377.737 157.664 378.083C157.344 378.429 156.939 378.698 156.449 378.89C155.959 379.077 155.408 379.171 154.797 379.171ZM156.808 374.011C156.808 373.584 156.719 373.201 156.543 372.862C156.366 372.523 156.117 372.258 155.797 372.066C155.48 371.871 155.114 371.773 154.697 371.773C154.266 371.773 153.881 371.875 153.543 372.077C153.207 372.28 152.942 372.552 152.747 372.895C152.552 373.238 152.441 373.61 152.416 374.011H156.808ZM170.307 370.663C170.27 370.32 170.149 370.026 169.942 369.779C169.74 369.532 169.469 369.344 169.13 369.215C168.795 369.083 168.412 369.017 167.981 369.017C167.528 369.017 167.13 369.088 166.788 369.232C166.445 369.376 166.18 369.575 165.992 369.829C165.808 370.079 165.716 370.365 165.716 370.685C165.712 371.164 165.906 371.534 166.296 371.796C166.69 372.053 167.182 372.254 167.771 372.398L168.871 372.685C169.788 372.91 170.559 373.269 171.186 373.762C171.812 374.252 172.125 374.954 172.125 375.867C172.125 376.512 171.959 377.085 171.628 377.586C171.296 378.087 170.814 378.479 170.18 378.762C169.55 379.046 168.801 379.188 167.931 379.188C167.092 379.188 166.361 379.055 165.738 378.79C165.116 378.521 164.628 378.138 164.274 377.641C163.924 377.14 163.731 376.549 163.694 375.867H165.418C165.451 376.262 165.582 376.595 165.81 376.867C166.038 377.14 166.335 377.344 166.699 377.481C167.068 377.613 167.477 377.68 167.926 377.68C168.405 377.68 168.832 377.604 169.208 377.453C169.587 377.298 169.884 377.083 170.097 376.807C170.314 376.53 170.423 376.212 170.423 375.851C170.423 375.534 170.333 375.269 170.152 375.055C169.972 374.842 169.729 374.667 169.423 374.53C169.117 374.39 168.736 374.26 168.279 374.138L166.948 373.779C165.998 373.521 165.268 373.149 164.76 372.663C164.252 372.173 163.998 371.547 163.998 370.785C163.998 370.144 164.173 369.576 164.523 369.083C164.872 368.589 165.353 368.208 165.965 367.939C166.576 367.667 167.261 367.53 168.02 367.53C168.775 367.53 169.449 367.665 170.042 367.934C170.635 368.203 171.101 368.575 171.44 369.05C171.779 369.525 171.955 370.063 171.97 370.663H170.307ZM179.224 370.514H180.881V379H179.251V377.53H179.163C178.957 378.006 178.634 378.389 178.196 378.68C177.761 378.967 177.238 379.11 176.627 379.11C176.074 379.11 175.588 378.989 175.168 378.746C174.748 378.499 174.421 378.136 174.185 377.657C173.953 377.179 173.837 376.597 173.837 375.912V370.514H175.505V375.707C175.505 376.087 175.577 376.42 175.721 376.707C175.865 376.991 176.067 377.21 176.329 377.365C176.59 377.519 176.89 377.597 177.229 377.597C177.553 377.597 177.868 377.517 178.174 377.359C178.48 377.197 178.73 376.958 178.925 376.641C179.124 376.32 179.224 375.932 179.224 375.475V370.514ZM184.584 379H182.915V370.514H184.517V371.901H184.622C184.825 371.433 185.138 371.066 185.561 370.801C185.985 370.536 186.506 370.403 187.125 370.403C187.711 370.403 188.219 370.527 188.65 370.773C189.084 371.017 189.42 371.378 189.655 371.856C189.895 372.335 190.014 372.917 190.014 373.602V379H188.346V373.807C188.346 373.401 188.274 373.052 188.13 372.757C187.991 372.462 187.786 372.238 187.517 372.083C187.248 371.924 186.928 371.845 186.556 371.845C186.169 371.845 185.827 371.93 185.528 372.099C185.234 372.265 185.002 372.508 184.832 372.829C184.666 373.145 184.584 373.525 184.584 373.967V379Z" fill="#FFF8E2"/>
<path d="M156.101 77.3591H156.189L159.084 72.6851H160.742L157.184 78.3425L160.742 84H159.084L156.189 79.4144H156.101L153.206 84H151.548L155.195 78.3425L151.548 72.6851H153.217L156.101 77.3591ZM163.699 84H162.295V72.6851H163.699V84ZM169.804 77.3591H169.892L172.787 72.6851H174.445L170.887 78.3425L174.445 84H172.787L169.892 79.4144H169.804L166.909 84H165.251L168.898 78.3425L165.251 72.6851H166.92L169.804 77.3591Z" fill="#FFF8E2"/>
<g clip-path="url(#clip0_239_2441)">
<g filter="url(#filter1_d_239_2441)">
<path d="M160.502 132L183.544 185.588L241.475 178.751L206.591 225.502L241.475 272.249L183.544 265.417L160.502 319L137.456 265.417L79.5245 272.249L114.409 225.502L79.5245 178.751L137.456 185.588L160.502 132Z" fill="url(#paint0_linear_239_2441)"/>
</g>
<g filter="url(#filter2_d_239_2441)">
<path d="M207.249 144.525L200.417 202.456L254 225.502L200.417 248.544L207.249 306.475L160.502 271.591L113.751 306.475L120.588 248.544L67 225.502L120.588 202.456L113.751 144.525L160.502 179.409L207.249 144.525Z" fill="url(#paint1_linear_239_2441)"/>
</g>
<g filter="url(#filter3_d_239_2441)">
<path d="M160.502 271.468C185.889 271.468 206.468 250.889 206.468 225.502C206.468 200.116 185.889 179.536 160.502 179.536C135.116 179.536 114.536 200.116 114.536 225.502C114.536 250.889 135.116 271.468 160.502 271.468Z" fill="url(#paint2_linear_239_2441)"/>
</g>
</g>
<defs>
<filter id="filter0_d_239_2441" x="0.5" y="0" width="324" height="452" filterUnits="userSpaceOnUse" color-interpolation-filters="sRGB">
<feFlood flood-opacity="0" result="BackgroundImageFix"/>
<feColorMatrix in="SourceAlpha" type="matrix" values="0 0 0 0 0 0 0 0 0 0 0 0 0 0 0 0 0 0 127 0" result="hardAlpha"/>
<feMorphology radius="10" operator="dilate" in="SourceAlpha" result="effect1_dropShadow_239_2441"/>
<feOffset/>
<feGaussianBlur stdDeviation="17.5"/>
<feComposite in2="hardAlpha" operator="out"/>
<feColorMatrix type="matrix" values="0 0 0 0 0.792157 0 0 0 0 0.956863 0 0 0 0 0.862745 0 0 0 0.3 0"/>
<feBlend mode="normal" in2="BackgroundImageFix" result="effect1_dropShadow_239_2441"/>
<feBlend mode="normal" in="SourceGraphic" in2="effect1_dropShadow_239_2441" result="shape"/>
</filter>
<filter id="filter1_d_239_2441" x="68.6245" y="121.1" width="183.751" height="208.8" filterUnits="userSpaceOnUse" color-interpolation-filters="sRGB">
<feFlood flood-opacity="0" result="BackgroundImageFix"/>
<feColorMatrix in="SourceAlpha" type="matrix" values="0 0 0 0 0 0 0 0 0 0 0 0 0 0 0 0 0 0 127 0" result="hardAlpha"/>
<feOffset/>
<feGaussianBlur stdDeviation="5.45"/>
<feComposite in2="hardAlpha" operator="out"/>
<feColorMatrix type="matrix" values="0 0 0 0 0.52018 0 0 0 0 0.531966 0 0 0 0 0.97198 0 0 0 0.3 0"/>
<feBlend mode="normal" in2="BackgroundImageFix" result="effect1_dropShadow_239_2441"/>
<feBlend mode="normal" in="SourceGraphic" in2="effect1_dropShadow_239_2441" result="shape"/>
</filter>
<filter id="filter2_d_239_2441" x="56.1" y="133.625" width="208.8" height="183.751" filterUnits="userSpaceOnUse" color-interpolation-filters="sRGB">
<feFlood flood-opacity="0" result="BackgroundImageFix"/>
<feColorMatrix in="SourceAlpha" type="matrix" values="0 0 0 0 0 0 0 0 0 0 0 0 0 0 0 0 0 0 127 0" result="hardAlpha"/>
<feOffset/>
<feGaussianBlur stdDeviation="5.45"/>
<feComposite in2="hardAlpha" operator="out"/>
<feColorMatrix type="matrix" values="0 0 0 0 0.52018 0 0 0 0 0.531966 0 0 0 0 0.97198 0 0 0 0.3 0"/>
<feBlend mode="normal" in2="BackgroundImageFix" result="effect1_dropShadow_239_2441"/>
<feBlend mode="normal" in="SourceGraphic" in2="effect1_dropShadow_239_2441" result="shape"/>
</filter>
<filter id="filter3_d_239_2441" x="103.636" y="168.636" width="113.732" height="113.732" filterUnits="userSpaceOnUse" color-interpolation-filters="sRGB">
<feFlood flood-opacity="0" result="BackgroundImageFix"/>
<feColorMatrix in="SourceAlpha" type="matrix" values="0 0 0 0 0 0 0 0 0 0 0 0 0 0 0 0 0 0 127 0" result="hardAlpha"/>
<feOffset/>
<feGaussianBlur stdDeviation="5.45"/>
<feComposite in2="hardAlpha" operator="out"/>
<feColorMatrix type="matrix" values="0 0 0 0 0.52018 0 0 0 0 0.531966 0 0 0 0 0.97198 0 0 0 0.3 0"/>
<feBlend mode="normal" in2="BackgroundImageFix" result="effect1_dropShadow_239_2441"/>
<feBlend mode="normal" in="SourceGraphic" in2="effect1_dropShadow_239_2441" result="shape"/>
</filter>
<linearGradient id="paint0_linear_239_2441" x1="85.8948" y1="116.541" x2="237.79" y2="318.985" gradientUnits="userSpaceOnUse">
<stop stop-color="#75AFFF"/>
<stop offset="0.5" stop-color="#CAF4DC"/>
<stop offset="1" stop-color="#FFF8E2"/>
</linearGradient>
<linearGradient id="paint1_linear_239_2441" x1="160.5" y1="144.525" x2="160.5" y2="306.475" gradientUnits="userSpaceOnUse">
<stop stop-color="#FFF8E2"/>
<stop offset="0.5" stop-color="#CAF4DC"/>
<stop offset="1" stop-color="#75AFFF"/>
</linearGradient>
<linearGradient id="paint2_linear_239_2441" x1="129.574" y1="187.948" x2="179.388" y2="271.38" gradientUnits="userSpaceOnUse">
<stop stop-color="#FFF8E2"/>
<stop offset="0.5" stop-color="#CAF4DC"/>
<stop offset="1" stop-color="#75AFFF"/>
</linearGradient>
<clipPath id="clip0_239_2441">
<rect width="209" height="209" fill="white" transform="translate(56 121)"/>
</clipPath>
</defs>
</svg>
