<svg width="325" height="452" viewBox="0 0 325 452" fill="none" xmlns="http://www.w3.org/2000/svg">
<g filter="url(#filter0_d_239_2412)">
<rect x="45.5" y="45" width="234" height="362" rx="8" fill="#111111"/>
</g>
<path d="M99.2552 367.685H108.023V369.166H104.504V379H102.786V369.166H99.2552V367.685ZM111.302 379H109.634V367.685H111.28V371.901H111.385C111.591 371.422 111.901 371.053 112.313 370.796C112.73 370.534 113.258 370.403 113.899 370.403C114.488 370.403 115 370.525 115.435 370.768C115.869 371.007 116.207 371.366 116.446 371.845C116.685 372.324 116.805 372.91 116.805 373.602V379H115.137V373.807C115.137 373.188 114.976 372.707 114.656 372.365C114.339 372.018 113.897 371.845 113.33 371.845C112.936 371.845 112.586 371.93 112.28 372.099C111.974 372.265 111.735 372.508 111.562 372.829C111.389 373.145 111.302 373.525 111.302 373.967V379ZM122.484 379.171C121.659 379.171 120.941 378.993 120.33 378.635C119.722 378.274 119.254 377.766 118.926 377.11C118.602 376.451 118.44 375.685 118.44 374.812C118.44 373.95 118.602 373.186 118.926 372.519C119.254 371.853 119.714 371.333 120.307 370.961C120.9 370.589 121.586 370.403 122.363 370.403C123.044 370.403 123.668 370.552 124.236 370.851C124.807 371.145 125.265 371.611 125.611 372.249C125.961 372.886 126.136 373.692 126.136 374.669V375.26H120.098C120.112 375.79 120.221 376.247 120.423 376.63C120.626 377.013 120.904 377.304 121.258 377.503C121.615 377.702 122.028 377.801 122.495 377.801C122.945 377.801 123.326 377.716 123.639 377.547C123.952 377.374 124.184 377.147 124.335 376.867H126.026C125.9 377.331 125.676 377.737 125.352 378.083C125.031 378.429 124.626 378.698 124.136 378.89C123.646 379.077 123.096 379.171 122.484 379.171ZM124.495 374.011C124.495 373.584 124.407 373.201 124.23 372.862C124.053 372.523 123.805 372.258 123.484 372.066C123.167 371.871 122.801 371.773 122.385 371.773C121.954 371.773 121.569 371.875 121.23 372.077C120.895 372.28 120.63 372.552 120.435 372.895C120.239 373.238 120.129 373.61 120.103 374.011H124.495ZM131.829 367.685H133.547V372.597H139.177V367.685H140.901V379H139.177V374.072H133.547V379H131.829V367.685ZM142.673 376.602C142.673 375.729 142.97 375.105 143.563 374.729C144.16 374.354 144.92 374.133 145.845 374.066C146.206 374.044 146.598 374.022 147.022 374C147.445 373.978 147.797 373.961 148.077 373.95V373.26C148.077 372.777 147.929 372.405 147.635 372.144C147.34 371.882 146.911 371.751 146.348 371.751C145.872 371.751 145.484 371.849 145.182 372.044C144.883 372.239 144.69 372.501 144.602 372.829H142.939C142.99 372.361 143.165 371.943 143.464 371.575C143.762 371.206 144.163 370.919 144.668 370.713C145.176 370.506 145.756 370.403 146.408 370.403C146.946 370.403 147.464 370.486 147.961 370.652C148.458 370.818 148.878 371.122 149.22 371.564C149.567 372.002 149.74 372.602 149.74 373.365V379H148.115V377.84H148.049C147.931 378.076 147.762 378.295 147.541 378.497C147.324 378.7 147.045 378.866 146.707 378.994C146.371 379.123 145.983 379.188 145.541 379.188C144.996 379.188 144.506 379.087 144.071 378.884C143.64 378.681 143.3 378.385 143.049 377.994C142.799 377.604 142.673 377.14 142.673 376.602ZM144.309 376.624C144.309 377.022 144.454 377.328 144.745 377.541C145.04 377.751 145.429 377.856 145.911 377.856C146.349 377.856 146.732 377.768 147.06 377.591C147.392 377.414 147.644 377.18 147.817 376.89C147.994 376.595 148.082 376.278 148.082 375.939V375.166C147.802 375.18 147.136 375.225 146.082 375.298C145.519 375.339 145.082 375.47 144.773 375.691C144.464 375.908 144.309 376.219 144.309 376.624ZM153.427 379H151.759V370.514H153.361V371.901H153.466C153.669 371.433 153.982 371.066 154.405 370.801C154.829 370.536 155.35 370.403 155.969 370.403C156.554 370.403 157.063 370.527 157.494 370.773C157.928 371.017 158.263 371.378 158.499 371.856C158.739 372.335 158.858 372.917 158.858 373.602V379H157.19V373.807C157.19 373.401 157.118 373.052 156.974 372.757C156.834 372.462 156.63 372.238 156.361 372.083C156.092 371.924 155.772 371.845 155.4 371.845C155.013 371.845 154.67 371.93 154.372 372.099C154.077 372.265 153.845 372.508 153.676 372.829C153.51 373.145 153.427 373.525 153.427 373.967V379ZM164.453 382.359C163.738 382.359 163.11 382.258 162.569 382.055C162.031 381.856 161.604 381.565 161.287 381.182C160.974 380.803 160.794 380.35 160.746 379.823H162.447C162.525 380.221 162.738 380.519 163.088 380.718C163.442 380.921 163.902 381.022 164.469 381.022C165.154 381.022 165.685 380.866 166.061 380.552C166.44 380.243 166.63 379.766 166.63 379.122V377.453H166.519C166.309 377.843 166.018 378.179 165.646 378.459C165.274 378.735 164.746 378.873 164.061 378.873C163.383 378.873 162.775 378.709 162.237 378.381C161.703 378.053 161.282 377.573 160.972 376.939C160.663 376.306 160.508 375.549 160.508 374.669C160.508 373.788 160.661 373.028 160.967 372.387C161.272 371.742 161.694 371.25 162.232 370.912C162.773 370.573 163.388 370.403 164.077 370.403C164.56 370.403 164.965 370.484 165.293 370.646C165.62 370.805 165.873 370.987 166.05 371.193C166.226 371.4 166.388 371.632 166.536 371.89H166.646V370.514H168.276V379.182C168.276 379.886 168.112 380.475 167.784 380.95C167.457 381.425 167.005 381.779 166.431 382.011C165.86 382.243 165.201 382.359 164.453 382.359ZM162.204 374.702C162.204 375.262 162.289 375.751 162.458 376.171C162.628 376.591 162.88 376.917 163.215 377.149C163.55 377.381 163.957 377.497 164.436 377.497C164.904 377.497 165.304 377.387 165.635 377.166C165.967 376.945 166.217 376.624 166.387 376.204C166.56 375.785 166.646 375.284 166.646 374.702C166.646 374.127 166.56 373.624 166.387 373.193C166.217 372.759 165.967 372.422 165.635 372.182C165.304 371.943 164.904 371.823 164.436 371.823C163.954 371.823 163.545 371.948 163.21 372.199C162.878 372.446 162.628 372.786 162.458 373.221C162.289 373.656 162.204 374.149 162.204 374.702ZM173.969 379.171C173.144 379.171 172.425 378.993 171.814 378.635C171.206 378.274 170.738 377.766 170.411 377.11C170.086 376.451 169.924 375.685 169.924 374.812C169.924 373.95 170.086 373.186 170.411 372.519C170.738 371.853 171.199 371.333 171.792 370.961C172.385 370.589 173.07 370.403 173.847 370.403C174.528 370.403 175.153 370.552 175.72 370.851C176.291 371.145 176.749 371.611 177.096 372.249C177.446 372.886 177.621 373.692 177.621 374.669V375.26H171.582C171.597 375.79 171.705 376.247 171.908 376.63C172.11 377.013 172.389 377.304 172.742 377.503C173.099 377.702 173.512 377.801 173.98 377.801C174.429 377.801 174.81 377.716 175.123 377.547C175.436 377.374 175.668 377.147 175.819 376.867H177.51C177.385 377.331 177.16 377.737 176.836 378.083C176.516 378.429 176.11 378.698 175.621 378.89C175.131 379.077 174.58 379.171 173.969 379.171ZM175.98 374.011C175.98 373.584 175.891 373.201 175.714 372.862C175.538 372.523 175.289 372.258 174.969 372.066C174.652 371.871 174.285 371.773 173.869 371.773C173.438 371.773 173.053 371.875 172.714 372.077C172.379 372.28 172.114 372.552 171.919 372.895C171.724 373.238 171.613 373.61 171.587 374.011H175.98ZM182.451 379.166C181.766 379.166 181.155 378.989 180.617 378.635C180.079 378.282 179.657 377.773 179.352 377.11C179.05 376.448 178.899 375.669 178.899 374.773C178.899 373.875 179.052 373.096 179.357 372.436C179.663 371.777 180.087 371.274 180.628 370.928C181.169 370.578 181.783 370.403 182.468 370.403C182.95 370.403 183.354 370.484 183.678 370.646C184.006 370.805 184.256 370.987 184.429 371.193C184.602 371.4 184.762 371.632 184.91 371.89H184.998V367.685H186.667V379H185.037V377.68H184.91C184.766 377.934 184.602 378.166 184.418 378.376C184.234 378.586 183.978 378.77 183.65 378.928C183.326 379.087 182.926 379.166 182.451 379.166ZM180.595 374.757C180.595 375.331 180.68 375.845 180.849 376.298C181.022 376.748 181.276 377.101 181.611 377.359C181.947 377.617 182.352 377.746 182.827 377.746C183.291 377.746 183.689 377.622 184.02 377.376C184.352 377.125 184.604 376.775 184.777 376.326C184.95 375.873 185.037 375.35 185.037 374.757C185.037 374.164 184.95 373.648 184.777 373.21C184.608 372.768 184.357 372.427 184.026 372.188C183.694 371.945 183.295 371.823 182.827 371.823C182.344 371.823 181.936 371.948 181.6 372.199C181.265 372.449 181.013 372.796 180.843 373.238C180.678 373.68 180.595 374.186 180.595 374.757ZM194.97 367.685L198.561 376.453H198.693L202.279 367.685H204.373V379H202.732V370.834H202.627L199.301 378.983H197.942L194.616 370.818H194.522V379H192.876V367.685H194.97ZM206.142 376.602C206.142 375.729 206.439 375.105 207.032 374.729C207.628 374.354 208.389 374.133 209.313 374.066C209.674 374.044 210.067 374.022 210.49 374C210.914 373.978 211.266 373.961 211.546 373.95V373.26C211.546 372.777 211.398 372.405 211.104 372.144C210.809 371.882 210.38 371.751 209.816 371.751C209.341 371.751 208.953 371.849 208.651 372.044C208.352 372.239 208.159 372.501 208.07 372.829H206.407C206.459 372.361 206.634 371.943 206.932 371.575C207.231 371.206 207.632 370.919 208.137 370.713C208.645 370.506 209.225 370.403 209.877 370.403C210.415 370.403 210.932 370.486 211.43 370.652C211.927 370.818 212.347 371.122 212.689 371.564C213.035 372.002 213.209 372.602 213.209 373.365V379H211.584V377.84H211.518C211.4 378.076 211.231 378.295 211.01 378.497C210.792 378.7 210.514 378.866 210.175 378.994C209.84 379.123 209.452 379.188 209.01 379.188C208.465 379.188 207.975 379.087 207.54 378.884C207.109 378.681 206.768 378.385 206.518 377.994C206.267 377.604 206.142 377.14 206.142 376.602ZM207.778 376.624C207.778 377.022 207.923 377.328 208.214 377.541C208.509 377.751 208.897 377.856 209.38 377.856C209.818 377.856 210.201 377.768 210.529 377.591C210.86 377.414 211.113 377.18 211.286 376.89C211.463 376.595 211.551 376.278 211.551 375.939V375.166C211.271 375.18 210.604 375.225 209.551 375.298C208.988 375.339 208.551 375.47 208.242 375.691C207.932 375.908 207.778 376.219 207.778 376.624ZM216.896 379H215.228V370.514H216.83V371.901H216.935C217.137 371.433 217.45 371.066 217.874 370.801C218.297 370.536 218.819 370.403 219.437 370.403C220.023 370.403 220.531 370.527 220.962 370.773C221.397 371.017 221.732 371.378 221.968 371.856C222.207 372.335 222.327 372.917 222.327 373.602V379H220.658V373.807C220.658 373.401 220.587 373.052 220.443 372.757C220.303 372.462 220.099 372.238 219.83 372.083C219.561 371.924 219.24 371.845 218.868 371.845C218.482 371.845 218.139 371.93 217.841 372.099C217.546 372.265 217.314 372.508 217.145 372.829C216.979 373.145 216.896 373.525 216.896 373.967V379Z" fill="#FFF8E2"/>
<path d="M159.046 77.3591H159.135L162.03 72.6851H163.687L160.129 78.3425L163.687 84H162.03L159.135 79.4144H159.046L156.151 84H154.494L158.14 78.3425L154.494 72.6851H156.162L159.046 77.3591ZM166.644 84H165.241V72.6851H166.644V84ZM170.55 84H169.147V72.6851H170.55V84Z" fill="#FFF8E2"/>
<g clip-path="url(#clip0_239_2412)">
<g filter="url(#filter1_d_239_2412)">
<path d="M229.143 203.239H170.245V280.293H229.143V203.239Z" fill="url(#paint0_linear_239_2412)"/>
</g>
<g filter="url(#filter2_d_239_2412)">
<path d="M164.531 229.397C149.262 216.316 101.917 203.909 81.0452 198.245C78.4593 197.571 76.6123 195.009 76.6123 191.975V185.097C76.6123 181.726 78.644 178.692 81.6609 177.815C118.786 167.296 165.208 166.555 193.776 180.782L195.5 175.185C211.076 172.825 227.761 173.23 245 175.185L240.998 218.946C240.998 225.486 234.965 231.689 230.039 228.52C197.285 207.483 181.524 217.395 170.195 229.195C168.656 230.813 166.316 230.813 164.593 229.397H164.531Z" fill="url(#paint1_linear_239_2412)"/>
</g>
</g>
<defs>
<filter id="filter0_d_239_2412" x="0.5" y="0" width="324" height="452" filterUnits="userSpaceOnUse" color-interpolation-filters="sRGB">
<feFlood flood-opacity="0" result="BackgroundImageFix"/>
<feColorMatrix in="SourceAlpha" type="matrix" values="0 0 0 0 0 0 0 0 0 0 0 0 0 0 0 0 0 0 127 0" result="hardAlpha"/>
<feMorphology radius="10" operator="dilate" in="SourceAlpha" result="effect1_dropShadow_239_2412"/>
<feOffset/>
<feGaussianBlur stdDeviation="17.5"/>
<feComposite in2="hardAlpha" operator="out"/>
<feColorMatrix type="matrix" values="0 0 0 0 0.792157 0 0 0 0 0.956863 0 0 0 0 0.862745 0 0 0 0.3 0"/>
<feBlend mode="normal" in2="BackgroundImageFix" result="effect1_dropShadow_239_2412"/>
<feBlend mode="normal" in="SourceGraphic" in2="effect1_dropShadow_239_2412" result="shape"/>
</filter>
<filter id="filter1_d_239_2412" x="159.345" y="192.339" width="80.6979" height="98.8543" filterUnits="userSpaceOnUse" color-interpolation-filters="sRGB">
<feFlood flood-opacity="0" result="BackgroundImageFix"/>
<feColorMatrix in="SourceAlpha" type="matrix" values="0 0 0 0 0 0 0 0 0 0 0 0 0 0 0 0 0 0 127 0" result="hardAlpha"/>
<feOffset/>
<feGaussianBlur stdDeviation="5.45"/>
<feComposite in2="hardAlpha" operator="out"/>
<feColorMatrix type="matrix" values="0 0 0 0 0.52018 0 0 0 0 0.531966 0 0 0 0 0.97198 0 0 0 0.3 0"/>
<feBlend mode="normal" in2="BackgroundImageFix" result="effect1_dropShadow_239_2412"/>
<feBlend mode="normal" in="SourceGraphic" in2="effect1_dropShadow_239_2412" result="shape"/>
</filter>
<filter id="filter2_d_239_2412" x="65.7123" y="159.1" width="190.188" height="82.2348" filterUnits="userSpaceOnUse" color-interpolation-filters="sRGB">
<feFlood flood-opacity="0" result="BackgroundImageFix"/>
<feColorMatrix in="SourceAlpha" type="matrix" values="0 0 0 0 0 0 0 0 0 0 0 0 0 0 0 0 0 0 127 0" result="hardAlpha"/>
<feOffset/>
<feGaussianBlur stdDeviation="5.45"/>
<feComposite in2="hardAlpha" operator="out"/>
<feColorMatrix type="matrix" values="0 0 0 0 0.52018 0 0 0 0 0.531966 0 0 0 0 0.97198 0 0 0 0.3 0"/>
<feBlend mode="normal" in2="BackgroundImageFix" result="effect1_dropShadow_239_2412"/>
<feBlend mode="normal" in="SourceGraphic" in2="effect1_dropShadow_239_2412" result="shape"/>
</filter>
<linearGradient id="paint0_linear_239_2412" x1="155.024" y1="216.837" x2="208.134" y2="281.151" gradientUnits="userSpaceOnUse">
<stop stop-color="#FFF8E2"/>
<stop offset="0.5" stop-color="#CAF4DC"/>
<stop offset="1" stop-color="#75AFFF"/>
</linearGradient>
<linearGradient id="paint1_linear_239_2412" x1="91.7328" y1="141.726" x2="225.026" y2="219.126" gradientUnits="userSpaceOnUse">
<stop stop-color="#FFF8E2"/>
<stop offset="0.5" stop-color="#CAF4DC"/>
<stop offset="1" stop-color="#75AFFF"/>
</linearGradient>
<clipPath id="clip0_239_2412">
<rect width="191" height="133" fill="white" transform="translate(65 159)"/>
</clipPath>
</defs>
</svg>
