<svg width="325" height="452" viewBox="0 0 325 452" fill="none" xmlns="http://www.w3.org/2000/svg">
<g filter="url(#filter0_d_239_2358)">
<rect x="45.5" y="45" width="234" height="362" rx="8" fill="#111111"/>
</g>
<path d="M121.193 367.685H129.961V369.166H126.441V379H124.723V369.166H121.193V367.685ZM133.24 379H131.571V367.685H133.218V371.901H133.323C133.529 371.422 133.838 371.053 134.251 370.796C134.667 370.534 135.196 370.403 135.836 370.403C136.426 370.403 136.938 370.525 137.372 370.768C137.807 371.007 138.144 371.366 138.383 371.845C138.623 372.324 138.743 372.91 138.743 373.602V379H137.074V373.807C137.074 373.188 136.914 372.707 136.593 372.365C136.277 372.018 135.835 371.845 135.267 371.845C134.873 371.845 134.523 371.93 134.218 372.099C133.912 372.265 133.673 372.508 133.499 372.829C133.326 373.145 133.24 373.525 133.24 373.967V379ZM144.422 379.171C143.597 379.171 142.878 378.993 142.267 378.635C141.659 378.274 141.192 377.766 140.864 377.11C140.54 376.451 140.378 375.685 140.378 374.812C140.378 373.95 140.54 373.186 140.864 372.519C141.192 371.853 141.652 371.333 142.245 370.961C142.838 370.589 143.523 370.403 144.3 370.403C144.982 370.403 145.606 370.552 146.173 370.851C146.744 371.145 147.203 371.611 147.549 372.249C147.899 372.886 148.074 373.692 148.074 374.669V375.26H142.035C142.05 375.79 142.158 376.247 142.361 376.63C142.564 377.013 142.842 377.304 143.195 377.503C143.553 377.702 143.965 377.801 144.433 377.801C144.882 377.801 145.263 377.716 145.576 377.547C145.89 377.374 146.122 377.147 146.273 376.867H147.963C147.838 377.331 147.613 377.737 147.289 378.083C146.969 378.429 146.564 378.698 146.074 378.89C145.584 379.077 145.033 379.171 144.422 379.171ZM146.433 374.011C146.433 373.584 146.344 373.201 146.168 372.862C145.991 372.523 145.742 372.258 145.422 372.066C145.105 371.871 144.739 371.773 144.322 371.773C143.891 371.773 143.506 371.875 143.168 372.077C142.832 372.28 142.567 372.552 142.372 372.895C142.177 373.238 142.066 373.61 142.041 374.011H146.433ZM153.766 367.685H155.485V377.519H160.606V379H153.766V367.685ZM165.813 379.171C165.021 379.171 164.325 378.991 163.725 378.63C163.128 378.265 162.666 377.751 162.338 377.088C162.01 376.425 161.846 375.661 161.846 374.796C161.846 373.923 162.01 373.155 162.338 372.492C162.666 371.829 163.128 371.315 163.725 370.95C164.325 370.586 165.021 370.403 165.813 370.403C166.601 370.403 167.294 370.586 167.89 370.95C168.491 371.315 168.953 371.829 169.277 372.492C169.605 373.155 169.769 373.923 169.769 374.796C169.769 375.661 169.605 376.425 169.277 377.088C168.953 377.751 168.491 378.265 167.89 378.63C167.294 378.991 166.601 379.171 165.813 379.171ZM163.526 374.79C163.526 375.346 163.611 375.851 163.78 376.304C163.953 376.757 164.211 377.116 164.553 377.381C164.9 377.646 165.321 377.779 165.819 377.779C166.312 377.779 166.728 377.646 167.067 377.381C167.41 377.116 167.666 376.757 167.835 376.304C168.005 375.851 168.089 375.346 168.089 374.79C168.089 374.234 168.005 373.729 167.835 373.276C167.666 372.823 167.41 372.462 167.067 372.193C166.728 371.924 166.312 371.79 165.819 371.79C165.321 371.79 164.9 371.924 164.553 372.193C164.211 372.462 163.953 372.823 163.78 373.276C163.611 373.729 163.526 374.234 163.526 374.79ZM175.312 379H173.527L170.45 370.514H172.24L174.378 377.033H174.466L176.61 370.514H178.394L175.312 379ZM183.125 379.171C182.3 379.171 181.582 378.993 180.97 378.635C180.362 378.274 179.895 377.766 179.567 377.11C179.243 376.451 179.081 375.685 179.081 374.812C179.081 373.95 179.243 373.186 179.567 372.519C179.895 371.853 180.355 371.333 180.948 370.961C181.541 370.589 182.226 370.403 183.003 370.403C183.685 370.403 184.309 370.552 184.876 370.851C185.447 371.145 185.906 371.611 186.252 372.249C186.602 372.886 186.777 373.692 186.777 374.669V375.26H180.738C180.753 375.79 180.862 376.247 181.064 376.63C181.267 377.013 181.545 377.304 181.898 377.503C182.256 377.702 182.668 377.801 183.136 377.801C183.585 377.801 183.966 377.716 184.28 377.547C184.593 377.374 184.825 377.147 184.976 376.867H186.666C186.541 377.331 186.316 377.737 185.992 378.083C185.672 378.429 185.267 378.698 184.777 378.89C184.287 379.077 183.736 379.171 183.125 379.171ZM185.136 374.011C185.136 373.584 185.048 373.201 184.871 372.862C184.694 372.523 184.445 372.258 184.125 372.066C183.808 371.871 183.442 371.773 183.025 371.773C182.594 371.773 182.21 371.875 181.871 372.077C181.536 372.28 181.27 372.552 181.075 372.895C180.88 373.238 180.769 373.61 180.744 374.011H185.136ZM188.431 370.514H190.044V371.867H190.132C190.235 371.565 190.392 371.304 190.602 371.083C190.816 370.858 191.066 370.687 191.353 370.569C191.644 370.448 191.954 370.387 192.281 370.387C192.399 370.387 192.526 370.39 192.663 370.398C192.799 370.405 192.909 370.414 192.994 370.425V372.017C192.902 371.994 192.771 371.972 192.602 371.95C192.436 371.928 192.278 371.917 192.127 371.917C191.744 371.917 191.397 372 191.088 372.166C190.779 372.328 190.536 372.554 190.359 372.845C190.186 373.136 190.099 373.464 190.099 373.829V379H188.431V370.514ZM199.006 372.829C198.925 372.483 198.748 372.212 198.475 372.017C198.206 371.818 197.847 371.718 197.398 371.718C197.088 371.718 196.809 371.768 196.558 371.867C196.308 371.967 196.112 372.105 195.972 372.282C195.836 372.455 195.768 372.646 195.768 372.856C195.764 373.11 195.869 373.328 196.083 373.508C196.3 373.685 196.637 373.827 197.094 373.934L198.453 374.243C199.23 374.424 199.81 374.703 200.193 375.083C200.576 375.459 200.768 375.945 200.768 376.541C200.768 377.053 200.628 377.508 200.348 377.906C200.072 378.304 199.672 378.615 199.149 378.84C198.626 379.061 198.009 379.171 197.298 379.171C196.289 379.171 195.488 378.956 194.895 378.525C194.306 378.094 193.958 377.479 193.851 376.68H195.558C195.702 377.449 196.276 377.834 197.282 377.834C197.639 377.834 197.952 377.788 198.221 377.696C198.49 377.6 198.696 377.466 198.84 377.293C198.987 377.116 199.061 376.91 199.061 376.674C199.061 376.398 198.954 376.171 198.74 375.994C198.53 375.814 198.201 375.672 197.751 375.569L196.425 375.276C195.667 375.11 195.088 374.829 194.691 374.431C194.297 374.033 194.099 373.54 194.099 372.95C194.099 372.453 194.236 372.011 194.508 371.624C194.785 371.238 195.171 370.937 195.669 370.724C196.166 370.51 196.739 370.403 197.387 370.403C198.006 370.403 198.547 370.505 199.011 370.707C199.479 370.906 199.849 371.188 200.122 371.552C200.394 371.917 200.556 372.343 200.608 372.829H199.006Z" fill="#FFF8E2"/>
<path d="M161.477 82.1768H161.609L164.946 72.6851H166.427L162.283 84H160.803L156.659 72.6851H158.151L161.477 82.1768ZM169.363 84H167.96V72.6851H169.363V84Z" fill="#FFF8E2"/>
<g clip-path="url(#clip0_239_2358)">
<g filter="url(#filter1_d_239_2358)">
<path d="M160.5 167.559C143.742 150.832 116.599 150.832 99.8409 167.559C84.0992 183.27 84.0992 208.744 99.8409 224.428L101.709 226.293L160.555 285V167.559H160.5Z" fill="url(#paint0_linear_239_2358)"/>
</g>
<g filter="url(#filter2_d_239_2358)">
<path d="M160.5 167.559C177.258 150.832 204.401 150.832 221.159 167.559C236.901 183.27 236.901 208.744 221.159 224.428L219.291 226.293L160.445 285V167.559H160.5Z" fill="url(#paint1_linear_239_2358)"/>
</g>
</g>
<defs>
<filter id="filter0_d_239_2358" x="0.5" y="0" width="324" height="452" filterUnits="userSpaceOnUse" color-interpolation-filters="sRGB">
<feFlood flood-opacity="0" result="BackgroundImageFix"/>
<feColorMatrix in="SourceAlpha" type="matrix" values="0 0 0 0 0 0 0 0 0 0 0 0 0 0 0 0 0 0 127 0" result="hardAlpha"/>
<feMorphology radius="10" operator="dilate" in="SourceAlpha" result="effect1_dropShadow_239_2358"/>
<feOffset/>
<feGaussianBlur stdDeviation="17.5"/>
<feComposite in2="hardAlpha" operator="out"/>
<feColorMatrix type="matrix" values="0 0 0 0 0.792157 0 0 0 0 0.956863 0 0 0 0 0.862745 0 0 0 0.3 0"/>
<feBlend mode="normal" in2="BackgroundImageFix" result="effect1_dropShadow_239_2358"/>
<feBlend mode="normal" in="SourceGraphic" in2="effect1_dropShadow_239_2358" result="shape"/>
</filter>
<filter id="filter1_d_239_2358" x="77.1346" y="144.114" width="94.3206" height="151.786" filterUnits="userSpaceOnUse" color-interpolation-filters="sRGB">
<feFlood flood-opacity="0" result="BackgroundImageFix"/>
<feColorMatrix in="SourceAlpha" type="matrix" values="0 0 0 0 0 0 0 0 0 0 0 0 0 0 0 0 0 0 127 0" result="hardAlpha"/>
<feOffset/>
<feGaussianBlur stdDeviation="5.45"/>
<feComposite in2="hardAlpha" operator="out"/>
<feColorMatrix type="matrix" values="0 0 0 0 0.52018 0 0 0 0 0.531966 0 0 0 0 0.97198 0 0 0 0.3 0"/>
<feBlend mode="normal" in2="BackgroundImageFix" result="effect1_dropShadow_239_2358"/>
<feBlend mode="normal" in="SourceGraphic" in2="effect1_dropShadow_239_2358" result="shape"/>
</filter>
<filter id="filter2_d_239_2358" x="149.545" y="144.114" width="94.3206" height="151.786" filterUnits="userSpaceOnUse" color-interpolation-filters="sRGB">
<feFlood flood-opacity="0" result="BackgroundImageFix"/>
<feColorMatrix in="SourceAlpha" type="matrix" values="0 0 0 0 0 0 0 0 0 0 0 0 0 0 0 0 0 0 127 0" result="hardAlpha"/>
<feOffset/>
<feGaussianBlur stdDeviation="5.45"/>
<feComposite in2="hardAlpha" operator="out"/>
<feColorMatrix type="matrix" values="0 0 0 0 0.52018 0 0 0 0 0.531966 0 0 0 0 0.97198 0 0 0 0.3 0"/>
<feBlend mode="normal" in2="BackgroundImageFix" result="effect1_dropShadow_239_2358"/>
<feBlend mode="normal" in="SourceGraphic" in2="effect1_dropShadow_239_2358" result="shape"/>
</filter>
<linearGradient id="paint0_linear_239_2358" x1="104" y1="155" x2="161" y2="285" gradientUnits="userSpaceOnUse">
<stop stop-color="#FFF8E2"/>
<stop offset="0.5" stop-color="#CAF4DC"/>
<stop offset="1" stop-color="#75AFFF"/>
</linearGradient>
<linearGradient id="paint1_linear_239_2358" x1="233" y1="165" x2="165.5" y2="271" gradientUnits="userSpaceOnUse">
<stop stop-color="#FFF8E2"/>
<stop offset="0.5" stop-color="#CAF4DC"/>
<stop offset="1" stop-color="#75AFFF"/>
</linearGradient>
<clipPath id="clip0_239_2358">
<rect width="167" height="152" fill="white" transform="translate(77 144)"/>
</clipPath>
</defs>
</svg>
