<svg width="335" height="462" viewBox="0 0 335 462" fill="none" xmlns="http://www.w3.org/2000/svg">
<g filter="url(#filter0_d_239_2365)">
<rect x="50.5" y="50" width="234" height="362" rx="8" fill="#111111"/>
</g>
<path d="M141.096 375.663C141.059 375.32 140.938 375.026 140.732 374.779C140.529 374.532 140.258 374.344 139.919 374.215C139.584 374.083 139.201 374.017 138.77 374.017C138.317 374.017 137.919 374.088 137.577 374.232C137.234 374.376 136.969 374.575 136.781 374.829C136.597 375.079 136.505 375.365 136.505 375.685C136.501 376.164 136.695 376.534 137.085 376.796C137.479 377.053 137.971 377.254 138.56 377.398L139.66 377.685C140.577 377.91 141.348 378.269 141.975 378.762C142.601 379.252 142.914 379.954 142.914 380.867C142.914 381.512 142.748 382.085 142.417 382.586C142.085 383.087 141.603 383.479 140.969 383.762C140.339 384.046 139.59 384.188 138.72 384.188C137.881 384.188 137.15 384.055 136.527 383.79C135.905 383.521 135.417 383.138 135.063 382.641C134.713 382.14 134.52 381.549 134.483 380.867H136.207C136.24 381.262 136.371 381.595 136.599 381.867C136.827 382.14 137.124 382.344 137.488 382.481C137.857 382.613 138.266 382.68 138.715 382.68C139.194 382.68 139.621 382.604 139.997 382.453C140.376 382.298 140.673 382.083 140.886 381.807C141.104 381.53 141.212 381.212 141.212 380.851C141.212 380.534 141.122 380.269 140.941 380.055C140.761 379.842 140.518 379.667 140.212 379.53C139.906 379.39 139.525 379.26 139.069 379.138L137.737 378.779C136.787 378.521 136.057 378.149 135.549 377.663C135.041 377.173 134.787 376.547 134.787 375.785C134.787 375.144 134.962 374.576 135.312 374.083C135.662 373.589 136.142 373.208 136.754 372.939C137.365 372.667 138.05 372.53 138.809 372.53C139.564 372.53 140.238 372.665 140.831 372.934C141.424 373.203 141.89 373.575 142.229 374.05C142.568 374.525 142.744 375.063 142.759 375.663H141.096ZM148.593 376.845H146.864V381.503C146.864 381.941 146.954 382.239 147.134 382.398C147.315 382.552 147.563 382.632 147.88 382.635C147.98 382.635 148.213 382.626 148.582 382.608L148.709 382.602V384.039C148.436 384.087 148.092 384.11 147.676 384.11C147.223 384.11 146.808 384.028 146.433 383.862C146.057 383.692 145.757 383.438 145.532 383.099C145.307 382.757 145.195 382.339 145.195 381.845V376.845H143.952V375.514H145.195V373.481H146.864V375.514H148.593V376.845ZM150.22 375.514H151.833V376.867H151.921C152.024 376.565 152.181 376.304 152.391 376.083C152.605 375.858 152.855 375.687 153.142 375.569C153.433 375.448 153.743 375.387 154.071 375.387C154.188 375.387 154.315 375.39 154.452 375.398C154.588 375.405 154.699 375.414 154.783 375.425V377.017C154.691 376.994 154.56 376.972 154.391 376.95C154.225 376.928 154.067 376.917 153.916 376.917C153.533 376.917 153.187 377 152.877 377.166C152.568 377.328 152.325 377.554 152.148 377.845C151.975 378.136 151.888 378.464 151.888 378.829V384H150.22V375.514ZM159.43 384.171C158.605 384.171 157.886 383.993 157.275 383.635C156.667 383.274 156.199 382.766 155.872 382.11C155.547 381.451 155.385 380.685 155.385 379.812C155.385 378.95 155.547 378.186 155.872 377.519C156.199 376.853 156.66 376.333 157.253 375.961C157.846 375.589 158.531 375.403 159.308 375.403C159.989 375.403 160.614 375.552 161.181 375.851C161.752 376.145 162.21 376.611 162.557 377.249C162.907 377.886 163.081 378.692 163.081 379.669V380.26H157.043C157.058 380.79 157.166 381.247 157.369 381.63C157.571 382.013 157.849 382.304 158.203 382.503C158.56 382.702 158.973 382.801 159.441 382.801C159.89 382.801 160.271 382.716 160.584 382.547C160.897 382.374 161.129 382.147 161.28 381.867H162.971C162.846 382.331 162.621 382.737 162.297 383.083C161.977 383.429 161.571 383.698 161.081 383.89C160.592 384.077 160.041 384.171 159.43 384.171ZM161.441 379.011C161.441 378.584 161.352 378.201 161.175 377.862C160.999 377.523 160.75 377.258 160.43 377.066C160.113 376.871 159.746 376.773 159.33 376.773C158.899 376.773 158.514 376.875 158.175 377.077C157.84 377.28 157.575 377.552 157.38 377.895C157.185 378.238 157.074 378.61 157.048 379.011H161.441ZM166.404 384H164.735V375.514H166.338V376.901H166.443C166.645 376.433 166.958 376.066 167.382 375.801C167.805 375.536 168.326 375.403 168.945 375.403C169.531 375.403 170.039 375.527 170.47 375.773C170.905 376.017 171.24 376.378 171.476 376.856C171.715 377.335 171.835 377.917 171.835 378.602V384H170.166V378.807C170.166 378.401 170.094 378.052 169.951 377.757C169.811 377.462 169.606 377.238 169.338 377.083C169.069 376.924 168.748 376.845 168.376 376.845C167.989 376.845 167.647 376.93 167.349 377.099C167.054 377.265 166.822 377.508 166.652 377.829C166.487 378.145 166.404 378.525 166.404 378.967V384ZM177.429 387.359C176.715 387.359 176.087 387.258 175.545 387.055C175.008 386.856 174.58 386.565 174.264 386.182C173.951 385.803 173.77 385.35 173.722 384.823H175.424C175.501 385.221 175.715 385.519 176.065 385.718C176.418 385.921 176.879 386.022 177.446 386.022C178.131 386.022 178.661 385.866 179.037 385.552C179.416 385.243 179.606 384.766 179.606 384.122V382.453H179.496C179.286 382.843 178.995 383.179 178.623 383.459C178.251 383.735 177.722 383.873 177.037 383.873C176.359 383.873 175.752 383.709 175.214 383.381C174.68 383.053 174.258 382.573 173.949 381.939C173.639 381.306 173.485 380.549 173.485 379.669C173.485 378.788 173.637 378.028 173.943 377.387C174.249 376.742 174.671 376.25 175.208 375.912C175.75 375.573 176.365 375.403 177.054 375.403C177.536 375.403 177.941 375.484 178.269 375.646C178.597 375.805 178.849 375.987 179.026 376.193C179.203 376.4 179.365 376.632 179.512 376.89H179.623V375.514H181.253V384.182C181.253 384.886 181.089 385.475 180.761 385.95C180.433 386.425 179.982 386.779 179.407 387.011C178.836 387.243 178.177 387.359 177.429 387.359ZM175.181 379.702C175.181 380.262 175.265 380.751 175.435 381.171C175.604 381.591 175.857 381.917 176.192 382.149C176.527 382.381 176.934 382.497 177.413 382.497C177.881 382.497 178.28 382.387 178.612 382.166C178.943 381.945 179.194 381.624 179.363 381.204C179.536 380.785 179.623 380.284 179.623 379.702C179.623 379.127 179.536 378.624 179.363 378.193C179.194 377.759 178.943 377.422 178.612 377.182C178.28 376.943 177.881 376.823 177.413 376.823C176.93 376.823 176.521 376.948 176.186 377.199C175.855 377.446 175.604 377.786 175.435 378.221C175.265 378.656 175.181 379.149 175.181 379.702ZM187.249 376.845H185.52V381.503C185.52 381.941 185.61 382.239 185.79 382.398C185.971 382.552 186.22 382.632 186.536 382.635C186.636 382.635 186.87 382.626 187.238 382.608L187.365 382.602V384.039C187.093 384.087 186.748 384.11 186.332 384.11C185.879 384.11 185.465 384.028 185.089 383.862C184.713 383.692 184.413 383.438 184.188 383.099C183.964 382.757 183.851 382.339 183.851 381.845V376.845H182.608V375.514H183.851V373.481H185.52V375.514H187.249V376.845ZM190.716 384H189.048V372.685H190.694V376.901H190.799C191.005 376.422 191.315 376.053 191.727 375.796C192.144 375.534 192.672 375.403 193.313 375.403C193.902 375.403 194.414 375.525 194.849 375.768C195.284 376.007 195.621 376.366 195.86 376.845C196.099 377.324 196.219 377.91 196.219 378.602V384H194.551V378.807C194.551 378.188 194.39 377.707 194.07 377.365C193.753 377.018 193.311 376.845 192.744 376.845C192.35 376.845 192 376.93 191.694 377.099C191.389 377.265 191.149 377.508 190.976 377.829C190.803 378.145 190.716 378.525 190.716 378.967V384Z" fill="#B48AEB"/>
<path d="M162.57 87.1768H162.703L166.04 77.6851H167.521L163.377 89H161.896L157.753 77.6851H159.245L162.57 87.1768ZM170.457 89H169.053V77.6851H170.457V89ZM174.363 89H172.96V77.6851H174.363V89ZM178.269 89H176.866V77.6851H178.269V89Z" fill="#B48AEB"/>
<g clip-path="url(#clip0_239_2365)">
<g filter="url(#filter1_d_239_2365)">
<path d="M253 197.676C246.814 178.564 235.405 164.957 215.314 160.438L223.267 155.219C206.322 144.234 188.363 142.494 168.974 153.115C149.611 142.494 131.626 144.208 114.681 155.219L122.634 160.438C102.595 164.957 91.1856 178.564 85 197.676H92.3292C84.3502 215.439 84.896 234.006 89.1844 252.884L99.2426 243.276C96.2017 261.843 101.166 274.957 113.485 283.007L120.814 269.426C122.426 284.721 130.639 294.875 143.01 301.834L152.21 292.226C154.342 305.288 160.657 311.78 169.026 315.026C177.395 311.78 183.71 305.288 185.842 292.226L195.042 301.834C207.413 294.875 215.626 284.695 217.238 269.426L224.567 283.007C236.886 274.931 241.85 261.843 238.809 243.276L248.868 252.884C253.182 234.006 253.702 215.439 245.723 197.676H253.052H253Z" fill="url(#paint0_linear_239_2365)"/>
</g>
<g filter="url(#filter2_d_239_2365)">
<path d="M191.196 262.7C191.196 272.828 181.267 282.929 169 282.929C156.733 282.929 146.804 272.828 146.804 262.7C146.804 252.573 156.733 257.481 169 257.481C181.267 257.481 191.196 252.573 191.196 262.7Z" fill="url(#paint1_linear_239_2365)"/>
</g>
<g filter="url(#filter3_d_239_2365)">
<path d="M184.646 178.071C178.954 178.071 173.626 180.018 169 183.394C164.4 180.018 159.072 178.071 153.354 178.071C136.071 178.071 122.088 195.729 122.088 217.542C122.088 229.513 126.324 240.238 133.004 247.457C134.849 249.457 135.733 252.027 135.733 254.728V254.78C135.733 262.83 143.634 269.348 153.354 269.348C160.163 269.348 166.063 266.154 169 261.48C171.937 266.154 177.837 269.348 184.646 269.348C194.392 269.348 202.267 262.83 202.267 254.78V254.728C202.267 252.027 203.151 249.457 204.996 247.457C211.676 240.212 215.912 229.513 215.912 217.542C215.912 195.755 201.903 178.071 184.646 178.071ZM176.667 246.964L172.301 252.962C170.663 255.196 167.337 255.196 165.699 252.962L161.333 246.964C159.358 244.263 161.307 240.498 164.634 240.498H173.366C176.693 240.498 178.616 244.289 176.667 246.964Z" fill="url(#paint2_linear_239_2365)"/>
</g>
</g>
<defs>
<filter id="filter0_d_239_2365" x="0.5" y="0" width="334" height="462" filterUnits="userSpaceOnUse" color-interpolation-filters="sRGB">
<feFlood flood-opacity="0" result="BackgroundImageFix"/>
<feColorMatrix in="SourceAlpha" type="matrix" values="0 0 0 0 0 0 0 0 0 0 0 0 0 0 0 0 0 0 127 0" result="hardAlpha"/>
<feMorphology radius="15" operator="dilate" in="SourceAlpha" result="effect1_dropShadow_239_2365"/>
<feOffset/>
<feGaussianBlur stdDeviation="17.5"/>
<feComposite in2="hardAlpha" operator="out"/>
<feColorMatrix type="matrix" values="0 0 0 0 0 0 0 0 0 0.192157 0 0 0 0 0.67451 0 0 0 0.3 0"/>
<feBlend mode="normal" in2="BackgroundImageFix" result="effect1_dropShadow_239_2365"/>
<feBlend mode="normal" in="SourceGraphic" in2="effect1_dropShadow_239_2365" result="shape"/>
</filter>
<filter id="filter1_d_239_2365" x="74.1" y="135.092" width="189.852" height="190.834" filterUnits="userSpaceOnUse" color-interpolation-filters="sRGB">
<feFlood flood-opacity="0" result="BackgroundImageFix"/>
<feColorMatrix in="SourceAlpha" type="matrix" values="0 0 0 0 0 0 0 0 0 0 0 0 0 0 0 0 0 0 127 0" result="hardAlpha"/>
<feOffset/>
<feGaussianBlur stdDeviation="5.45"/>
<feComposite in2="hardAlpha" operator="out"/>
<feColorMatrix type="matrix" values="0 0 0 0 0.52018 0 0 0 0 0.531966 0 0 0 0 0.97198 0 0 0 0.3 0"/>
<feBlend mode="normal" in2="BackgroundImageFix" result="effect1_dropShadow_239_2365"/>
<feBlend mode="normal" in="SourceGraphic" in2="effect1_dropShadow_239_2365" result="shape"/>
</filter>
<filter id="filter2_d_239_2365" x="135.904" y="245.392" width="66.1911" height="48.4376" filterUnits="userSpaceOnUse" color-interpolation-filters="sRGB">
<feFlood flood-opacity="0" result="BackgroundImageFix"/>
<feColorMatrix in="SourceAlpha" type="matrix" values="0 0 0 0 0 0 0 0 0 0 0 0 0 0 0 0 0 0 127 0" result="hardAlpha"/>
<feOffset/>
<feGaussianBlur stdDeviation="5.45"/>
<feComposite in2="hardAlpha" operator="out"/>
<feColorMatrix type="matrix" values="0 0 0 0 0.52018 0 0 0 0 0.531966 0 0 0 0 0.97198 0 0 0 0.3 0"/>
<feBlend mode="normal" in2="BackgroundImageFix" result="effect1_dropShadow_239_2365"/>
<feBlend mode="normal" in="SourceGraphic" in2="effect1_dropShadow_239_2365" result="shape"/>
</filter>
<filter id="filter3_d_239_2365" x="111.188" y="167.171" width="115.624" height="113.078" filterUnits="userSpaceOnUse" color-interpolation-filters="sRGB">
<feFlood flood-opacity="0" result="BackgroundImageFix"/>
<feColorMatrix in="SourceAlpha" type="matrix" values="0 0 0 0 0 0 0 0 0 0 0 0 0 0 0 0 0 0 127 0" result="hardAlpha"/>
<feOffset/>
<feGaussianBlur stdDeviation="5.45"/>
<feComposite in2="hardAlpha" operator="out"/>
<feColorMatrix type="matrix" values="0 0 0 0 0.52018 0 0 0 0 0.531966 0 0 0 0 0.97198 0 0 0 0.3 0"/>
<feBlend mode="normal" in2="BackgroundImageFix" result="effect1_dropShadow_239_2365"/>
<feBlend mode="normal" in="SourceGraphic" in2="effect1_dropShadow_239_2365" result="shape"/>
</filter>
<linearGradient id="paint0_linear_239_2365" x1="115" y1="137.5" x2="202" y2="292.5" gradientUnits="userSpaceOnUse">
<stop stop-color="#B48AEB"/>
<stop offset="0.5" stop-color="#6C6FDF"/>
<stop offset="1" stop-color="#0031AC"/>
</linearGradient>
<linearGradient id="paint1_linear_239_2365" x1="163" y1="259" x2="173" y2="283" gradientUnits="userSpaceOnUse">
<stop stop-color="#0031AC"/>
<stop offset="0.5" stop-color="#6C6FDF"/>
<stop offset="1" stop-color="#B48AEB"/>
</linearGradient>
<linearGradient id="paint2_linear_239_2365" x1="204" y1="175.5" x2="138.5" y2="262" gradientUnits="userSpaceOnUse">
<stop stop-color="#0031AC"/>
<stop offset="0.5" stop-color="#6C6FDF"/>
<stop offset="1" stop-color="#B48AEB"/>
</linearGradient>
<clipPath id="clip0_239_2365">
<rect width="190" height="191" fill="white" transform="translate(74 135)"/>
</clipPath>
</defs>
</svg>
