<svg width="335" height="462" viewBox="0 0 335 462" fill="none" xmlns="http://www.w3.org/2000/svg">
<g filter="url(#filter0_d_239_2405)">
<rect x="50.5" y="50" width="234" height="362" rx="8" fill="#111111"/>
</g>
<path d="M104.255 372.685H113.023V374.166H109.504V384H107.786V374.166H104.255V372.685ZM116.302 384H114.634V372.685H116.28V376.901H116.385C116.591 376.422 116.901 376.053 117.313 375.796C117.73 375.534 118.258 375.403 118.899 375.403C119.488 375.403 120 375.525 120.435 375.768C120.869 376.007 121.207 376.366 121.446 376.845C121.685 377.324 121.805 377.91 121.805 378.602V384H120.137V378.807C120.137 378.188 119.976 377.707 119.656 377.365C119.339 377.018 118.897 376.845 118.33 376.845C117.936 376.845 117.586 376.93 117.28 377.099C116.974 377.265 116.735 377.508 116.562 377.829C116.389 378.145 116.302 378.525 116.302 378.967V384ZM127.484 384.171C126.659 384.171 125.941 383.993 125.33 383.635C124.722 383.274 124.254 382.766 123.926 382.11C123.602 381.451 123.44 380.685 123.44 379.812C123.44 378.95 123.602 378.186 123.926 377.519C124.254 376.853 124.714 376.333 125.307 375.961C125.9 375.589 126.586 375.403 127.363 375.403C128.044 375.403 128.668 375.552 129.236 375.851C129.807 376.145 130.265 376.611 130.611 377.249C130.961 377.886 131.136 378.692 131.136 379.669V380.26H125.098C125.112 380.79 125.221 381.247 125.423 381.63C125.626 382.013 125.904 382.304 126.258 382.503C126.615 382.702 127.028 382.801 127.495 382.801C127.945 382.801 128.326 382.716 128.639 382.547C128.952 382.374 129.184 382.147 129.335 381.867H131.026C130.9 382.331 130.676 382.737 130.352 383.083C130.031 383.429 129.626 383.698 129.136 383.89C128.646 384.077 128.096 384.171 127.484 384.171ZM129.495 379.011C129.495 378.584 129.407 378.201 129.23 377.862C129.053 377.523 128.805 377.258 128.484 377.066C128.167 376.871 127.801 376.773 127.385 376.773C126.954 376.773 126.569 376.875 126.23 377.077C125.895 377.28 125.63 377.552 125.435 377.895C125.239 378.238 125.129 378.61 125.103 379.011H129.495ZM136.829 372.685H138.547V377.597H144.177V372.685H145.901V384H144.177V379.072H138.547V384H136.829V372.685ZM147.673 381.602C147.673 380.729 147.97 380.105 148.563 379.729C149.16 379.354 149.92 379.133 150.845 379.066C151.206 379.044 151.598 379.022 152.022 379C152.445 378.978 152.797 378.961 153.077 378.95V378.26C153.077 377.777 152.929 377.405 152.635 377.144C152.34 376.882 151.911 376.751 151.348 376.751C150.872 376.751 150.484 376.849 150.182 377.044C149.883 377.239 149.69 377.501 149.602 377.829H147.939C147.99 377.361 148.165 376.943 148.464 376.575C148.762 376.206 149.163 375.919 149.668 375.713C150.176 375.506 150.756 375.403 151.408 375.403C151.946 375.403 152.464 375.486 152.961 375.652C153.458 375.818 153.878 376.122 154.22 376.564C154.567 377.002 154.74 377.602 154.74 378.365V384H153.115V382.84H153.049C152.931 383.076 152.762 383.295 152.541 383.497C152.324 383.7 152.045 383.866 151.707 383.994C151.371 384.123 150.983 384.188 150.541 384.188C149.996 384.188 149.506 384.087 149.071 383.884C148.64 383.681 148.3 383.385 148.049 382.994C147.799 382.604 147.673 382.14 147.673 381.602ZM149.309 381.624C149.309 382.022 149.454 382.328 149.745 382.541C150.04 382.751 150.429 382.856 150.911 382.856C151.349 382.856 151.732 382.768 152.06 382.591C152.392 382.414 152.644 382.18 152.817 381.89C152.994 381.595 153.082 381.278 153.082 380.939V380.166C152.802 380.18 152.136 380.225 151.082 380.298C150.519 380.339 150.082 380.47 149.773 380.691C149.464 380.908 149.309 381.219 149.309 381.624ZM158.427 384H156.759V375.514H158.361V376.901H158.466C158.669 376.433 158.982 376.066 159.405 375.801C159.829 375.536 160.35 375.403 160.969 375.403C161.554 375.403 162.063 375.527 162.494 375.773C162.928 376.017 163.263 376.378 163.499 376.856C163.739 377.335 163.858 377.917 163.858 378.602V384H162.19V378.807C162.19 378.401 162.118 378.052 161.974 377.757C161.834 377.462 161.63 377.238 161.361 377.083C161.092 376.924 160.772 376.845 160.4 376.845C160.013 376.845 159.67 376.93 159.372 377.099C159.077 377.265 158.845 377.508 158.676 377.829C158.51 378.145 158.427 378.525 158.427 378.967V384ZM169.453 387.359C168.738 387.359 168.11 387.258 167.569 387.055C167.031 386.856 166.604 386.565 166.287 386.182C165.974 385.803 165.794 385.35 165.746 384.823H167.447C167.525 385.221 167.738 385.519 168.088 385.718C168.442 385.921 168.902 386.022 169.469 386.022C170.154 386.022 170.685 385.866 171.061 385.552C171.44 385.243 171.63 384.766 171.63 384.122V382.453H171.519C171.309 382.843 171.018 383.179 170.646 383.459C170.274 383.735 169.746 383.873 169.061 383.873C168.383 383.873 167.775 383.709 167.237 383.381C166.703 383.053 166.282 382.573 165.972 381.939C165.663 381.306 165.508 380.549 165.508 379.669C165.508 378.788 165.661 378.028 165.967 377.387C166.272 376.742 166.694 376.25 167.232 375.912C167.773 375.573 168.388 375.403 169.077 375.403C169.56 375.403 169.965 375.484 170.293 375.646C170.62 375.805 170.873 375.987 171.05 376.193C171.226 376.4 171.388 376.632 171.536 376.89H171.646V375.514H173.276V384.182C173.276 384.886 173.112 385.475 172.784 385.95C172.457 386.425 172.005 386.779 171.431 387.011C170.86 387.243 170.201 387.359 169.453 387.359ZM167.204 379.702C167.204 380.262 167.289 380.751 167.458 381.171C167.628 381.591 167.88 381.917 168.215 382.149C168.55 382.381 168.957 382.497 169.436 382.497C169.904 382.497 170.304 382.387 170.635 382.166C170.967 381.945 171.217 381.624 171.387 381.204C171.56 380.785 171.646 380.284 171.646 379.702C171.646 379.127 171.56 378.624 171.387 378.193C171.217 377.759 170.967 377.422 170.635 377.182C170.304 376.943 169.904 376.823 169.436 376.823C168.954 376.823 168.545 376.948 168.21 377.199C167.878 377.446 167.628 377.786 167.458 378.221C167.289 378.656 167.204 379.149 167.204 379.702ZM178.969 384.171C178.144 384.171 177.425 383.993 176.814 383.635C176.206 383.274 175.738 382.766 175.411 382.11C175.086 381.451 174.924 380.685 174.924 379.812C174.924 378.95 175.086 378.186 175.411 377.519C175.738 376.853 176.199 376.333 176.792 375.961C177.385 375.589 178.07 375.403 178.847 375.403C179.528 375.403 180.153 375.552 180.72 375.851C181.291 376.145 181.749 376.611 182.096 377.249C182.446 377.886 182.621 378.692 182.621 379.669V380.26H176.582C176.597 380.79 176.705 381.247 176.908 381.63C177.11 382.013 177.389 382.304 177.742 382.503C178.099 382.702 178.512 382.801 178.98 382.801C179.429 382.801 179.81 382.716 180.123 382.547C180.436 382.374 180.668 382.147 180.819 381.867H182.51C182.385 382.331 182.16 382.737 181.836 383.083C181.516 383.429 181.11 383.698 180.621 383.89C180.131 384.077 179.58 384.171 178.969 384.171ZM180.98 379.011C180.98 378.584 180.891 378.201 180.714 377.862C180.538 377.523 180.289 377.258 179.969 377.066C179.652 376.871 179.285 376.773 178.869 376.773C178.438 376.773 178.053 376.875 177.714 377.077C177.379 377.28 177.114 377.552 176.919 377.895C176.724 378.238 176.613 378.61 176.587 379.011H180.98ZM187.451 384.166C186.766 384.166 186.155 383.989 185.617 383.635C185.079 383.282 184.657 382.773 184.352 382.11C184.05 381.448 183.899 380.669 183.899 379.773C183.899 378.875 184.052 378.096 184.357 377.436C184.663 376.777 185.087 376.274 185.628 375.928C186.169 375.578 186.783 375.403 187.468 375.403C187.95 375.403 188.354 375.484 188.678 375.646C189.006 375.805 189.256 375.987 189.429 376.193C189.602 376.4 189.762 376.632 189.91 376.89H189.998V372.685H191.667V384H190.037V382.68H189.91C189.766 382.934 189.602 383.166 189.418 383.376C189.234 383.586 188.978 383.77 188.65 383.928C188.326 384.087 187.926 384.166 187.451 384.166ZM185.595 379.757C185.595 380.331 185.68 380.845 185.849 381.298C186.022 381.748 186.276 382.101 186.611 382.359C186.947 382.617 187.352 382.746 187.827 382.746C188.291 382.746 188.689 382.622 189.02 382.376C189.352 382.125 189.604 381.775 189.777 381.326C189.95 380.873 190.037 380.35 190.037 379.757C190.037 379.164 189.95 378.648 189.777 378.21C189.608 377.768 189.357 377.427 189.026 377.188C188.694 376.945 188.295 376.823 187.827 376.823C187.344 376.823 186.936 376.948 186.6 377.199C186.265 377.449 186.013 377.796 185.843 378.238C185.678 378.68 185.595 379.186 185.595 379.757ZM199.97 372.685L203.561 381.453H203.693L207.279 372.685H209.373V384H207.732V375.834H207.627L204.301 383.983H202.942L199.616 375.818H199.522V384H197.876V372.685H199.97ZM211.142 381.602C211.142 380.729 211.439 380.105 212.032 379.729C212.628 379.354 213.389 379.133 214.313 379.066C214.674 379.044 215.067 379.022 215.49 379C215.914 378.978 216.266 378.961 216.546 378.95V378.26C216.546 377.777 216.398 377.405 216.104 377.144C215.809 376.882 215.38 376.751 214.816 376.751C214.341 376.751 213.953 376.849 213.651 377.044C213.352 377.239 213.159 377.501 213.07 377.829H211.407C211.459 377.361 211.634 376.943 211.932 376.575C212.231 376.206 212.632 375.919 213.137 375.713C213.645 375.506 214.225 375.403 214.877 375.403C215.415 375.403 215.932 375.486 216.43 375.652C216.927 375.818 217.347 376.122 217.689 376.564C218.035 377.002 218.209 377.602 218.209 378.365V384H216.584V382.84H216.518C216.4 383.076 216.231 383.295 216.01 383.497C215.792 383.7 215.514 383.866 215.175 383.994C214.84 384.123 214.452 384.188 214.01 384.188C213.465 384.188 212.975 384.087 212.54 383.884C212.109 383.681 211.768 383.385 211.518 382.994C211.267 382.604 211.142 382.14 211.142 381.602ZM212.778 381.624C212.778 382.022 212.923 382.328 213.214 382.541C213.509 382.751 213.897 382.856 214.38 382.856C214.818 382.856 215.201 382.768 215.529 382.591C215.86 382.414 216.113 382.18 216.286 381.89C216.463 381.595 216.551 381.278 216.551 380.939V380.166C216.271 380.18 215.604 380.225 214.551 380.298C213.988 380.339 213.551 380.47 213.242 380.691C212.932 380.908 212.778 381.219 212.778 381.624ZM221.896 384H220.228V375.514H221.83V376.901H221.935C222.137 376.433 222.45 376.066 222.874 375.801C223.297 375.536 223.819 375.403 224.437 375.403C225.023 375.403 225.531 375.527 225.962 375.773C226.397 376.017 226.732 376.378 226.968 376.856C227.207 377.335 227.327 377.917 227.327 378.602V384H225.658V378.807C225.658 378.401 225.587 378.052 225.443 377.757C225.303 377.462 225.099 377.238 224.83 377.083C224.561 376.924 224.24 376.845 223.868 376.845C223.482 376.845 223.139 376.93 222.841 377.099C222.546 377.265 222.314 377.508 222.145 377.829C221.979 378.145 221.896 378.525 221.896 378.967V384Z" fill="#B48AEB"/>
<path d="M164.046 82.3591H164.135L167.03 77.6851H168.687L165.129 83.3425L168.687 89H167.03L164.135 84.4144H164.046L161.151 89H159.494L163.14 83.3425L159.494 77.6851H161.162L164.046 82.3591ZM171.644 89H170.241V77.6851H171.644V89ZM175.55 89H174.147V77.6851H175.55V89Z" fill="#B48AEB"/>
<g clip-path="url(#clip0_239_2405)">
<g filter="url(#filter1_d_239_2405)">
<path d="M234.143 208.239H175.245V285.293H234.143V208.239Z" fill="url(#paint0_linear_239_2405)"/>
</g>
<g filter="url(#filter2_d_239_2405)">
<path d="M169.531 234.397C154.262 221.316 106.917 208.909 86.0452 203.245C83.4593 202.571 81.6123 200.009 81.6123 196.975V190.097C81.6123 186.726 83.644 183.692 86.6609 182.815C123.786 172.296 170.208 171.555 198.776 185.782L200.5 180.185C216.076 177.825 232.761 178.23 250 180.185L245.998 223.946C245.998 230.486 239.965 236.689 235.039 233.52C202.285 212.483 186.524 222.395 175.195 234.195C173.656 235.813 171.316 235.813 169.593 234.397H169.531Z" fill="url(#paint1_linear_239_2405)"/>
</g>
</g>
<defs>
<filter id="filter0_d_239_2405" x="0.5" y="0" width="334" height="462" filterUnits="userSpaceOnUse" color-interpolation-filters="sRGB">
<feFlood flood-opacity="0" result="BackgroundImageFix"/>
<feColorMatrix in="SourceAlpha" type="matrix" values="0 0 0 0 0 0 0 0 0 0 0 0 0 0 0 0 0 0 127 0" result="hardAlpha"/>
<feMorphology radius="15" operator="dilate" in="SourceAlpha" result="effect1_dropShadow_239_2405"/>
<feOffset/>
<feGaussianBlur stdDeviation="17.5"/>
<feComposite in2="hardAlpha" operator="out"/>
<feColorMatrix type="matrix" values="0 0 0 0 0 0 0 0 0 0.192157 0 0 0 0 0.67451 0 0 0 0.3 0"/>
<feBlend mode="normal" in2="BackgroundImageFix" result="effect1_dropShadow_239_2405"/>
<feBlend mode="normal" in="SourceGraphic" in2="effect1_dropShadow_239_2405" result="shape"/>
</filter>
<filter id="filter1_d_239_2405" x="164.345" y="197.339" width="80.6979" height="98.8544" filterUnits="userSpaceOnUse" color-interpolation-filters="sRGB">
<feFlood flood-opacity="0" result="BackgroundImageFix"/>
<feColorMatrix in="SourceAlpha" type="matrix" values="0 0 0 0 0 0 0 0 0 0 0 0 0 0 0 0 0 0 127 0" result="hardAlpha"/>
<feOffset/>
<feGaussianBlur stdDeviation="5.45"/>
<feComposite in2="hardAlpha" operator="out"/>
<feColorMatrix type="matrix" values="0 0 0 0 0.52018 0 0 0 0 0.531966 0 0 0 0 0.97198 0 0 0 0.3 0"/>
<feBlend mode="normal" in2="BackgroundImageFix" result="effect1_dropShadow_239_2405"/>
<feBlend mode="normal" in="SourceGraphic" in2="effect1_dropShadow_239_2405" result="shape"/>
</filter>
<filter id="filter2_d_239_2405" x="70.7123" y="164.1" width="190.188" height="82.2348" filterUnits="userSpaceOnUse" color-interpolation-filters="sRGB">
<feFlood flood-opacity="0" result="BackgroundImageFix"/>
<feColorMatrix in="SourceAlpha" type="matrix" values="0 0 0 0 0 0 0 0 0 0 0 0 0 0 0 0 0 0 127 0" result="hardAlpha"/>
<feOffset/>
<feGaussianBlur stdDeviation="5.45"/>
<feComposite in2="hardAlpha" operator="out"/>
<feColorMatrix type="matrix" values="0 0 0 0 0.52018 0 0 0 0 0.531966 0 0 0 0 0.97198 0 0 0 0.3 0"/>
<feBlend mode="normal" in2="BackgroundImageFix" result="effect1_dropShadow_239_2405"/>
<feBlend mode="normal" in="SourceGraphic" in2="effect1_dropShadow_239_2405" result="shape"/>
</filter>
<linearGradient id="paint0_linear_239_2405" x1="160.024" y1="221.837" x2="213.134" y2="286.151" gradientUnits="userSpaceOnUse">
<stop stop-color="#B48AEB"/>
<stop offset="0.5" stop-color="#6C6FDF"/>
<stop offset="1" stop-color="#0031AC"/>
</linearGradient>
<linearGradient id="paint1_linear_239_2405" x1="96.7328" y1="146.726" x2="230.026" y2="224.126" gradientUnits="userSpaceOnUse">
<stop stop-color="#B48AEB"/>
<stop offset="0.5" stop-color="#6C6FDF"/>
<stop offset="1" stop-color="#0031AC"/>
</linearGradient>
<clipPath id="clip0_239_2405">
<rect width="191" height="133" fill="white" transform="translate(70 164)"/>
</clipPath>
</defs>
</svg>
