<svg width="325" height="452" viewBox="0 0 325 452" fill="none" xmlns="http://www.w3.org/2000/svg">
<g filter="url(#filter0_d_239_2393)">
<rect x="45.5" y="45" width="234" height="362" rx="8" fill="#111111"/>
</g>
<path d="M141.968 367.685V375.702C141.968 376.42 141.825 377.039 141.537 377.558C141.254 378.077 140.852 378.473 140.333 378.746C139.817 379.018 139.213 379.155 138.521 379.155C137.873 379.155 137.294 379.039 136.786 378.807C136.278 378.571 135.878 378.228 135.587 377.779C135.3 377.326 135.156 376.788 135.156 376.166H136.869C136.869 376.475 136.941 376.746 137.084 376.978C137.228 377.206 137.427 377.383 137.681 377.508C137.939 377.63 138.232 377.691 138.559 377.691C139.101 377.691 139.517 377.521 139.808 377.182C140.099 376.843 140.246 376.35 140.25 375.702V367.685H141.968ZM149.528 370.514H151.186V379H149.556V377.53H149.468C149.261 378.006 148.939 378.389 148.501 378.68C148.066 378.967 147.543 379.11 146.932 379.11C146.379 379.11 145.893 378.989 145.473 378.746C145.053 378.499 144.725 378.136 144.49 377.657C144.258 377.179 144.142 376.597 144.142 375.912V370.514H145.81V375.707C145.81 376.087 145.882 376.42 146.026 376.707C146.169 376.991 146.372 377.21 146.633 377.365C146.895 377.519 147.195 377.597 147.534 377.597C147.858 377.597 148.173 377.517 148.479 377.359C148.784 377.197 149.035 376.958 149.23 376.641C149.429 376.32 149.528 375.932 149.528 375.475V370.514ZM157.982 372.829C157.901 372.483 157.724 372.212 157.452 372.017C157.183 371.818 156.824 371.718 156.374 371.718C156.065 371.718 155.785 371.768 155.535 371.867C155.284 371.967 155.089 372.105 154.949 372.282C154.813 372.455 154.745 372.646 154.745 372.856C154.741 373.11 154.846 373.328 155.059 373.508C155.277 373.685 155.614 373.827 156.071 373.934L157.43 374.243C158.207 374.424 158.787 374.703 159.17 375.083C159.553 375.459 159.745 375.945 159.745 376.541C159.745 377.053 159.605 377.508 159.325 377.906C159.048 378.304 158.649 378.615 158.126 378.84C157.603 379.061 156.986 379.171 156.275 379.171C155.266 379.171 154.465 378.956 153.872 378.525C153.282 378.094 152.934 377.479 152.827 376.68H154.535C154.678 377.449 155.253 377.834 156.258 377.834C156.616 377.834 156.929 377.788 157.198 377.696C157.466 377.6 157.673 377.466 157.816 377.293C157.964 377.116 158.037 376.91 158.037 376.674C158.037 376.398 157.931 376.171 157.717 375.994C157.507 375.814 157.177 375.672 156.728 375.569L155.402 375.276C154.643 375.11 154.065 374.829 153.667 374.431C153.273 374.033 153.076 373.54 153.076 372.95C153.076 372.453 153.212 372.011 153.485 371.624C153.761 371.238 154.148 370.937 154.645 370.724C155.142 370.51 155.715 370.403 156.363 370.403C156.982 370.403 157.524 370.505 157.988 370.707C158.455 370.906 158.826 371.188 159.098 371.552C159.371 371.917 159.533 372.343 159.584 372.829H157.982ZM165.358 371.845H163.629V376.503C163.629 376.941 163.719 377.239 163.9 377.398C164.08 377.552 164.329 377.632 164.646 377.635C164.745 377.635 164.979 377.626 165.347 377.608L165.474 377.602V379.039C165.202 379.087 164.858 379.11 164.441 379.11C163.988 379.11 163.574 379.028 163.198 378.862C162.823 378.692 162.522 378.438 162.298 378.099C162.073 377.757 161.961 377.339 161.961 376.845V371.845H160.718V370.514H161.961V368.481H163.629V370.514H165.358V371.845ZM166.985 370.514H168.654V379H166.985V370.514ZM167.831 369.21C167.639 369.21 167.462 369.166 167.3 369.077C167.142 368.989 167.015 368.869 166.919 368.718C166.823 368.567 166.775 368.401 166.775 368.221C166.775 368.041 166.823 367.875 166.919 367.724C167.015 367.573 167.142 367.453 167.3 367.365C167.462 367.276 167.639 367.232 167.831 367.232C168.018 367.232 168.192 367.276 168.35 367.365C168.512 367.453 168.639 367.573 168.731 367.724C168.827 367.875 168.875 368.041 168.875 368.221C168.875 368.401 168.827 368.567 168.731 368.718C168.639 368.869 168.512 368.989 168.35 369.077C168.192 369.166 168.018 369.21 167.831 369.21ZM174.274 379.171C173.467 379.171 172.764 378.987 172.164 378.619C171.567 378.247 171.108 377.729 170.788 377.066C170.467 376.403 170.307 375.646 170.307 374.796C170.307 373.937 170.469 373.177 170.793 372.514C171.121 371.847 171.583 371.33 172.18 370.961C172.777 370.589 173.469 370.403 174.258 370.403C174.895 370.403 175.467 370.523 175.976 370.762C176.488 370.998 176.898 371.331 177.208 371.762C177.521 372.193 177.705 372.692 177.76 373.26H176.141C176.079 372.987 175.967 372.74 175.804 372.519C175.646 372.298 175.436 372.123 175.175 371.994C174.917 371.866 174.618 371.801 174.28 371.801C173.823 371.801 173.421 371.923 173.075 372.166C172.729 372.405 172.46 372.748 172.269 373.193C172.081 373.639 171.987 374.16 171.987 374.757C171.987 375.368 172.081 375.901 172.269 376.354C172.456 376.803 172.723 377.149 173.07 377.392C173.416 377.635 173.819 377.757 174.28 377.757C174.755 377.757 175.158 377.63 175.49 377.376C175.821 377.122 176.038 376.766 176.141 376.309H177.76C177.701 376.862 177.521 377.355 177.219 377.79C176.92 378.221 176.519 378.56 176.014 378.807C175.51 379.05 174.93 379.171 174.274 379.171ZM183.008 379.171C182.183 379.171 181.464 378.993 180.853 378.635C180.245 378.274 179.777 377.766 179.45 377.11C179.126 376.451 178.963 375.685 178.963 374.812C178.963 373.95 179.126 373.186 179.45 372.519C179.777 371.853 180.238 371.333 180.831 370.961C181.424 370.589 182.109 370.403 182.886 370.403C183.568 370.403 184.192 370.552 184.759 370.851C185.33 371.145 185.789 371.611 186.135 372.249C186.485 372.886 186.66 373.692 186.66 374.669V375.26H180.621C180.636 375.79 180.744 376.247 180.947 376.63C181.149 377.013 181.428 377.304 181.781 377.503C182.138 377.702 182.551 377.801 183.019 377.801C183.468 377.801 183.849 377.716 184.162 377.547C184.475 377.374 184.707 377.147 184.859 376.867H186.549C186.424 377.331 186.199 377.737 185.875 378.083C185.555 378.429 185.149 378.698 184.66 378.89C184.17 379.077 183.619 379.171 183.008 379.171ZM185.019 374.011C185.019 373.584 184.93 373.201 184.754 372.862C184.577 372.523 184.328 372.258 184.008 372.066C183.691 371.871 183.324 371.773 182.908 371.773C182.477 371.773 182.092 371.875 181.754 372.077C181.418 372.28 181.153 372.552 180.958 372.895C180.763 373.238 180.652 373.61 180.626 374.011H185.019Z" fill="#FFF8E2"/>
<path d="M160.999 77.3591H161.088L163.983 72.6851H165.64L162.082 78.3425L165.64 84H163.983L161.088 79.4144H160.999L158.104 84H156.447L160.093 78.3425L156.447 72.6851H158.115L160.999 77.3591ZM168.597 84H167.194V72.6851H168.597V84Z" fill="#FFF8E2"/>
<g clip-path="url(#clip0_239_2393)">
<g filter="url(#filter1_d_239_2393)">
<path d="M221.684 166.027H105.217V175.278H221.684V166.027Z" fill="url(#paint0_linear_239_2393)"/>
</g>
<g filter="url(#filter2_d_239_2393)">
<path d="M150.795 301.342V175.278H176.089V301.342C171.147 306.287 168.383 309.054 163.442 314L150.795 301.342Z" fill="url(#paint1_linear_239_2393)"/>
</g>
<g filter="url(#filter3_d_239_2393)">
<path d="M163.442 128C168.659 128 172.892 132.237 172.892 137.459V166.027H153.991V137.459C153.991 132.237 158.224 128 163.442 128Z" fill="url(#paint2_linear_239_2393)"/>
</g>
<g filter="url(#filter4_d_239_2393)">
<path d="M124.775 222.124H85.6414L105.199 171.37L124.757 222.124H124.775ZM89.7707 219.288H120.663L105.217 179.204L89.7707 219.288Z" fill="url(#paint3_linear_239_2393)"/>
</g>
<g filter="url(#filter5_d_239_2393)">
<path d="M125.138 218.994C125.138 230.373 115.929 239.59 104.56 239.59C93.1916 239.59 84 230.373 84 218.994H125.138Z" fill="url(#paint4_linear_239_2393)"/>
</g>
<g filter="url(#filter6_d_239_2393)">
<path d="M240.551 221.986H201.435L220.993 171.232L240.551 221.986ZM205.547 219.15H236.439L220.993 179.065L205.547 219.15Z" fill="url(#paint5_linear_239_2393)"/>
</g>
<g filter="url(#filter7_d_239_2393)">
<path d="M240.914 218.856C240.914 230.234 231.705 239.451 220.336 239.451C208.968 239.451 199.759 230.234 199.759 218.856H240.896H240.914Z" fill="url(#paint6_linear_239_2393)"/>
</g>
</g>
<defs>
<filter id="filter0_d_239_2393" x="0.5" y="0" width="324" height="452" filterUnits="userSpaceOnUse" color-interpolation-filters="sRGB">
<feFlood flood-opacity="0" result="BackgroundImageFix"/>
<feColorMatrix in="SourceAlpha" type="matrix" values="0 0 0 0 0 0 0 0 0 0 0 0 0 0 0 0 0 0 127 0" result="hardAlpha"/>
<feMorphology radius="10" operator="dilate" in="SourceAlpha" result="effect1_dropShadow_239_2393"/>
<feOffset/>
<feGaussianBlur stdDeviation="17.5"/>
<feComposite in2="hardAlpha" operator="out"/>
<feColorMatrix type="matrix" values="0 0 0 0 0.792157 0 0 0 0 0.956863 0 0 0 0 0.862745 0 0 0 0.3 0"/>
<feBlend mode="normal" in2="BackgroundImageFix" result="effect1_dropShadow_239_2393"/>
<feBlend mode="normal" in="SourceGraphic" in2="effect1_dropShadow_239_2393" result="shape"/>
</filter>
<filter id="filter1_d_239_2393" x="94.3167" y="155.127" width="138.267" height="31.0516" filterUnits="userSpaceOnUse" color-interpolation-filters="sRGB">
<feFlood flood-opacity="0" result="BackgroundImageFix"/>
<feColorMatrix in="SourceAlpha" type="matrix" values="0 0 0 0 0 0 0 0 0 0 0 0 0 0 0 0 0 0 127 0" result="hardAlpha"/>
<feOffset/>
<feGaussianBlur stdDeviation="5.45"/>
<feComposite in2="hardAlpha" operator="out"/>
<feColorMatrix type="matrix" values="0 0 0 0 0.52018 0 0 0 0 0.531966 0 0 0 0 0.97198 0 0 0 0.3 0"/>
<feBlend mode="normal" in2="BackgroundImageFix" result="effect1_dropShadow_239_2393"/>
<feBlend mode="normal" in="SourceGraphic" in2="effect1_dropShadow_239_2393" result="shape"/>
</filter>
<filter id="filter2_d_239_2393" x="139.895" y="164.378" width="47.0942" height="160.522" filterUnits="userSpaceOnUse" color-interpolation-filters="sRGB">
<feFlood flood-opacity="0" result="BackgroundImageFix"/>
<feColorMatrix in="SourceAlpha" type="matrix" values="0 0 0 0 0 0 0 0 0 0 0 0 0 0 0 0 0 0 127 0" result="hardAlpha"/>
<feOffset/>
<feGaussianBlur stdDeviation="5.45"/>
<feComposite in2="hardAlpha" operator="out"/>
<feColorMatrix type="matrix" values="0 0 0 0 0.52018 0 0 0 0 0.531966 0 0 0 0 0.97198 0 0 0 0.3 0"/>
<feBlend mode="normal" in2="BackgroundImageFix" result="effect1_dropShadow_239_2393"/>
<feBlend mode="normal" in="SourceGraphic" in2="effect1_dropShadow_239_2393" result="shape"/>
</filter>
<filter id="filter3_d_239_2393" x="143.091" y="117.1" width="40.7015" height="59.8266" filterUnits="userSpaceOnUse" color-interpolation-filters="sRGB">
<feFlood flood-opacity="0" result="BackgroundImageFix"/>
<feColorMatrix in="SourceAlpha" type="matrix" values="0 0 0 0 0 0 0 0 0 0 0 0 0 0 0 0 0 0 127 0" result="hardAlpha"/>
<feOffset/>
<feGaussianBlur stdDeviation="5.45"/>
<feComposite in2="hardAlpha" operator="out"/>
<feColorMatrix type="matrix" values="0 0 0 0 0.52018 0 0 0 0 0.531966 0 0 0 0 0.97198 0 0 0 0.3 0"/>
<feBlend mode="normal" in2="BackgroundImageFix" result="effect1_dropShadow_239_2393"/>
<feBlend mode="normal" in="SourceGraphic" in2="effect1_dropShadow_239_2393" result="shape"/>
</filter>
<filter id="filter4_d_239_2393" x="74.7414" y="160.47" width="60.9334" height="72.554" filterUnits="userSpaceOnUse" color-interpolation-filters="sRGB">
<feFlood flood-opacity="0" result="BackgroundImageFix"/>
<feColorMatrix in="SourceAlpha" type="matrix" values="0 0 0 0 0 0 0 0 0 0 0 0 0 0 0 0 0 0 127 0" result="hardAlpha"/>
<feOffset/>
<feGaussianBlur stdDeviation="5.45"/>
<feComposite in2="hardAlpha" operator="out"/>
<feColorMatrix type="matrix" values="0 0 0 0 0.52018 0 0 0 0 0.531966 0 0 0 0 0.97198 0 0 0 0.3 0"/>
<feBlend mode="normal" in2="BackgroundImageFix" result="effect1_dropShadow_239_2393"/>
<feBlend mode="normal" in="SourceGraphic" in2="effect1_dropShadow_239_2393" result="shape"/>
</filter>
<filter id="filter5_d_239_2393" x="73.1" y="208.094" width="62.9376" height="42.3956" filterUnits="userSpaceOnUse" color-interpolation-filters="sRGB">
<feFlood flood-opacity="0" result="BackgroundImageFix"/>
<feColorMatrix in="SourceAlpha" type="matrix" values="0 0 0 0 0 0 0 0 0 0 0 0 0 0 0 0 0 0 127 0" result="hardAlpha"/>
<feOffset/>
<feGaussianBlur stdDeviation="5.45"/>
<feComposite in2="hardAlpha" operator="out"/>
<feColorMatrix type="matrix" values="0 0 0 0 0.52018 0 0 0 0 0.531966 0 0 0 0 0.97198 0 0 0 0.3 0"/>
<feBlend mode="normal" in2="BackgroundImageFix" result="effect1_dropShadow_239_2393"/>
<feBlend mode="normal" in="SourceGraphic" in2="effect1_dropShadow_239_2393" result="shape"/>
</filter>
<filter id="filter6_d_239_2393" x="190.535" y="160.332" width="60.9161" height="72.554" filterUnits="userSpaceOnUse" color-interpolation-filters="sRGB">
<feFlood flood-opacity="0" result="BackgroundImageFix"/>
<feColorMatrix in="SourceAlpha" type="matrix" values="0 0 0 0 0 0 0 0 0 0 0 0 0 0 0 0 0 0 127 0" result="hardAlpha"/>
<feOffset/>
<feGaussianBlur stdDeviation="5.45"/>
<feComposite in2="hardAlpha" operator="out"/>
<feColorMatrix type="matrix" values="0 0 0 0 0.52018 0 0 0 0 0.531966 0 0 0 0 0.97198 0 0 0 0.3 0"/>
<feBlend mode="normal" in2="BackgroundImageFix" result="effect1_dropShadow_239_2393"/>
<feBlend mode="normal" in="SourceGraphic" in2="effect1_dropShadow_239_2393" result="shape"/>
</filter>
<filter id="filter7_d_239_2393" x="188.859" y="207.956" width="62.9548" height="42.3956" filterUnits="userSpaceOnUse" color-interpolation-filters="sRGB">
<feFlood flood-opacity="0" result="BackgroundImageFix"/>
<feColorMatrix in="SourceAlpha" type="matrix" values="0 0 0 0 0 0 0 0 0 0 0 0 0 0 0 0 0 0 127 0" result="hardAlpha"/>
<feOffset/>
<feGaussianBlur stdDeviation="5.45"/>
<feComposite in2="hardAlpha" operator="out"/>
<feColorMatrix type="matrix" values="0 0 0 0 0.52018 0 0 0 0 0.531966 0 0 0 0 0.97198 0 0 0 0.3 0"/>
<feBlend mode="normal" in2="BackgroundImageFix" result="effect1_dropShadow_239_2393"/>
<feBlend mode="normal" in="SourceGraphic" in2="effect1_dropShadow_239_2393" result="shape"/>
</filter>
<linearGradient id="paint0_linear_239_2393" x1="148.836" y1="140.257" x2="191.122" y2="196.118" gradientUnits="userSpaceOnUse">
<stop stop-color="#FFF8E2"/>
<stop offset="0.5" stop-color="#CAF4DC"/>
<stop offset="1" stop-color="#75AFFF"/>
</linearGradient>
<linearGradient id="paint1_linear_239_2393" x1="214.46" y1="192.988" x2="109.044" y2="294.577" gradientUnits="userSpaceOnUse">
<stop stop-color="#75AFFF"/>
<stop offset="0.5" stop-color="#CAF4DC"/>
<stop offset="1" stop-color="#FFF8E2"/>
</linearGradient>
<linearGradient id="paint2_linear_239_2393" x1="152.246" y1="125.406" x2="172.144" y2="170.354" gradientUnits="userSpaceOnUse">
<stop stop-color="#FFF8E2"/>
<stop offset="0.5" stop-color="#CAF4DC"/>
<stop offset="1" stop-color="#75AFFF"/>
</linearGradient>
<linearGradient id="paint3_linear_239_2393" x1="97.822" y1="171.232" x2="122.044" y2="218.769" gradientUnits="userSpaceOnUse">
<stop stop-color="#FFF8E2"/>
<stop offset="0.5" stop-color="#CAF4DC"/>
<stop offset="1" stop-color="#75AFFF"/>
</linearGradient>
<linearGradient id="paint4_linear_239_2393" x1="86.5916" y1="216.192" x2="112.531" y2="242.109" gradientUnits="userSpaceOnUse">
<stop stop-color="#FFF8E2"/>
<stop offset="0.5" stop-color="#CAF4DC"/>
<stop offset="1" stop-color="#75AFFF"/>
</linearGradient>
<linearGradient id="paint5_linear_239_2393" x1="209.175" y1="171.093" x2="241.178" y2="221.216" gradientUnits="userSpaceOnUse">
<stop stop-color="#FFF8E2"/>
<stop offset="0.5" stop-color="#CAF4DC"/>
<stop offset="1" stop-color="#75AFFF"/>
</linearGradient>
<linearGradient id="paint6_linear_239_2393" x1="199.759" y1="215.328" x2="230.016" y2="240.376" gradientUnits="userSpaceOnUse">
<stop stop-color="#FFF8E2"/>
<stop offset="0.5" stop-color="#CAF4DC"/>
<stop offset="1" stop-color="#75AFFF"/>
</linearGradient>
<clipPath id="clip0_239_2393">
<rect width="179" height="208" fill="white" transform="translate(73 117)"/>
</clipPath>
</defs>
</svg>
