<svg width="325" height="452" viewBox="0 0 325 452" fill="none" xmlns="http://www.w3.org/2000/svg">
<g filter="url(#filter0_d_239_2426)">
<rect x="45.5" y="45" width="234" height="362" rx="8" fill="#111111"/>
</g>
<path d="M126.536 367.685H135.304V369.166H131.785V379H130.067V369.166H126.536V367.685ZM138.584 379H136.915V367.685H138.561V371.901H138.666C138.873 371.422 139.182 371.053 139.595 370.796C140.011 370.534 140.539 370.403 141.18 370.403C141.77 370.403 142.281 370.525 142.716 370.768C143.151 371.007 143.488 371.366 143.727 371.845C143.967 372.324 144.086 372.91 144.086 373.602V379H142.418V373.807C142.418 373.188 142.258 372.707 141.937 372.365C141.62 372.018 141.178 371.845 140.611 371.845C140.217 371.845 139.867 371.93 139.561 372.099C139.256 372.265 139.016 372.508 138.843 372.829C138.67 373.145 138.584 373.525 138.584 373.967V379ZM149.765 379.171C148.94 379.171 148.222 378.993 147.611 378.635C147.003 378.274 146.535 377.766 146.207 377.11C145.883 376.451 145.721 375.685 145.721 374.812C145.721 373.95 145.883 373.186 146.207 372.519C146.535 371.853 146.996 371.333 147.589 370.961C148.182 370.589 148.867 370.403 149.644 370.403C150.325 370.403 150.95 370.552 151.517 370.851C152.088 371.145 152.546 371.611 152.893 372.249C153.242 372.886 153.417 373.692 153.417 374.669V375.26H147.379C147.393 375.79 147.502 376.247 147.705 376.63C147.907 377.013 148.185 377.304 148.539 377.503C148.896 377.702 149.309 377.801 149.777 377.801C150.226 377.801 150.607 377.716 150.92 377.547C151.233 377.374 151.465 377.147 151.616 376.867H153.307C153.182 377.331 152.957 377.737 152.633 378.083C152.312 378.429 151.907 378.698 151.417 378.89C150.928 379.077 150.377 379.171 149.765 379.171ZM151.777 374.011C151.777 373.584 151.688 373.201 151.511 372.862C151.335 372.523 151.086 372.258 150.765 372.066C150.449 371.871 150.082 371.773 149.666 371.773C149.235 371.773 148.85 371.875 148.511 372.077C148.176 372.28 147.911 372.552 147.716 372.895C147.521 373.238 147.41 373.61 147.384 374.011H151.777ZM165.276 370.663C165.239 370.32 165.117 370.026 164.911 369.779C164.709 369.532 164.438 369.344 164.099 369.215C163.764 369.083 163.381 369.017 162.95 369.017C162.497 369.017 162.099 369.088 161.757 369.232C161.414 369.376 161.149 369.575 160.961 369.829C160.777 370.079 160.685 370.365 160.685 370.685C160.681 371.164 160.874 371.534 161.265 371.796C161.659 372.053 162.151 372.254 162.74 372.398L163.839 372.685C164.757 372.91 165.528 373.269 166.154 373.762C166.78 374.252 167.094 374.954 167.094 375.867C167.094 376.512 166.928 377.085 166.596 377.586C166.265 378.087 165.782 378.479 165.149 378.762C164.519 379.046 163.769 379.188 162.9 379.188C162.06 379.188 161.329 379.055 160.707 378.79C160.084 378.521 159.596 378.138 159.243 377.641C158.893 377.14 158.699 376.549 158.663 375.867H160.386C160.42 376.262 160.55 376.595 160.779 376.867C161.007 377.14 161.303 377.344 161.668 377.481C162.036 377.613 162.445 377.68 162.895 377.68C163.373 377.68 163.801 377.604 164.176 377.453C164.556 377.298 164.852 377.083 165.066 376.807C165.283 376.53 165.392 376.212 165.392 375.851C165.392 375.534 165.302 375.269 165.121 375.055C164.941 374.842 164.698 374.667 164.392 374.53C164.086 374.39 163.705 374.26 163.248 374.138L161.917 373.779C160.966 373.521 160.237 373.149 159.729 372.663C159.221 372.173 158.966 371.547 158.966 370.785C158.966 370.144 159.141 369.576 159.491 369.083C159.841 368.589 160.322 368.208 160.933 367.939C161.545 367.667 162.23 367.53 162.989 367.53C163.744 367.53 164.418 367.665 165.011 367.934C165.604 368.203 166.07 368.575 166.408 369.05C166.747 369.525 166.924 370.063 166.939 370.663H165.276ZM172.772 371.845H171.043V376.503C171.043 376.941 171.133 377.239 171.314 377.398C171.494 377.552 171.743 377.632 172.06 377.635C172.159 377.635 172.393 377.626 172.761 377.608L172.889 377.602V379.039C172.616 379.087 172.272 379.11 171.855 379.11C171.402 379.11 170.988 379.028 170.612 378.862C170.237 378.692 169.936 378.438 169.712 378.099C169.487 377.757 169.375 377.339 169.375 376.845V371.845H168.132V370.514H169.375V368.481H171.043V370.514H172.772V371.845ZM174.002 376.602C174.002 375.729 174.298 375.105 174.891 374.729C175.488 374.354 176.248 374.133 177.173 374.066C177.534 374.044 177.926 374.022 178.35 374C178.773 373.978 179.125 373.961 179.405 373.95V373.26C179.405 372.777 179.258 372.405 178.963 372.144C178.668 371.882 178.239 371.751 177.676 371.751C177.2 371.751 176.812 371.849 176.51 372.044C176.212 372.239 176.018 372.501 175.93 372.829H174.267C174.318 372.361 174.493 371.943 174.792 371.575C175.09 371.206 175.491 370.919 175.996 370.713C176.504 370.506 177.084 370.403 177.736 370.403C178.274 370.403 178.792 370.486 179.289 370.652C179.786 370.818 180.206 371.122 180.549 371.564C180.895 372.002 181.068 372.602 181.068 373.365V379H179.444V377.84H179.377C179.259 378.076 179.09 378.295 178.869 378.497C178.652 378.7 178.374 378.866 178.035 378.994C177.7 379.123 177.311 379.188 176.869 379.188C176.324 379.188 175.834 379.087 175.399 378.884C174.968 378.681 174.628 378.385 174.377 377.994C174.127 377.604 174.002 377.14 174.002 376.602ZM175.637 376.624C175.637 377.022 175.782 377.328 176.073 377.541C176.368 377.751 176.757 377.856 177.239 377.856C177.677 377.856 178.061 377.768 178.388 377.591C178.72 377.414 178.972 377.18 179.145 376.89C179.322 376.595 179.41 376.278 179.41 375.939V375.166C179.131 375.18 178.464 375.225 177.41 375.298C176.847 375.339 176.41 375.47 176.101 375.691C175.792 375.908 175.637 376.219 175.637 376.624ZM183.087 370.514H184.7V371.867H184.789C184.892 371.565 185.048 371.304 185.258 371.083C185.472 370.858 185.722 370.687 186.01 370.569C186.301 370.448 186.61 370.387 186.938 370.387C187.056 370.387 187.183 370.39 187.319 370.398C187.455 370.405 187.566 370.414 187.65 370.425V372.017C187.558 371.994 187.428 371.972 187.258 371.95C187.092 371.928 186.934 371.917 186.783 371.917C186.4 371.917 186.054 372 185.744 372.166C185.435 372.328 185.192 372.554 185.015 372.845C184.842 373.136 184.755 373.464 184.755 373.829V379H183.087V370.514ZM193.662 372.829C193.581 372.483 193.404 372.212 193.131 372.017C192.863 371.818 192.503 371.718 192.054 371.718C191.745 371.718 191.465 371.768 191.214 371.867C190.964 371.967 190.769 372.105 190.629 372.282C190.492 372.455 190.424 372.646 190.424 372.856C190.421 373.11 190.526 373.328 190.739 373.508C190.956 373.685 191.293 373.827 191.75 373.934L193.109 374.243C193.886 374.424 194.467 374.703 194.85 375.083C195.233 375.459 195.424 375.945 195.424 376.541C195.424 377.053 195.284 377.508 195.004 377.906C194.728 378.304 194.328 378.615 193.805 378.84C193.282 379.061 192.666 379.171 191.955 379.171C190.945 379.171 190.144 378.956 189.551 378.525C188.962 378.094 188.614 377.479 188.507 376.68H190.214C190.358 377.449 190.933 377.834 191.938 377.834C192.295 377.834 192.608 377.788 192.877 377.696C193.146 377.6 193.352 377.466 193.496 377.293C193.643 377.116 193.717 376.91 193.717 376.674C193.717 376.398 193.61 376.171 193.397 375.994C193.187 375.814 192.857 375.672 192.408 375.569L191.082 375.276C190.323 375.11 189.745 374.829 189.347 374.431C188.953 374.033 188.756 373.54 188.756 372.95C188.756 372.453 188.892 372.011 189.165 371.624C189.441 371.238 189.828 370.937 190.325 370.724C190.822 370.51 191.395 370.403 192.043 370.403C192.662 370.403 193.203 370.505 193.667 370.707C194.135 370.906 194.505 371.188 194.778 371.552C195.05 371.917 195.212 372.343 195.264 372.829H193.662Z" fill="#FFF8E2"/>
<path d="M153.882 77.3591H153.97L156.866 72.6851H158.523L154.965 78.3425L158.523 84H156.866L153.97 79.4144H153.882L150.987 84H149.33L152.976 78.3425L149.33 72.6851H150.998L153.882 77.3591ZM163.922 82.1768H164.055L167.392 72.6851H168.872L164.729 84H163.248L159.104 72.6851H160.596L163.922 82.1768ZM171.808 84H170.405V72.6851H171.808V84ZM175.714 84H174.311V72.6851H175.714V84Z" fill="#FFF8E2"/>
<g clip-path="url(#clip0_239_2426)">
<g filter="url(#filter1_d_239_2426)">
<path d="M162.496 319L150.174 255.252L120.264 267.736L132.748 237.826L69 225.496L132.748 213.174L120.264 183.264L150.174 195.748L162.496 132V319Z" fill="url(#paint0_linear_239_2426)"/>
</g>
<g filter="url(#filter2_d_239_2426)">
<path d="M162.496 319L174.826 255.252L204.736 267.736L192.252 237.826L256 225.496L192.252 213.174L204.736 183.264L174.826 195.748L162.496 132V319Z" fill="url(#paint1_linear_239_2426)"/>
</g>
</g>
<defs>
<filter id="filter0_d_239_2426" x="0.5" y="0" width="324" height="452" filterUnits="userSpaceOnUse" color-interpolation-filters="sRGB">
<feFlood flood-opacity="0" result="BackgroundImageFix"/>
<feColorMatrix in="SourceAlpha" type="matrix" values="0 0 0 0 0 0 0 0 0 0 0 0 0 0 0 0 0 0 127 0" result="hardAlpha"/>
<feMorphology radius="10" operator="dilate" in="SourceAlpha" result="effect1_dropShadow_239_2426"/>
<feOffset/>
<feGaussianBlur stdDeviation="17.5"/>
<feComposite in2="hardAlpha" operator="out"/>
<feColorMatrix type="matrix" values="0 0 0 0 0.792157 0 0 0 0 0.956863 0 0 0 0 0.862745 0 0 0 0.3 0"/>
<feBlend mode="normal" in2="BackgroundImageFix" result="effect1_dropShadow_239_2426"/>
<feBlend mode="normal" in="SourceGraphic" in2="effect1_dropShadow_239_2426" result="shape"/>
</filter>
<filter id="filter1_d_239_2426" x="58.1" y="121.1" width="115.296" height="208.8" filterUnits="userSpaceOnUse" color-interpolation-filters="sRGB">
<feFlood flood-opacity="0" result="BackgroundImageFix"/>
<feColorMatrix in="SourceAlpha" type="matrix" values="0 0 0 0 0 0 0 0 0 0 0 0 0 0 0 0 0 0 127 0" result="hardAlpha"/>
<feOffset/>
<feGaussianBlur stdDeviation="5.45"/>
<feComposite in2="hardAlpha" operator="out"/>
<feColorMatrix type="matrix" values="0 0 0 0 0.52018 0 0 0 0 0.531966 0 0 0 0 0.97198 0 0 0 0.3 0"/>
<feBlend mode="normal" in2="BackgroundImageFix" result="effect1_dropShadow_239_2426"/>
<feBlend mode="normal" in="SourceGraphic" in2="effect1_dropShadow_239_2426" result="shape"/>
</filter>
<filter id="filter2_d_239_2426" x="151.596" y="121.1" width="115.304" height="208.8" filterUnits="userSpaceOnUse" color-interpolation-filters="sRGB">
<feFlood flood-opacity="0" result="BackgroundImageFix"/>
<feColorMatrix in="SourceAlpha" type="matrix" values="0 0 0 0 0 0 0 0 0 0 0 0 0 0 0 0 0 0 127 0" result="hardAlpha"/>
<feOffset/>
<feGaussianBlur stdDeviation="5.45"/>
<feComposite in2="hardAlpha" operator="out"/>
<feColorMatrix type="matrix" values="0 0 0 0 0.52018 0 0 0 0 0.531966 0 0 0 0 0.97198 0 0 0 0.3 0"/>
<feBlend mode="normal" in2="BackgroundImageFix" result="effect1_dropShadow_239_2426"/>
<feBlend mode="normal" in="SourceGraphic" in2="effect1_dropShadow_239_2426" result="shape"/>
</filter>
<linearGradient id="paint0_linear_239_2426" x1="115.998" y1="132" x2="168.136" y2="319.257" gradientUnits="userSpaceOnUse">
<stop stop-color="#FFF8E2"/>
<stop offset="0.5" stop-color="#CAF4DC"/>
<stop offset="1" stop-color="#75AFFF"/>
</linearGradient>
<linearGradient id="paint1_linear_239_2426" x1="168.87" y1="170.553" x2="209.259" y2="319.257" gradientUnits="userSpaceOnUse">
<stop stop-color="#FFF8E2"/>
<stop offset="0.5" stop-color="#CAF4DC"/>
<stop offset="1" stop-color="#75AFFF"/>
</linearGradient>
<clipPath id="clip0_239_2426">
<rect width="209" height="209" fill="white" transform="translate(58 121)"/>
</clipPath>
</defs>
</svg>
