<svg width="27" height="22" viewBox="0 0 27 22" fill="none" xmlns="http://www.w3.org/2000/svg">
<path d="M25.3819 1.14594e-06H1.11667C0.637111 1.14594e-06 0.25 0.367126 0.25 0.825001V4.125H26.25V0.825001C26.25 0.716545 26.2275 0.609153 26.1839 0.508969C26.1402 0.408786 26.0763 0.317778 25.9956 0.241151C25.915 0.164525 25.8193 0.103785 25.714 0.0624054C25.6087 0.0210262 25.4958 -0.000179615 25.3819 1.14594e-06ZM1.69444 20.075C1.69444 21.1338 2.603 22 3.71522 22H22.7819C23.8941 22 24.8041 21.1324 24.8041 20.075V5.5H1.69444V20.075ZM8.91667 8.25H17.5833V11H8.91667V8.25Z" fill="white"/>
</svg>
