<svg width="28" height="28" viewBox="0 0 28 28" fill="none" xmlns="http://www.w3.org/2000/svg">
<path d="M13.75 23.3337C14.0766 23.3337 14.3918 23.4536 14.6358 23.6706C14.8799 23.8876 15.0358 24.1867 15.074 24.511L15.0833 24.667V26.0003C15.083 26.3402 14.9528 26.667 14.7195 26.9142C14.4863 27.1613 14.1674 27.31 13.8281 27.3299C13.4889 27.3498 13.1548 27.2394 12.8942 27.0213C12.6336 26.8032 12.4661 26.4938 12.426 26.1563L12.4167 26.0003V24.667C12.4167 24.3134 12.5572 23.9742 12.8072 23.7242C13.0572 23.4741 13.3964 23.3337 13.75 23.3337ZM22.1673 20.547L22.2927 20.6577L23.226 21.591C23.4651 21.8309 23.604 22.1529 23.6143 22.4915C23.6247 22.8301 23.5057 23.1599 23.2817 23.414C23.0576 23.6681 22.7453 23.8274 22.408 23.8595C22.0708 23.8917 21.734 23.7942 21.466 23.587L21.3407 23.4763L20.4073 22.543C20.1773 22.3133 20.039 22.0075 20.0186 21.683C19.9982 21.3585 20.0971 21.0378 20.2966 20.7811C20.4961 20.5244 20.7826 20.3495 21.102 20.2892C21.4215 20.2289 21.752 20.2874 22.0313 20.4537L22.1673 20.547ZM7.09268 20.6577C7.32224 20.8873 7.46015 21.1927 7.48053 21.5168C7.5009 21.8408 7.40234 22.1611 7.20334 22.4177L7.09268 22.543L6.15934 23.4763C5.9194 23.7155 5.59743 23.8543 5.25883 23.8646C4.92023 23.875 4.59039 23.756 4.3363 23.532C4.08222 23.3079 3.92293 22.9956 3.89081 22.6584C3.85869 22.3211 3.95613 21.9843 4.16334 21.7163L4.27401 21.591L5.20734 20.6577C5.45738 20.4077 5.79646 20.2673 6.15001 20.2673C6.50356 20.2673 6.84264 20.4077 7.09268 20.6577ZM3.08334 12.667C3.42318 12.6674 3.75005 12.7975 3.99717 13.0308C4.24428 13.2641 4.39299 13.5829 4.4129 13.9222C4.43282 14.2614 4.32244 14.5955 4.10432 14.8561C3.8862 15.1167 3.5768 15.2842 3.23934 15.3243L3.08334 15.3337H1.75001C1.41017 15.3333 1.0833 15.2032 0.836184 14.9699C0.589069 14.7366 0.440361 14.4177 0.420445 14.0785C0.400529 13.7392 0.510908 13.4052 0.729028 13.1445C0.947148 12.8839 1.25655 12.7165 1.59401 12.6763L1.75001 12.667H3.08334ZM25.75 12.667C26.0898 12.6674 26.4167 12.7975 26.6638 13.0308C26.9109 13.2641 27.0597 13.5829 27.0796 13.9222C27.0995 14.2614 26.9891 14.5955 26.771 14.8561C26.5529 15.1167 26.2435 15.2842 25.906 15.3243L25.75 15.3337H24.4167C24.0768 15.3333 23.75 15.2032 23.5029 14.9699C23.2557 14.7366 23.107 14.4177 23.0871 14.0785C23.0672 13.7392 23.1776 13.4052 23.3957 13.1445C23.6138 12.8839 23.9232 12.7165 24.2607 12.6763L24.4167 12.667H25.75ZM6.03401 4.41366L6.15934 4.52433L7.09268 5.45766C7.33181 5.6976 7.47064 6.01957 7.48098 6.35817C7.49132 6.69677 7.37239 7.02661 7.14834 7.2807C6.9243 7.53478 6.61194 7.69407 6.27471 7.72619C5.93748 7.75832 5.60066 7.66087 5.33267 7.45366L5.20734 7.34299L4.27401 6.40966C4.04479 6.1799 3.90725 5.87442 3.88716 5.5505C3.86707 5.22658 3.96582 4.90645 4.16489 4.65013C4.36396 4.39381 4.64968 4.2189 4.9685 4.15818C5.28731 4.09747 5.61733 4.15512 5.89668 4.32033L6.03401 4.41366ZM23.226 4.52433C23.4556 4.75392 23.5935 5.05938 23.6139 5.38342C23.6342 5.70745 23.5357 6.02779 23.3367 6.28433L23.226 6.40966L22.2927 7.34299C22.0527 7.58212 21.7308 7.72096 21.3922 7.7313C21.0536 7.74164 20.7237 7.62271 20.4696 7.39866C20.2155 7.17462 20.0563 6.86226 20.0241 6.52503C19.992 6.1878 20.0895 5.85098 20.2967 5.58299L20.4073 5.45766L21.3407 4.52433C21.5907 4.27436 21.9298 4.13394 22.2833 4.13394C22.6369 4.13394 22.976 4.27436 23.226 4.52433ZM13.75 0.666992C14.0766 0.667035 14.3918 0.786934 14.6358 1.00395C14.8799 1.22096 15.0358 1.51999 15.074 1.84433L15.0833 2.00033V3.33366C15.083 3.6735 14.9528 4.00037 14.7195 4.24748C14.4863 4.4946 14.1674 4.64331 13.8281 4.66322C13.4889 4.68314 13.1548 4.57276 12.8942 4.35464C12.6336 4.13652 12.4661 3.82712 12.426 3.48966L12.4167 3.33366V2.00033C12.4167 1.6467 12.5572 1.30756 12.8072 1.05752C13.0572 0.807468 13.3964 0.666992 13.75 0.666992ZM13.75 7.33366C15.0562 7.33358 16.3337 7.71725 17.4238 8.43699C18.5138 9.15674 19.3684 10.1809 19.8814 11.3821C20.3944 12.5834 20.5432 13.9089 20.3093 15.1941C20.0754 16.4792 19.4691 17.6673 18.5658 18.6108C17.6624 19.5543 16.5018 20.2116 15.2281 20.5012C13.9543 20.7907 12.6236 20.6996 11.4011 20.2393C10.1787 19.779 9.11839 18.9698 8.35195 17.912C7.58552 16.8543 7.1467 15.5947 7.09001 14.2897L7.08334 14.0003L7.09001 13.711C7.16457 11.9947 7.89882 10.3734 9.13964 9.18521C10.3805 7.99705 12.0321 7.33376 13.75 7.33366Z" fill="white" fill-opacity="0.2"/>
</svg>
