<svg width="28" height="28" viewBox="0 0 28 28" fill="none" xmlns="http://www.w3.org/2000/svg">
<path d="M13.7499 23.3341C14.0765 23.3342 14.3917 23.4541 14.6358 23.6711C14.8798 23.8881 15.0357 24.1871 15.0739 24.5115L15.0833 24.6675V26.0008C15.0829 26.3407 14.9528 26.6675 14.7195 26.9146C14.4862 27.1618 14.1673 27.3105 13.8281 27.3304C13.4888 27.3503 13.1548 27.2399 12.8942 27.0218C12.6336 26.8037 12.4661 26.4943 12.4259 26.1568L12.4166 26.0008V24.6675C12.4166 24.3139 12.5571 23.9747 12.8071 23.7247C13.0572 23.4746 13.3963 23.3341 13.7499 23.3341ZM22.1673 20.5475L22.2926 20.6581L23.2259 21.5915C23.4651 21.8314 23.6039 22.1534 23.6143 22.492C23.6246 22.8306 23.5057 23.1604 23.2816 23.4145C23.0576 23.6686 22.7452 23.8279 22.408 23.86C22.0707 23.8921 21.7339 23.7947 21.4659 23.5875L21.3406 23.4768L20.4073 22.5435C20.1772 22.3138 20.039 22.008 20.0186 21.6835C19.9982 21.359 20.097 21.0383 20.2965 20.7816C20.4961 20.5249 20.7825 20.35 21.102 20.2897C21.4214 20.2294 21.7519 20.2879 22.0313 20.4541L22.1673 20.5475ZM7.09261 20.6581C7.32218 20.8877 7.46009 21.1932 7.48047 21.5172C7.50084 21.8413 7.40228 22.1616 7.20328 22.4181L7.09261 22.5435L6.15928 23.4768C5.91934 23.7159 5.59737 23.8548 5.25877 23.8651C4.92017 23.8755 4.59033 23.7565 4.33624 23.5325C4.08216 23.3084 3.92287 22.9961 3.89075 22.6588C3.85862 22.3216 3.95606 21.9848 4.16328 21.7168L4.27395 21.5915L5.20728 20.6581C5.45732 20.4082 5.7964 20.2678 6.14995 20.2678C6.5035 20.2678 6.84258 20.4082 7.09261 20.6581ZM3.08328 12.6675C3.42312 12.6679 3.74999 12.798 3.99711 13.0313C4.24422 13.2646 4.39293 13.5834 4.41284 13.9227C4.43276 14.2619 4.32238 14.596 4.10426 14.8566C3.88614 15.1172 3.57674 15.2847 3.23928 15.3248L3.08328 15.3341H1.74995C1.41011 15.3338 1.08324 15.2036 0.836123 14.9704C0.589008 14.7371 0.4403 14.4182 0.420384 14.079C0.400468 13.7397 0.510846 13.4056 0.728967 13.145C0.947087 12.8844 1.25649 12.717 1.59395 12.6768L1.74995 12.6675H3.08328ZM25.7499 12.6675C26.0898 12.6679 26.4167 12.798 26.6638 13.0313C26.9109 13.2646 27.0596 13.5834 27.0795 13.9227C27.0994 14.2619 26.989 14.596 26.7709 14.8566C26.5528 15.1172 26.2434 15.2847 25.9059 15.3248L25.7499 15.3341H24.4166C24.0768 15.3338 23.7499 15.2036 23.5028 14.9704C23.2557 14.7371 23.107 14.4182 23.0871 14.079C23.0671 13.7397 23.1775 13.4056 23.3956 13.145C23.6138 12.8844 23.9232 12.717 24.2606 12.6768L24.4166 12.6675H25.7499ZM6.03395 4.41415L6.15928 4.52481L7.09261 5.45815C7.33174 5.69809 7.47058 6.02006 7.48092 6.35866C7.49126 6.69726 7.37233 7.0271 7.14828 7.28119C6.92424 7.53527 6.61188 7.69455 6.27465 7.72668C5.93742 7.7588 5.6006 7.66136 5.33261 7.45415L5.20728 7.34348L4.27395 6.41015C4.04473 6.18039 3.90719 5.87491 3.8871 5.55099C3.86701 5.22707 3.96576 4.90694 4.16483 4.65062C4.3639 4.3943 4.64962 4.21939 4.96844 4.15867C5.28725 4.09795 5.61727 4.1556 5.89661 4.32081L6.03395 4.41415ZM23.2259 4.52481C23.4555 4.7544 23.5934 5.05987 23.6138 5.38391C23.6342 5.70794 23.5356 6.02828 23.3366 6.28481L23.2259 6.41015L22.2926 7.34348C22.0527 7.58261 21.7307 7.72145 21.3921 7.73178C21.0535 7.74212 20.7237 7.62319 20.4696 7.39915C20.2155 7.1751 20.0562 6.86275 20.0241 6.52551C19.992 6.18828 20.0894 5.85147 20.2966 5.58348L20.4073 5.45815L21.3406 4.52481C21.5907 4.27485 21.9297 4.13443 22.2833 4.13443C22.6368 4.13443 22.9759 4.27485 23.2259 4.52481ZM13.7499 0.66748C14.0765 0.667524 14.3917 0.787422 14.6358 1.00443C14.8798 1.22145 15.0357 1.52048 15.0739 1.84481L15.0833 2.00081V3.33415C15.0829 3.67399 14.9528 4.00086 14.7195 4.24797C14.4862 4.49509 14.1673 4.64379 13.8281 4.66371C13.4888 4.68363 13.1548 4.57325 12.8942 4.35513C12.6336 4.13701 12.4661 3.82761 12.4259 3.49015L12.4166 3.33415V2.00081C12.4166 1.64719 12.5571 1.30805 12.8071 1.058C13.0572 0.807956 13.3963 0.66748 13.7499 0.66748ZM13.7499 7.33415C15.0562 7.33407 16.3337 7.71773 17.4237 8.43748C18.5138 9.15723 19.3684 10.1813 19.8814 11.3826C20.3944 12.5839 20.5431 13.9094 20.3092 15.1946C20.0754 16.4797 19.4691 17.6678 18.5657 18.6113C17.6624 19.5548 16.5017 20.2121 15.228 20.5017C13.9542 20.7912 12.6235 20.7001 11.4011 20.2398C10.1786 19.7795 9.11833 18.9702 8.35189 17.9125C7.58545 16.8548 7.14664 15.5952 7.08995 14.2901L7.08328 14.0008L7.08995 13.7115C7.16451 11.9951 7.89876 10.3739 9.13958 9.18569C10.3804 7.99754 12.032 7.33425 13.7499 7.33415Z" fill="white"/>
</svg>
