<svg width="61" height="60" viewBox="0 0 61 60" fill="none" xmlns="http://www.w3.org/2000/svg">
<rect x="0.5" width="60" height="60" rx="30" fill="url(#paint0_linear_214_1363)"/>
<path d="M24.3785 37.3955L17.7508 30.7725C17.3937 30.4157 16.9093 30.2152 16.4043 30.2152C15.8992 30.2152 15.4149 30.4157 15.0578 30.7725C14.7006 31.1294 14.5 31.6134 14.5 32.1181C14.5 32.368 14.5493 32.6155 14.645 32.8463C14.7407 33.0772 14.8809 33.287 15.0578 33.4637L23.0415 41.4417C23.7864 42.1861 24.9897 42.1861 25.7346 41.4417L45.9422 21.2485C46.2994 20.8916 46.5 20.4076 46.5 19.9029C46.5 19.3982 46.2994 18.9142 45.9422 18.5574C45.5851 18.2005 45.1008 18 44.5957 18C44.0907 18 43.6063 18.2005 43.2492 18.5574L24.3785 37.3955Z" fill="white"/>
<defs>
<linearGradient id="paint0_linear_214_1363" x1="57" y1="2.36357e-06" x2="0.499999" y2="63" gradientUnits="userSpaceOnUse">
<stop stop-color="#B48AEB"/>
<stop offset="0.473519" stop-color="#6C6FDF"/>
<stop offset="1" stop-color="#0031AC"/>
</linearGradient>
</defs>
</svg>
