<svg width="192" height="55" viewBox="0 0 192 55" fill="none" xmlns="http://www.w3.org/2000/svg">
<g filter="url(#filter0_d_303_1395)">
<path d="M35.342 45.406C33.2828 45.3933 31.7584 45.0494 30.773 44.3658C29.7876 43.6865 29.2949 42.6591 29.2949 41.2877C29.2949 40.4683 29.4971 39.7763 29.8971 39.2116C30.2972 38.647 30.8151 38.1714 31.451 37.7851C32.0868 37.3987 32.7775 37.0761 33.5228 36.8086C34.1882 36.5666 34.8577 36.3458 35.5315 36.142C36.3568 35.8873 37.1569 35.6156 37.9234 35.3184C38.694 35.0254 39.3846 34.6518 40.0036 34.206C40.6226 33.7602 41.1111 33.1956 41.4691 32.5078C41.8312 31.82 42.0123 30.9539 42.0123 29.9095C42.0123 29.4764 41.9491 29.0051 41.8186 28.4999C41.6922 27.9947 41.4733 27.5616 41.1616 27.2007C40.8542 26.8399 40.4373 26.6573 39.911 26.6573C39.5151 26.6573 39.1614 26.7932 38.854 27.0649C38.5466 27.3366 38.3908 27.6635 38.3908 28.0499C38.3908 28.3046 38.4413 28.5126 38.5382 28.6825C38.635 28.8523 38.7487 29.0051 38.8793 29.141C39.0056 29.2811 39.1193 29.4382 39.2204 29.6123C39.3172 29.7863 39.3677 30.0538 39.3677 30.4147C39.3677 31.3402 39.1403 32.1129 38.6856 32.7328C38.2308 33.3527 37.6412 33.8197 36.9127 34.1339C36.1842 34.448 35.4094 34.6051 34.5798 34.6051C33.7502 34.6051 33.0301 34.4862 32.31 34.2442C31.5857 34.0022 31.0004 33.6074 30.5456 33.0512C30.0908 32.4993 29.8634 31.7521 29.8634 30.8138C29.8634 29.9477 30.0992 29.2259 30.5709 28.6485C31.0425 28.0711 31.6531 27.6083 32.4069 27.2602C33.1607 26.912 33.9692 26.6446 34.8451 26.4663C35.7168 26.2837 36.5716 26.1691 37.4054 26.1139C38.2392 26.0587 38.9551 26.0332 39.5615 26.0332C42.6692 26.0332 45.1579 26.7083 47.0192 28.0541C49.1753 29.608 50.2491 32.0493 50.2491 35.3863V41.5977C50.2491 42.1623 50.2743 42.6718 50.3207 43.1218C50.367 43.5719 50.4933 43.9243 50.7039 44.179C50.9144 44.4337 51.2513 44.5569 51.7187 44.5569V45.0791H46.9518C44.2736 45.0791 42.7113 43.7672 42.2692 41.1434C41.9323 42.1666 41.3975 42.9902 40.6605 43.6186C39.9278 44.2427 39.0898 44.697 38.1465 44.9814C37.2033 45.2659 36.2642 45.406 35.3336 45.406H35.342ZM39.6583 42.7525C40.2647 42.7185 40.749 42.4595 41.1069 41.9755C41.4691 41.4958 41.7301 40.9311 41.8944 40.2858C42.0586 39.6404 42.1386 39.0927 42.1386 38.6342V32.5672C41.9154 33.4461 41.6249 34.2358 41.2669 34.932C40.989 35.4627 40.6184 36.0529 40.1678 36.7025C39.852 37.1737 39.5404 37.6535 39.233 38.146C38.9256 38.6385 38.6687 39.1352 38.4624 39.6277C38.2602 40.1202 38.155 40.5957 38.155 41.0542C38.155 41.5127 38.2687 41.9246 38.4961 42.2557C38.7235 42.5869 39.0856 42.7525 39.5867 42.7525H39.6583Z" fill="white"/>
<path d="M63.8171 45.0828H51.7314V44.5606C52.3715 44.5606 52.8305 44.4503 53.1042 44.2252C53.378 44.0045 53.5422 43.6775 53.6011 43.2487C53.6601 42.8199 53.6896 42.302 53.6896 41.6863V29.7519C53.6896 29.1363 53.6601 28.6183 53.6011 28.1895C53.5422 27.7607 53.378 27.438 53.1042 27.213C52.8305 26.9922 52.3715 26.8776 51.7314 26.8776V26.3554H61.8632V29.9302C62.8528 27.3913 64.8615 26.0709 67.8892 25.9775C69.3673 25.9775 70.5843 26.2875 71.5402 26.9073C72.4961 27.5272 73.2036 28.3254 73.671 29.2976C74.1384 30.2741 74.37 31.2846 74.37 32.329C74.37 33.3734 74.1553 34.3499 73.7342 35.2797C73.3088 36.2137 72.6814 36.9695 71.856 37.5469C71.0307 38.1243 70.0158 38.4257 68.8157 38.4512C67.9777 38.4512 67.186 38.2516 66.4406 37.8483C65.6953 37.445 65.0889 36.8421 64.6257 36.0439C64.1582 35.2457 63.9266 34.248 63.9266 33.055C63.9266 32.6686 64.0445 32.312 64.2761 31.9809C64.5078 31.6497 64.7815 31.3228 65.0889 30.9959C65.3963 30.6732 65.6742 30.3293 65.9185 29.9684C66.1627 29.6075 66.2848 29.217 66.2848 28.7966C66.2848 28.3975 66.1627 28.1088 65.9185 27.9305C65.6742 27.7522 65.4131 27.6588 65.131 27.6588C64.4446 27.6928 63.855 28.0069 63.3666 28.5971C62.8781 29.1872 62.5033 29.8878 62.2506 30.6987C61.9938 31.5096 61.8674 32.2229 61.8674 32.8385V41.5972C61.8674 42.2213 61.8969 42.7562 61.9559 43.1935C62.0148 43.6351 62.179 43.9705 62.4528 44.204C62.7265 44.4375 63.1855 44.5564 63.8256 44.5564V45.0786L63.8171 45.0828Z" fill="white"/>
<path d="M84.1523 45.4057C82.3584 45.4057 80.8003 45.1297 79.4696 44.582C78.1389 44.0343 77.0356 43.3041 76.1513 42.387C75.267 41.4742 74.6016 40.4383 74.1595 39.2835C73.7173 38.1286 73.4941 36.9484 73.4941 35.7469C73.4941 34.1208 73.89 32.5669 74.6817 31.0894C75.4733 29.6077 76.6608 28.4062 78.2442 27.4806C79.8276 26.5551 81.8025 26.0711 84.1649 26.0371C85.9336 26.0371 87.4832 26.3131 88.8097 26.8565C90.1362 27.4042 91.2437 28.1387 92.128 29.06C93.0123 29.9813 93.6777 31.0172 94.1198 32.1763C94.562 33.3311 94.7852 34.5156 94.7852 35.7341C94.7852 37.3475 94.3936 38.8929 93.6061 40.3661C92.8186 41.8393 91.6437 43.0408 90.0772 43.9664C88.5107 44.8919 86.5357 45.3759 84.1481 45.4099L84.1523 45.4057ZM86.3547 44.0173C86.7758 44.0173 87.1085 43.7796 87.3611 43.3041C87.6096 42.8286 87.7359 42.1323 87.7359 41.2195C87.7359 40.0392 87.5548 38.6636 87.1927 37.0927C86.8305 35.5218 86.3673 34.0061 85.7946 32.5414C85.2261 31.0767 84.6029 29.8582 83.9249 28.8859C83.2511 27.9094 82.59 27.4254 81.9499 27.4254C81.5288 27.4254 81.2004 27.6632 80.9561 28.1387C80.7119 28.6142 80.5898 29.3105 80.5898 30.2233C80.5898 31.4036 80.7666 32.7749 81.1203 34.3416C81.4741 35.9082 81.9373 37.4239 82.51 38.8929C83.0827 40.3618 83.7017 41.5846 84.3797 42.5568C85.0535 43.5333 85.7146 44.0173 86.3547 44.0173Z" fill="white"/>
<path d="M100.887 45.4056C99.8044 45.4056 98.7769 45.1806 97.8042 44.739C96.8314 44.2932 96.0397 43.597 95.4291 42.6459C94.8185 41.6949 94.5111 40.4679 94.5111 38.9607V29.752C94.5111 29.1364 94.4816 28.6184 94.4227 28.1896C94.3637 27.7608 94.1995 27.4381 93.9258 27.2131C93.6521 26.9923 93.1931 26.8777 92.553 26.8777V26.3555H104.639V26.8777C103.999 26.8777 103.54 26.9966 103.266 27.2301C102.992 27.4636 102.828 27.8032 102.769 28.2405C102.71 28.6821 102.681 29.2128 102.681 29.8369V40.434C102.681 41.1557 102.756 41.7289 102.908 42.1492C103.06 42.5695 103.262 42.8709 103.51 43.0535C103.759 43.2361 104.036 43.3252 104.34 43.3252C104.959 43.2913 105.472 43.0111 105.885 42.4931C106.298 41.9751 106.605 41.351 106.812 40.6165C107.014 39.882 107.119 39.2155 107.119 38.6126V29.8369C107.119 29.2128 107.09 28.6778 107.031 28.2405C106.972 27.8032 106.807 27.4636 106.534 27.2301C106.26 26.9966 105.801 26.8777 105.161 26.8777V26.3555H117.247V26.8777C116.606 26.8777 116.147 26.9966 115.874 27.2301C115.6 27.4636 115.436 27.8032 115.377 28.2405C115.318 28.6821 115.288 29.2128 115.288 29.8369V41.593C115.288 42.2171 115.318 42.7521 115.377 43.1894C115.436 43.6309 115.6 43.9663 115.874 44.1998C116.147 44.4333 116.602 44.5522 117.247 44.5522V45.0744H107.115V41.4274C106.567 42.7521 105.725 43.7456 104.584 44.4079C103.443 45.0702 102.209 45.4013 100.882 45.4013L100.887 45.4056Z" fill="white"/>
<path d="M128.242 45.0835H123.475C121.563 45.0835 120.237 44.4382 119.491 43.1518C118.885 42.1286 118.582 40.6256 118.582 38.6387L118.632 26.8868H117.251V26.3646H118.632L118.649 22.085H119.07C119.432 22.9511 120.072 23.7025 120.99 24.3436C121.908 24.9805 122.911 25.4772 123.993 25.8338C125.075 26.1905 125.997 26.3646 126.751 26.3646H128.271V26.8868H126.751V41.4917C126.751 42.0819 126.776 42.6083 126.823 43.0711C126.869 43.5339 126.995 43.899 127.197 44.1622C127.4 44.4254 127.749 44.5613 128.238 44.5613V45.0835H128.242Z" fill="white"/>
<path d="M140.366 45.0836H128.28V44.5614C128.92 44.5614 129.379 44.4426 129.653 44.209C129.927 43.9755 130.091 43.6359 130.15 43.1986C130.209 42.7613 130.238 42.2263 130.238 41.6022V29.8461C130.238 29.222 130.209 28.687 130.15 28.2497C130.091 27.8124 129.927 27.4728 129.653 27.2393C129.379 27.0058 128.92 26.8869 128.28 26.8869V26.3647H140.366V26.8869C139.726 26.8869 139.267 26.9973 138.993 27.2223C138.719 27.4473 138.555 27.77 138.496 28.1988C138.437 28.6276 138.408 29.1456 138.408 29.7612V41.6956C138.408 42.3112 138.437 42.8292 138.496 43.258C138.555 43.6868 138.719 44.0095 138.993 44.2345C139.267 44.4595 139.726 44.5699 140.366 44.5699V45.0921V45.0836ZM134.319 25.5835C133.283 25.5835 132.419 25.3967 131.733 25.0231C131.047 24.6494 130.529 24.1697 130.188 23.5795C129.842 22.9894 129.674 22.378 129.674 21.7369C129.674 21.0959 129.847 20.4633 130.188 19.8689C130.529 19.2745 131.051 18.7905 131.742 18.4254C132.436 18.0602 133.291 17.8692 134.319 17.8564C135.342 17.8564 136.201 18.0433 136.887 18.4169C137.574 18.7905 138.088 19.2745 138.433 19.8689C138.778 20.4633 138.947 21.0831 138.947 21.72C138.947 22.3568 138.778 22.9724 138.441 23.5626C138.104 24.1527 137.591 24.6325 136.904 25.0061C136.218 25.3797 135.355 25.5707 134.319 25.5835Z" fill="white"/>
<path d="M165.063 45.0837H152.973V44.5614C153.613 44.5614 154.072 44.4426 154.346 44.2091C154.62 43.9756 154.784 43.6359 154.843 43.1986C154.902 42.7613 154.931 42.2264 154.931 41.6022V31.0052C154.931 30.2834 154.856 29.7103 154.704 29.2899C154.552 28.8696 154.35 28.5682 154.102 28.3856C153.849 28.2073 153.58 28.1139 153.289 28.1139C152.662 28.1479 152.14 28.4281 151.727 28.946C151.314 29.464 151.007 30.0881 150.8 30.8226C150.594 31.5571 150.493 32.2237 150.493 32.8265V41.6022C150.493 42.2264 150.523 42.7613 150.581 43.1986C150.64 43.6402 150.805 43.9756 151.078 44.2091C151.352 44.4426 151.807 44.5614 152.451 44.5614V45.0837H140.365V44.5614C141.006 44.5614 141.465 44.4511 141.738 44.226C142.012 44.0053 142.176 43.6784 142.235 43.2495C142.294 42.8207 142.324 42.3028 142.324 41.6872V29.7527C142.324 29.1371 142.294 28.6191 142.235 28.1903C142.176 27.7615 142.012 27.4388 141.738 27.2138C141.465 26.9931 141.006 26.8784 140.365 26.8784V26.3562H150.497V30.0032C151.045 28.6786 151.891 27.6851 153.028 27.0228C154.169 26.3605 155.403 26.0293 156.734 26.0293C157.829 26.0293 158.856 26.2501 159.825 26.6959C160.789 27.1417 161.581 27.8379 162.191 28.789C162.802 29.74 163.109 30.967 163.109 32.4699V41.5895C163.109 42.2136 163.139 42.7486 163.198 43.1859C163.257 43.6274 163.421 43.9628 163.695 44.1963C163.968 44.4298 164.427 44.5487 165.067 44.5487V45.0709L165.063 45.0837Z" fill="white"/>
<path d="M173.852 45.4056C172.037 45.4056 170.441 45.1297 169.064 44.5735C167.687 44.0173 166.546 43.2786 165.632 42.3446C164.718 41.4105 164.027 40.3661 163.56 39.2028C163.092 38.0395 162.861 36.8465 162.861 35.6195C162.861 34.3925 163.088 33.2419 163.543 32.0999C163.998 30.9578 164.684 29.9303 165.606 29.0218C166.524 28.1132 167.678 27.3872 169.055 26.848C170.437 26.3046 172.049 26.0371 173.902 26.0371C175.755 26.0371 177.402 26.3428 178.812 26.9584C180.64 27.7651 181.554 29.043 181.554 30.788C181.554 31.4503 181.356 32.0489 180.96 32.5839C180.564 33.1188 180.067 33.6198 179.465 34.0826C178.867 34.5453 178.24 34.9869 177.587 35.4114C177.006 35.7851 176.458 36.1587 175.953 36.5408C175.448 36.9186 175.035 37.3135 174.723 37.7253C174.408 38.1329 174.252 38.5702 174.252 39.0245C174.252 39.3387 174.332 39.5891 174.496 39.7844C174.728 40.0604 175.09 40.2769 175.578 40.434C178.021 41.2152 181.036 41.3511 183.108 39.5934C184.59 38.3367 185.394 36.3115 185.184 34.3713C185.487 36.2224 185.104 38.1754 184.127 39.7717C182.135 43.0323 177.591 45.4184 173.847 45.4184L173.852 45.4056ZM173.502 39.1943C173.279 38.6424 173.169 38.0735 173.169 37.4961C173.169 36.8592 173.266 36.2096 173.456 35.5473C173.65 34.885 173.864 34.2184 174.113 33.5434C174.382 32.8089 174.618 32.0617 174.82 31.3059C175.022 30.5502 175.132 29.7817 175.144 29.0133C175.144 28.6142 175.102 28.2448 175.014 27.9009C174.925 27.557 174.77 27.2768 174.542 27.0518C174.315 26.831 173.986 26.7164 173.557 26.7164C172.951 26.7164 172.433 26.9584 172.003 27.4467C171.573 27.9349 171.245 28.5802 171.018 29.3784C170.79 30.1808 170.677 31.0554 170.677 32.0065C170.677 33.2844 170.904 34.5708 171.359 35.87C171.814 37.1691 172.529 38.2772 173.506 39.1943H173.502Z" fill="white"/>
<path d="M27.9135 26.3855C24.3762 21.1889 24.2162 14.744 25.7616 7.65807L25.2395 7.49249L20.4431 23.0187L20.241 24.1438L22.5612 23.4093L20.6284 24.925L25.8122 27.2898L20.2368 26.2709L20.9611 28.589L19.4703 26.6572L17.1248 31.8921L18.1397 26.2412L15.8236 26.9757L17.7228 25.4812L12.5558 23.1249L18.1565 24.1481L17.4196 21.7918L18.9145 23.7278L19.3819 22.6833L24.1825 7.16558L23.6603 7C20.9442 13.7166 17.1795 18.926 11.3388 21.1804C11.4525 27.5573 10.5892 33.896 8.94273 40.1923L8.04578 39.9121L6.71509 44.2214L18.7418 48L20.0725 43.6907L19.1756 43.4105C21.3695 37.284 24.233 31.5737 27.9177 26.3898L27.9135 26.3855Z" fill="white"/>
</g>
<defs>
<filter id="filter0_d_303_1395" x="0.0150881" y="0.3" width="191.97" height="54.4" filterUnits="userSpaceOnUse" color-interpolation-filters="sRGB">
<feFlood flood-opacity="0" result="BackgroundImageFix"/>
<feColorMatrix in="SourceAlpha" type="matrix" values="0 0 0 0 0 0 0 0 0 0 0 0 0 0 0 0 0 0 127 0" result="hardAlpha"/>
<feOffset/>
<feGaussianBlur stdDeviation="3.35"/>
<feComposite in2="hardAlpha" operator="out"/>
<feColorMatrix type="matrix" values="0 0 0 0 0.586182 0 0 0 0 0.731018 0 0 0 0 1 0 0 0 1 0"/>
<feBlend mode="normal" in2="BackgroundImageFix" result="effect1_dropShadow_303_1395"/>
<feBlend mode="normal" in="SourceGraphic" in2="effect1_dropShadow_303_1395" result="shape"/>
</filter>
</defs>
</svg>
