<svg width="36" height="36" viewBox="0 0 36 36" fill="none" xmlns="http://www.w3.org/2000/svg">
<rect width="36" height="36" rx="18" fill="white"/>
<path d="M18 26.1667C18.2857 26.1667 18.5615 26.2717 18.7751 26.4615C18.9886 26.6514 19.125 26.9131 19.1585 27.1969L19.1666 27.3334V28.5C19.1663 28.7974 19.0524 29.0834 18.8483 29.2996C18.6442 29.5159 18.3652 29.646 18.0683 29.6634C17.7715 29.6808 17.4792 29.5843 17.2512 29.3934C17.0231 29.2025 16.8766 28.9318 16.8415 28.6365L16.8333 28.5V27.3334C16.8333 27.024 16.9562 26.7272 17.175 26.5084C17.3938 26.2896 17.6905 26.1667 18 26.1667ZM25.3651 23.7284L25.4748 23.8252L26.2915 24.6419C26.5007 24.8518 26.6222 25.1335 26.6312 25.4298C26.6403 25.7261 26.5362 26.0147 26.3402 26.237C26.1441 26.4594 25.8708 26.5987 25.5757 26.6268C25.2807 26.6549 24.986 26.5697 24.7515 26.3884L24.6418 26.2915L23.8251 25.4749C23.6238 25.2739 23.5028 25.0063 23.485 24.7224C23.4672 24.4385 23.5537 24.1578 23.7282 23.9332C23.9028 23.7086 24.1534 23.5555 24.433 23.5028C24.7125 23.45 25.0017 23.5012 25.2461 23.6467L25.3651 23.7284ZM12.1748 23.8252C12.3757 24.0261 12.4963 24.2934 12.5142 24.5769C12.532 24.8604 12.4458 25.1407 12.2716 25.3652L12.1748 25.4749L11.3581 26.2915C11.1482 26.5008 10.8665 26.6223 10.5702 26.6313C10.2739 26.6404 9.9853 26.5363 9.76298 26.3402C9.54065 26.1442 9.40128 25.8709 9.37317 25.5758C9.34506 25.2807 9.43032 24.986 9.61164 24.7515L9.70847 24.6419L10.5251 23.8252C10.7439 23.6065 11.0406 23.4836 11.35 23.4836C11.6593 23.4836 11.956 23.6065 12.1748 23.8252ZM8.66664 16.8334C8.96399 16.8337 9.25001 16.9476 9.46623 17.1517C9.68246 17.3558 9.81258 17.6348 9.83 17.9317C9.84743 18.2285 9.75085 18.5208 9.55999 18.7488C9.36914 18.9769 9.09841 19.1234 8.80314 19.1585L8.66664 19.1667H7.49997C7.20261 19.1664 6.9166 19.0525 6.70037 18.8484C6.48415 18.6443 6.35403 18.3653 6.3366 18.0684C6.31917 17.7716 6.41576 17.4793 6.60661 17.2512C6.79747 17.0232 7.06819 16.8767 7.36347 16.8415L7.49997 16.8334H8.66664ZM28.5 16.8334C28.7973 16.8337 29.0833 16.9476 29.2996 17.1517C29.5158 17.3558 29.6459 17.6348 29.6633 17.9317C29.6808 18.2285 29.5842 18.5208 29.3933 18.7488C29.2025 18.9769 28.9317 19.1234 28.6365 19.1585L28.5 19.1667H27.3333C27.0359 19.1664 26.7499 19.0525 26.5337 18.8484C26.3175 18.6443 26.1874 18.3653 26.1699 18.0684C26.1525 17.7716 26.2491 17.4793 26.4399 17.2512C26.6308 17.0232 26.9015 16.8767 27.1968 16.8415L27.3333 16.8334H28.5ZM11.2485 9.61171L11.3581 9.70854L12.1748 10.5252C12.384 10.7352 12.5055 11.0169 12.5146 11.3132C12.5236 11.6094 12.4196 11.898 12.2235 12.1204C12.0275 12.3427 11.7542 12.4821 11.4591 12.5102C11.164 12.5383 10.8693 12.453 10.6348 12.2717L10.5251 12.1749L9.70847 11.3582C9.50791 11.1572 9.38756 10.8899 9.36998 10.6064C9.3524 10.323 9.43881 10.0429 9.61299 9.81862C9.78718 9.59434 10.0372 9.44129 10.3161 9.38816C10.5951 9.33504 10.8839 9.38548 11.1283 9.53004L11.2485 9.61171ZM26.2915 9.70854C26.4923 9.90943 26.613 10.1767 26.6308 10.4602C26.6487 10.7438 26.5624 11.0241 26.3883 11.2485L26.2915 11.3582L25.4748 12.1749C25.2649 12.3841 24.9831 12.5056 24.6869 12.5146C24.3906 12.5237 24.102 12.4196 23.8796 12.2236C23.6573 12.0275 23.5179 11.7542 23.4898 11.4592C23.4617 11.1641 23.547 10.8694 23.7283 10.6349L23.8251 10.5252L24.6418 9.70854C24.8606 9.48982 25.1573 9.36696 25.4666 9.36696C25.776 9.36696 26.0727 9.48982 26.2915 9.70854ZM18 6.33337C18.2857 6.33341 18.5615 6.43832 18.7751 6.62821C18.9886 6.81809 19.125 7.07975 19.1585 7.36354L19.1666 7.50004V8.66671C19.1663 8.96407 19.0524 9.25008 18.8483 9.4663C18.6442 9.68253 18.3652 9.81265 18.0683 9.83007C17.7715 9.8475 17.4792 9.75092 17.2512 9.56007C17.0231 9.36921 16.8766 9.09849 16.8415 8.80321L16.8333 8.66671V7.50004C16.8333 7.19062 16.9562 6.89388 17.175 6.67508C17.3938 6.45629 17.6905 6.33337 18 6.33337ZM18 12.1667C19.1429 12.1666 20.2607 12.5023 21.2145 13.1321C22.1683 13.7619 22.9161 14.658 23.365 15.7091C23.8138 16.7603 23.944 17.9201 23.7394 19.0446C23.5347 20.1691 23.0042 21.2086 22.2138 22.0342C21.4233 22.8598 20.4078 23.4349 19.2933 23.6883C18.1787 23.9416 17.0143 23.8619 15.9447 23.4592C14.8751 23.0564 13.9473 22.3483 13.2767 21.4228C12.606 20.4972 12.2221 19.3951 12.1725 18.2532L12.1666 18L12.1725 17.7469C12.2377 16.2451 12.8802 14.8264 13.9659 13.7868C15.0516 12.7472 16.4968 12.1668 18 12.1667Z" fill="#6C6FDF"/>
</svg>
