<svg width="36" height="36" viewBox="0 0 36 36" fill="none" xmlns="http://www.w3.org/2000/svg">
<path d="M26.9663 19.8457C26.4278 21.604 25.3485 23.1477 23.8821 24.257C22.5947 25.2262 21.0626 25.8173 19.458 25.964C17.8533 26.1107 16.2395 25.8071 14.7977 25.0874C13.356 24.3676 12.1433 23.2602 11.2958 21.8894C10.4484 20.5186 9.99965 18.9387 10 17.327C9.99431 15.4458 10.6057 13.6146 11.7405 12.1144C12.8496 10.6477 14.3929 9.56817 16.1509 9.02954C16.2667 8.99385 16.3901 8.99043 16.5078 9.01965C16.6255 9.04887 16.7329 9.10962 16.8186 9.19536C16.9044 9.2811 16.9651 9.3886 16.9943 9.50628C17.0235 9.62397 17.0201 9.74739 16.9844 9.86328C16.6 11.1351 16.5678 12.4874 16.8912 13.7761C17.2146 15.0648 17.8814 16.2416 18.8207 17.1811C19.76 18.1206 20.9366 18.7876 22.225 19.1111C23.5134 19.4345 24.8654 19.4023 26.1369 19.0178C26.2528 18.9821 26.3762 18.9787 26.4938 19.0079C26.6115 19.0371 26.719 19.0979 26.8047 19.1836C26.8904 19.2694 26.9511 19.3768 26.9804 19.4945C27.0096 19.6122 27.0061 19.7356 26.9705 19.8515L26.9663 19.8457Z" fill="black" fill-opacity="0.3"/>
</svg>
